SplineFontDB: 3.0
FontName: DejaVuSerifCondensed-Italic
FullName: DejaVu Serif Italic Condensed
FamilyName: DejaVu Serif Condensed
Weight: Book
Copyright: Copyright (c) 2003 by Bitstream, Inc. All Rights Reserved.\nDejaVu changes are in public domain\n
Version: 2.26
ItalicAngle: -11
UnderlinePosition: -85
UnderlineWidth: 90
Ascent: 1556
Descent: 492
LayerCount: 2
Layer: 0 1 "Back" 
Layer: 1 1 "Fore" 
NeedsXUIDChange: 1
FSType: 0
OS2Version: 0
OS2_WeightWidthSlopeOnly: 0
OS2_UseTypoMetrics: 0
PfmFamily: 17
TTFWeight: 400
TTFWidth: 4
LineGap: 0
VLineGap: 0
Panose: 2 6 6 6 5 3 5 11 2 4
OS2TypoAscent: 1556
OS2TypoAOffset: 0
OS2TypoDescent: -492
OS2TypoDOffset: 0
OS2TypoLinegap: 410
OS2WinAscent: 1901
OS2WinAOffset: 0
OS2WinDescent: 483
OS2WinDOffset: 0
HheadAscent: 1901
HheadAOffset: 0
HheadDescent: -483
HheadDOffset: 0
OS2Vendor: 'PfEd'
Lookup: 6 0 0 "'ccmp' Contextual Chaining Substitution"  {"'ccmp' Contextual Chaining Substitution"  } ['ccmp' ('DFLT' <'dflt' > 'cyrl' <'MKD ' 'SRB ' 'dflt' > 'grek' <'dflt' > 'latn' <'AZE ' 'CRT ' 'GAG ' 'ISM ' 'KAZ ' 'KRK ' 'KSM ' 'LSM ' 'NSM ' 'SKS ' 'SSM ' 'TAT ' 'TRK ' 'dflt' > ) ]
Lookup: 1 0 0 "'locl' Localized Forms in Cyrillic - Serbian"  {"'locl' Localized Forms in Cyrillic - Serbian"  } ['locl' ('cyrl' <'MKD ' 'SRB ' > ) ]
Lookup: 1 0 0 "'locl' Localized Forms in Latin - Sami"  {"'locl' Localized Forms in Latin - Sami"  } ['locl' ('latn' <'ISM ' 'KSM ' 'LSM ' 'NSM ' 'SKS ' 'SSM ' > ) ]
Lookup: 4 0 1 "'liga' Standard Ligatures"  {"'liga' Standard Ligatures"  } ['liga' ('DFLT' <'dflt' > 'cyrl' <'MKD ' 'SRB ' 'dflt' > 'grek' <'dflt' > 'latn' <'AZE ' 'CRT ' 'GAG ' 'ISM ' 'KAZ ' 'KRK ' 'KSM ' 'LSM ' 'NSM ' 'SKS ' 'SSM ' 'TAT ' 'TRK ' 'dflt' > ) ]
Lookup: 4 0 1 "'liga' Standard Ligatures - Without dotless i"  {"'liga' Standard Ligatures - Without dotless i"  } ['liga' ('DFLT' <'dflt' > 'cyrl' <'MKD ' 'SRB ' 'dflt' > 'grek' <'dflt' > 'latn' <'ISM ' 'KSM ' 'LSM ' 'NSM ' 'SKS ' 'SSM ' 'dflt' > ) ]

StartChar: .notdef
Encoding: 0 -1 0
AltUni2: 000000.ffffffff.0
Width: 1106
Flags: W
LayerCount: 2
Fore
SplineSet
91.7998 -362 m 1,0,-1
 91.7998 1444 l 1,1,-1
 1013.4 1444 l 1,2,-1
 1013.4 -362 l 1,3,-1
 91.7998 -362 l 1,0,-1
195.3 -248 m 1,4,-1
 910.8 -248 l 1,5,-1
 910.8 1329 l 1,6,-1
 195.3 1329 l 1,7,-1
 195.3 -248 l 1,4,-1
EndSplineSet
EndChar
StartChar: exclam
Encoding: 33 33 33
Width: 740
Flags: W
LayerCount: 2
Fore
SplineSet
141.236 104 m 0,0,1
 151.032 160 151.032 160 192.057 199 c 128,-1,2
 233.079 238 233.079 238 284.379 238 c 0,3,4
 333.879 238 333.879 238 362.156 199 c 128,-1,5
 390.433 160 390.433 160 380.636 104 c 0,6,7
 371.015 49 371.015 49 329.092 10 c 128,-1,8
 287.168 -29 287.168 -29 237.668 -29 c 0,9,10
 186.368 -29 186.368 -29 158.905 9.5 c 128,-1,11
 131.439 48 131.439 48 141.236 104 c 0,0,1
387.832 1493 m 1,12,-1
 620.031 1493 l 1,13,-1
 415.203 672 l 1,14,-1
 371.118 420 l 1,15,-1
 260.419 420 l 1,16,-1
 304.503 672 l 1,17,-1
 387.832 1493 l 1,12,-1
EndSplineSet
EndChar
StartChar: quotedbl
Encoding: 34 34 34
Width: 847
Flags: W
LayerCount: 2
Fore
SplineSet
324 1493 m 1,0,-1
 324 938 l 1,1,-1
 180.9 938 l 1,2,-1
 180.9 1493 l 1,3,-1
 324 1493 l 1,0,-1
666.9 1493 m 1,4,-1
 666.9 938 l 1,5,-1
 523.8 938 l 1,6,-1
 523.8 1493 l 1,7,-1
 666.9 1493 l 1,4,-1
EndSplineSet
EndChar
StartChar: numbersign
Encoding: 35 35 35
Width: 1544
Flags: W
LayerCount: 2
Fore
SplineSet
937.8 901 m 1,0,-1
 684 901 l 1,1,-1
 608.4 567 l 1,2,-1
 864.9 567 l 1,3,-1
 937.8 901 l 1,0,-1
810.9 1470 m 1,4,-1
 719.1 1055 l 1,5,-1
 972.9 1055 l 1,6,-1
 1065.6 1470 l 1,7,-1
 1220.4 1470 l 1,8,-1
 1125.9 1055 l 1,9,-1
 1403.1 1055 l 1,10,-1
 1403.1 901 l 1,11,-1
 1090.8 901 l 1,12,-1
 1017 567 l 1,13,-1
 1299.6 567 l 1,14,-1
 1299.6 414 l 1,15,-1
 982.8 414 l 1,16,-1
 890.1 0 l 1,17,-1
 735.3 0 l 1,18,-1
 829.8 414 l 1,19,-1
 575.1 414 l 1,20,-1
 481.5 0 l 1,21,-1
 328.5 0 l 1,22,-1
 420.3 414 l 1,23,-1
 142.2 414 l 1,24,-1
 142.2 567 l 1,25,-1
 455.4 567 l 1,26,-1
 529.2 901 l 1,27,-1
 244.8 901 l 1,28,-1
 244.8 1055 l 1,29,-1
 564.3 1055 l 1,30,-1
 657.9 1470 l 1,31,-1
 810.9 1470 l 1,4,-1
EndSplineSet
EndChar
StartChar: dollar
Encoding: 36 36 36
Width: 1172
Flags: W
LayerCount: 2
Fore
SplineSet
523.119 68 m 1,0,1
 626.569 78 626.569 78 689.741 133 c 128,-1,2
 752.913 188 752.913 188 769.532 283 c 0,3,4
 784.578 369 784.578 369 741.974 429 c 128,-1,5
 699.37 489 699.37 489 602.193 520 c 1,6,-1
 523.119 68 l 1,0,1
628.881 1187 m 1,7,8
 534.956 1180 534.956 1180 474.471 1127.5 c 128,-1,9
 413.986 1075 413.986 1075 398.592 987 c 0,10,11
 384.596 907 384.596 907 422.574 854 c 128,-1,12
 460.553 801 460.553 801 555.58 768 c 1,13,-1
 628.881 1187 l 1,7,8
61.2197 72 m 1,14,-1
 109.504 348 l 1,15,-1
 206.704 348 l 1,16,17
 186.337 211 186.337 211 242.49 141 c 128,-1,18
 298.645 71 298.645 71 433.119 68 c 1,19,-1
 517.967 553 l 1,20,21
 322.163 617 322.163 617 253.07 700.5 c 128,-1,22
 183.979 784 183.979 784 208.12 922 c 0,23,24
 236.111 1082 236.111 1082 352.081 1179 c 128,-1,25
 468.051 1276 468.051 1276 646.55 1288 c 1,26,-1
 693.434 1556 l 1,27,-1
 783.434 1556 l 1,28,-1
 736.55 1288 l 1,29,30
 826.05 1280 826.05 1280 905.913 1255.5 c 128,-1,31
 985.779 1231 985.779 1231 1058.71 1190 c 1,32,-1
 1012.87 928 l 1,33,-1
 914.769 928 l 1,34,35
 924.264 1044 924.264 1044 873.884 1111 c 128,-1,36
 823.506 1178 823.506 1178 718.881 1187 c 1,37,-1
 639.807 735 l 1,38,39
 849.484 668 849.484 668 923.004 581.5 c 128,-1,40
 996.516 495 996.516 495 971.154 350 c 0,41,42
 942.111 184 942.111 184 820.219 84 c 128,-1,43
 698.324 -16 698.324 -16 505.801 -31 c 1,44,-1
 458.566 -301 l 1,45,-1
 368.566 -301 l 1,46,-1
 415.801 -31 l 1,47,48
 329.751 -29 329.751 -29 241.512 -3.5 c 128,-1,49
 153.272 22 153.272 22 61.2197 72 c 1,14,-1
EndSplineSet
EndChar
StartChar: percent
Encoding: 37 37 37
Width: 1751
Flags: W
LayerCount: 2
Fore
SplineSet
532.323 1427 m 0,0,1
 453.123 1427 453.123 1427 394.054 1344 c 128,-1,2
 334.982 1261 334.982 1261 308.916 1112 c 0,3,4
 283.199 965 283.199 965 313.955 881 c 128,-1,5
 344.71 797 344.71 797 422.109 797 c 0,6,7
 498.609 797 498.609 797 557.767 880.5 c 128,-1,8
 616.925 964 616.925 964 642.816 1112 c 0,9,10
 668.708 1260 668.708 1260 638.765 1343.5 c 128,-1,11
 608.823 1427 608.823 1427 532.323 1427 c 0,0,1
1331.09 694 m 0,12,13
 1252.79 694 1252.79 694 1193.54 610 c 128,-1,14
 1134.3 526 1134.3 526 1108.23 377 c 0,15,16
 1082.52 230 1082.52 230 1112.91 146.5 c 128,-1,17
 1143.31 63 1143.31 63 1220.7 63 c 0,18,19
 1298.11 63 1298.11 63 1356.81 146.5 c 128,-1,20
 1415.52 230 1415.52 230 1441.23 377 c 0,21,22
 1467.13 525 1467.13 525 1437.35 609.5 c 128,-1,23
 1407.59 694 1407.59 694 1331.09 694 c 0,12,13
1346.83 784 m 0,24,25
 1489.03 784 1489.03 784 1553.49 674 c 128,-1,26
 1617.95 564 1617.95 564 1585.23 377 c 0,27,28
 1552.52 190 1552.52 190 1449.22 80.5 c 128,-1,29
 1345.91 -29 1345.91 -29 1204.61 -29 c 0,30,31
 1060.61 -29 1060.61 -29 996.066 80.5 c 128,-1,32
 931.518 190 931.518 190 964.233 377 c 0,33,34
 997.119 565 997.119 565 1100.43 674.5 c 128,-1,35
 1203.73 784 1203.73 784 1346.83 784 c 0,24,25
1363.09 1520 m 1,36,-1
 1499.89 1520 l 1,37,-1
 388.307 -29 l 1,38,-1
 251.507 -29 l 1,39,-1
 1363.09 1520 l 1,36,-1
546.793 1520 m 0,40,41
 688.993 1520 688.993 1520 754.437 1410.5 c 128,-1,42
 819.881 1301 819.881 1301 787.166 1114 c 0,43,44
 754.103 925 754.103 925 650.884 816 c 128,-1,45
 547.665 707 547.665 707 404.565 707 c 0,46,47
 261.465 707 261.465 707 197.371 816.5 c 128,-1,48
 133.277 926 133.277 926 166.166 1114 c 0,49,50
 198.706 1300 198.706 1300 301.649 1410 c 128,-1,51
 404.593 1520 404.593 1520 546.793 1520 c 0,40,41
EndSplineSet
EndChar
StartChar: ampersand
Encoding: 38 38 38
Width: 1640
Flags: W
LayerCount: 2
Fore
SplineSet
905.391 231 m 1,0,-1
 488.835 844 l 1,1,2
 396.882 766 396.882 766 341.901 675.5 c 128,-1,4
 286.92 585 286.92 585 269.082 483 c 0,5,6
 261.612 440.28 261.612 440.28 261.612 401.11 c 0,7,8
 261.612 288.05 261.612 288.05 323.856 204.5 c 0,9,10
 407.673 92 407.673 92 562.473 92 c 0,11,12
 654.273 92 654.273 92 741.933 127.5 c 128,-1,13
 829.593 163 829.593 163 905.391 231 c 1,0,-1
1422.98 0 m 1,14,-1
 1062.08 0 l 1,15,-1
 964.143 145 l 1,16,17
 854.253 57 854.253 57 739.629 14 c 128,-1,18
 625.005 -29 625.005 -29 500.805 -29 c 0,19,20
 268.605 -29 268.605 -29 155.799 103 c 0,21,22
 72.2695 200.74 72.2695 200.74 72.2695 350.03 c 0,23,24
 72.2695 402.35 72.2695 402.35 82.5303 461 c 0,25,26
 105.795 594 105.795 594 194.85 709.5 c 128,-1,28
 283.905 825 283.905 825 441.081 926 c 1,29,30
 405.846 987 405.846 987 394.83 1047.5 c 0,31,32
 389.448 1077.04 389.448 1077.04 389.448 1107.89 c 0,33,34
 389.448 1140.22 389.448 1140.22 395.361 1174 c 0,35,36
 423.18 1333 423.18 1333 542.583 1426.5 c 128,-1,38
 661.995 1520 661.995 1520 839.295 1520 c 0,39,40
 899.595 1520 899.595 1520 977.166 1503 c 128,-1,42
 1054.75 1486 1054.75 1486 1152.3 1452 c 1,43,-1
 1107.16 1194 l 1,44,-1
 1005.46 1194 l 1,45,46
 1006.16 1206.14 1006.16 1206.14 1006.16 1217.63 c 0,47,48
 1006.16 1307.36 1006.16 1307.36 963.774 1357 c 0,49,50
 915.975 1413 915.975 1413 816.975 1413 c 0,51,52
 724.275 1413 724.275 1413 656.793 1356.5 c 128,-1,54
 589.302 1300 589.302 1300 573.561 1210 c 0,55,56
 569.853 1188.78 569.853 1188.78 569.853 1167.63 c 0,57,58
 569.853 1127.96 569.853 1127.96 582.903 1088.5 c 0,59,60
 602.226 1030.11 602.226 1030.11 680.355 915 c 2,61,-1
 1049.58 371 l 1,62,63
 1125.67 451 1125.67 451 1177.42 543.5 c 128,-1,65
 1229.15 636 1229.15 636 1256.51 741 c 1,66,-1
 1275.23 848 l 1,67,-1
 1538.93 848 l 1,68,-1
 1520.21 741 l 1,69,-1
 1365.41 741 l 1,70,71
 1327.37 611 1327.37 611 1263.05 498 c 128,-1,73
 1198.74 385 1198.74 385 1107.24 289 c 1,74,-1
 1230.02 106 l 1,75,-1
 1441.52 106 l 1,76,-1
 1422.98 0 l 1,14,-1
EndSplineSet
EndChar
StartChar: quotesingle
Encoding: 39 39 39
Width: 506
Flags: W
LayerCount: 2
Fore
SplineSet
324 1493 m 1,0,-1
 324 938 l 1,1,-1
 180.9 938 l 1,2,-1
 180.9 1493 l 1,3,-1
 324 1493 l 1,0,-1
EndSplineSet
EndChar
StartChar: parenleft
Encoding: 40 40 40
Width: 719
Flags: W
LayerCount: 2
Fore
SplineSet
423.692 -319 m 1,0,1
 224.061 -210 224.061 -210 153.834 26.5 c 128,-1,2
 83.6074 263 83.6074 263 145.712 618 c 0,3,4
 207.993 974 207.993 974 360.966 1210.5 c 128,-1,5
 513.939 1447 513.939 1447 751.708 1556 c 1,6,-1
 734.564 1458 l 1,7,8
 577.42 1352 577.42 1352 483.444 1159.5 c 128,-1,9
 389.467 967 389.467 967 328.412 618 c 0,10,11
 267.533 270 267.533 270 294.156 77.5 c 128,-1,12
 320.779 -115 320.779 -115 440.835 -221 c 1,13,-1
 423.692 -319 l 1,0,1
EndSplineSet
EndChar
StartChar: parenright
Encoding: 41 41 41
Width: 719
Flags: W
LayerCount: 2
Fore
SplineSet
-33.5078 -319 m 1,0,-1
 -16.3643 -221 l 1,1,2
 140.78 -115 140.78 -115 235.206 77.5 c 128,-1,3
 329.633 270 329.633 270 390.512 618 c 0,4,5
 451.566 967 451.566 967 424.494 1159.5 c 128,-1,6
 397.42 1352 397.42 1352 277.364 1458 c 1,7,-1
 294.508 1556 l 1,8,9
 495.04 1447 495.04 1447 565.266 1210.5 c 128,-1,10
 635.493 974 635.493 974 573.212 618 c 0,11,12
 511.107 263 511.107 263 358.135 26.5 c 128,-1,13
 205.16 -210 205.16 -210 -33.5078 -319 c 1,0,-1
EndSplineSet
EndChar
StartChar: asterisk
Encoding: 42 42 42
Width: 921
Flags: W
LayerCount: 2
Fore
SplineSet
891.9 1237 m 1,0,-1
 540 1055 l 1,1,-1
 891.9 870 l 1,2,-1
 823.5 752 l 1,3,-1
 510.3 969 l 1,4,-1
 522 588 l 1,5,-1
 399.6 588 l 1,6,-1
 411.3 969 l 1,7,-1
 98.0996 752 l 1,8,-1
 29.7002 870 l 1,9,-1
 381.6 1053 l 1,10,-1
 29.7002 1237 l 1,11,-1
 98.0996 1356 l 1,12,-1
 411.3 1139 l 1,13,-1
 399.6 1520 l 1,14,-1
 522 1520 l 1,15,-1
 510.3 1139 l 1,16,-1
 823.5 1356 l 1,17,-1
 891.9 1237 l 1,0,-1
EndSplineSet
EndChar
StartChar: plus
Encoding: 43 43 43
Width: 1544
Flags: W
LayerCount: 2
Fore
SplineSet
844.2 1284 m 1,0,-1
 844.2 723 l 1,1,-1
 1349.1 723 l 1,2,-1
 1349.1 561 l 1,3,-1
 844.2 561 l 1,4,-1
 844.2 0 l 1,5,-1
 700.2 0 l 1,6,-1
 700.2 561 l 1,7,-1
 195.3 561 l 1,8,-1
 195.3 723 l 1,9,-1
 700.2 723 l 1,10,-1
 700.2 1284 l 1,11,-1
 844.2 1284 l 1,0,-1
EndSplineSet
EndChar
StartChar: comma
Encoding: 44 44 44
Width: 585
Flags: W
LayerCount: 2
Fore
SplineSet
36.335 -199 m 1,0,1
 133.006 -130 133.006 -130 188.963 -36.5 c 128,-1,2
 244.921 57 244.921 57 268.188 190 c 2,3,-1
 274.66 227 l 1,4,-1
 451.96 227 l 1,5,6
 414.845 56 414.845 56 328.165 -66.5 c 128,-1,7
 241.484 -189 241.484 -189 94.3398 -279 c 1,8,-1
 36.335 -199 l 1,0,1
EndSplineSet
EndChar
StartChar: hyphen
Encoding: 45 45 45
Width: 622
Flags: W
LayerCount: 2
Fore
SplineSet
94.6455 627 m 1,0,-1
 555.445 627 l 1,1,-1
 528.154 471 l 1,2,-1
 67.3545 471 l 1,3,-1
 94.6455 627 l 1,0,-1
EndSplineSet
EndChar
StartChar: period
Encoding: 46 46 46
Width: 585
Flags: W
LayerCount: 2
Fore
SplineSet
173.611 104 m 0,0,1
 183.409 160 183.409 160 224.432 199 c 128,-1,2
 265.455 238 265.455 238 316.755 238 c 0,3,4
 366.255 238 366.255 238 394.532 199 c 128,-1,5
 422.81 160 422.81 160 413.012 104 c 0,6,7
 403.391 49 403.391 49 361.468 10 c 128,-1,8
 319.545 -29 319.545 -29 270.045 -29 c 0,9,10
 218.745 -29 218.745 -29 191.28 9.5 c 128,-1,11
 163.816 48 163.816 48 173.611 104 c 0,0,1
EndSplineSet
EndChar
StartChar: slash
Encoding: 47 47 47
Width: 621
Flags: W
LayerCount: 2
Fore
SplineSet
624.214 1493 m 1,0,-1
 768.214 1493 l 1,1,-1
 -3.21387 -190 l 1,2,-1
 -147.214 -190 l 1,3,-1
 624.214 1493 l 1,0,-1
EndSplineSet
EndChar
StartChar: zero
Encoding: 48 48 48
Width: 1172
Flags: W
LayerCount: 2
Fore
SplineSet
467.727 70 m 0,0,1
 605.427 70 605.427 70 703.217 238 c 128,-1,2
 801.007 406 801.007 406 860.312 745 c 0,3,4
 919.791 1085 919.791 1085 880.783 1253 c 128,-1,5
 841.773 1421 841.773 1421 704.073 1421 c 0,6,7
 566.374 1421 566.374 1421 468.583 1253 c 128,-1,8
 370.793 1085 370.793 1085 311.312 745 c 0,9,10
 252.007 406 252.007 406 291.017 238 c 128,-1,11
 330.026 70 330.026 70 467.727 70 c 0,0,1
450.407 -29 m 0,12,13
 231.707 -29 231.707 -29 144.545 175 c 128,-1,14
 57.3838 379 57.3838 379 121.412 745 c 0,15,16
 185.616 1112 185.616 1112 344.154 1316 c 128,-1,17
 502.693 1520 502.693 1520 721.394 1520 c 0,18,19
 940.995 1520 940.995 1520 1027.7 1316 c 128,-1,20
 1114.42 1112 1114.42 1112 1050.21 745 c 0,21,22
 986.184 379 986.184 379 828.096 175 c 128,-1,23
 670.007 -29 670.007 -29 450.407 -29 c 0,12,13
EndSplineSet
EndChar
StartChar: one
Encoding: 49 49 49
Width: 1172
Flags: W
LayerCount: 2
Fore
SplineSet
128.944 0 m 1,0,-1
 147.487 106 l 1,1,-1
 381.487 106 l 1,2,-1
 598.767 1348 l 1,3,-1
 293.753 1153 l 1,4,-1
 316.67 1284 l 1,5,-1
 685.556 1520 l 1,6,-1
 809.756 1520 l 1,7,-1
 562.388 106 l 1,8,-1
 796.388 106 l 1,9,-1
 777.844 0 l 1,10,-1
 128.944 0 l 1,0,-1
EndSplineSet
EndChar
StartChar: two
Encoding: 50 50 50
Width: 1172
Flags: W
LayerCount: 2
Fore
SplineSet
301.753 1137 m 1,0,-1
 200.953 1137 l 1,1,-1
 247.487 1403 l 1,2,3
 353.76 1460 353.76 1460 456.657 1490 c 128,-1,4
 559.556 1520 559.556 1520 653.156 1520 c 0,5,6
 862.856 1520 862.856 1520 964.584 1407 c 128,-1,7
 1066.32 1294 1066.32 1294 1032.38 1100 c 0,8,9
 994.068 881 994.068 881 665.311 576 c 0,10,11
 639.688 553 639.688 553 626.788 541 c 2,12,-1
 221.534 164 l 1,13,-1
 782.234 164 l 1,14,-1
 814.424 348 l 1,15,-1
 919.728 348 l 1,16,-1
 858.844 0 l 1,17,-1
 -7.85645 0 l 1,18,-1
 11.2119 109 l 1,19,-1
 497.986 561 l 2,20,21
 659.229 711 659.229 711 738.783 836.5 c 128,-1,22
 818.339 962 818.339 962 842.48 1100 c 0,23,24
 868.896 1251 868.896 1251 813.117 1336 c 128,-1,25
 757.337 1421 757.337 1421 633.137 1421 c 0,26,27
 504.437 1421 504.437 1421 421.816 1350 c 128,-1,28
 339.195 1279 339.195 1279 301.753 1137 c 1,0,-1
EndSplineSet
EndChar
StartChar: three
Encoding: 51 51 51
Width: 1172
Flags: W
LayerCount: 2
Fore
SplineSet
298.849 1430 m 1,0,1
 411.846 1474 411.846 1474 512.619 1497 c 128,-1,2
 613.394 1520 613.394 1520 697.993 1520 c 0,3,4
 895.093 1520 895.093 1520 989.262 1425.5 c 128,-1,5
 1083.43 1331 1083.43 1331 1054.04 1163 c 0,6,7
 1030.42 1028 1030.42 1028 938.088 937.5 c 128,-1,8
 845.756 847 845.756 847 699.759 815 c 1,9,10
 860.81 789 860.81 789 933.354 681.5 c 128,-1,11
 1005.89 574 1005.89 574 975.979 403 c 0,12,13
 939.42 194 939.42 194 793.463 82.5 c 128,-1,14
 647.507 -29 647.507 -29 409.907 -29 c 0,15,16
 304.606 -29 304.606 -29 208.631 -4 c 128,-1,17
 112.655 21 112.655 21 22.5762 72 c 1,18,-1
 73.3096 362 l 1,19,-1
 174.109 362 l 1,20,21
 157.919 218 157.919 218 223.272 144 c 128,-1,22
 288.626 70 288.626 70 430.826 70 c 0,23,24
 568.526 70 568.526 70 663.658 158.5 c 128,-1,25
 758.792 247 758.792 247 785.732 401 c 0,26,27
 816.522 577 816.522 577 750.454 667.5 c 128,-1,28
 684.387 758 684.387 758 525.987 758 c 2,29,-1
 440.487 758 l 1,30,-1
 458.331 860 l 1,31,-1
 503.331 860 l 2,32,33
 660.831 860 660.831 860 752.264 932.5 c 128,-1,34
 843.697 1005 843.697 1005 869.239 1151 c 0,35,36
 892.156 1282 892.156 1282 839.516 1351.5 c 128,-1,37
 786.874 1421 786.874 1421 665.374 1421 c 0,38,39
 543.874 1421 543.874 1421 465.627 1357 c 128,-1,40
 387.381 1293 387.381 1293 353.639 1167 c 1,41,-1
 252.839 1167 l 1,42,-1
 298.849 1430 l 1,0,1
EndSplineSet
EndChar
StartChar: four
Encoding: 52 52 52
Width: 1172
Flags: W
LayerCount: 2
Fore
SplineSet
599.064 506 m 1,0,-1
 737.97 1300 l 1,1,-1
 140.064 506 l 1,2,-1
 599.064 506 l 1,0,-1
906.543 0 m 1,3,-1
 294.544 0 l 1,4,-1
 313.088 106 l 1,5,-1
 529.088 106 l 1,6,-1
 580.346 399 l 1,7,-1
 -6.4541 399 l 1,8,-1
 12.6152 508 l 1,9,-1
 778.256 1520 l 1,10,-1
 956.457 1520 l 1,11,-1
 779.064 506 l 1,12,-1
 1035.57 506 l 1,13,-1
 1016.85 399 l 1,14,-1
 760.346 399 l 1,15,-1
 709.088 106 l 1,16,-1
 925.092 106 l 1,17,-1
 906.543 0 l 1,3,-1
EndSplineSet
EndChar
StartChar: five
Encoding: 53 53 53
Width: 1172
Flags: W
LayerCount: 2
Fore
SplineSet
1060.13 1493 m 1,0,-1
 1031.44 1329 l 1,1,-1
 415.841 1329 l 1,2,-1
 340.966 901 l 1,3,4
 394.063 937 394.063 937 459.763 955 c 128,-1,5
 525.461 973 525.461 973 602.861 973 c 0,6,7
 820.661 973 820.661 973 923.22 839 c 128,-1,8
 1025.78 705 1025.78 705 985.194 473 c 0,9,10
 943.73 236 943.73 236 793.199 103.5 c 128,-1,11
 642.668 -29 642.668 -29 412.269 -29 c 0,12,13
 319.568 -29 319.568 -29 226.743 -4 c 128,-1,14
 133.916 21 133.916 21 41.1377 72 c 1,15,-1
 91.8711 362 l 1,16,-1
 193.571 362 l 1,17,18
 176.83 220 176.83 220 237.059 145 c 128,-1,19
 297.288 70 297.288 70 429.588 70 c 0,20,21
 571.788 70 571.788 70 666.482 174 c 128,-1,22
 761.176 278 761.176 278 795.289 473 c 0,23,24
 829.229 667 829.229 667 771.285 770.5 c 128,-1,25
 713.342 874 713.342 874 570.242 874 c 0,26,27
 489.242 874 489.242 874 421.994 842 c 128,-1,28
 354.746 810 354.746 810 295.324 743 c 1,29,-1
 217.924 743 l 1,30,-1
 349.132 1493 l 1,31,-1
 1060.13 1493 l 1,0,-1
EndSplineSet
EndChar
StartChar: six
Encoding: 54 54 54
Width: 1172
Flags: W
LayerCount: 2
Fore
SplineSet
484.826 70 m 0,0,1
 611.727 70 611.727 70 698.232 173.5 c 128,-1,2
 784.739 277 784.739 277 818.679 471 c 0,3,4
 852.617 665 852.617 665 802.324 768.5 c 128,-1,5
 752.03 872 752.03 872 625.13 872 c 0,6,7
 496.43 872 496.43 872 411.436 772 c 128,-1,8
 326.441 672 326.441 672 293.379 483 c 0,9,10
 258.564 284 258.564 284 308.245 177 c 128,-1,11
 357.927 70 357.927 70 484.826 70 c 0,0,1
322.983 822 m 1,12,13
 397.303 897 397.303 897 481.177 934 c 128,-1,14
 565.05 971 565.05 971 662.25 971 c 0,15,16
 862.949 971 862.949 971 956.061 837 c 128,-1,17
 1049.17 703 1049.17 703 1008.58 471 c 0,18,19
 968.868 244 968.868 244 819.437 107.5 c 128,-1,20
 670.007 -29 670.007 -29 460.307 -29 c 0,21,22
 232.606 -29 232.606 -29 143.184 159.5 c 128,-1,23
 53.7598 348 53.7598 348 114.99 698 c 0,24,25
 183.567 1090 183.567 1090 366.08 1305 c 128,-1,26
 548.593 1520 548.593 1520 812.293 1520 c 0,27,28
 883.394 1520 883.394 1520 959.067 1505 c 128,-1,29
 1034.75 1490 1034.75 1490 1111.39 1460 c 1,30,-1
 1068.36 1214 l 1,31,-1
 966.663 1214 l 1,32,33
 973.53 1315 973.53 1315 924.3 1368 c 128,-1,34
 875.073 1421 875.073 1421 776.073 1421 c 0,35,36
 601.474 1421 601.474 1421 490.257 1274 c 128,-1,37
 379.04 1127 379.04 1127 322.983 822 c 1,12,13
EndSplineSet
EndChar
StartChar: seven
Encoding: 55 55 55
Width: 1172
Flags: W
LayerCount: 2
Fore
SplineSet
1152.25 1391 m 1,0,-1
 383.307 0 l 1,1,-1
 249.206 0 l 1,2,-1
 983.007 1329 l 1,3,-1
 362.004 1329 l 1,4,-1
 329.814 1145 l 1,5,-1
 224.515 1145 l 1,6,-1
 285.394 1493 l 1,7,-1
 1170.09 1493 l 1,8,-1
 1152.25 1391 l 1,0,-1
EndSplineSet
EndChar
StartChar: eight
Encoding: 56 56 56
Width: 1172
Flags: W
LayerCount: 2
Fore
SplineSet
799.557 408 m 0,0,1
 827.547 568 827.547 568 771.48 656.5 c 128,-1,2
 715.412 745 715.412 745 585.812 745 c 0,3,4
 456.212 745 456.212 745 369.18 656.5 c 128,-1,5
 282.147 568 282.147 568 254.156 408 c 0,6,7
 225.992 247 225.992 247 282.059 158.5 c 128,-1,8
 338.126 70 338.126 70 467.727 70 c 0,9,10
 597.326 70 597.326 70 684.358 158.5 c 128,-1,11
 771.392 247 771.392 247 799.557 408 c 0,0,1
889.49 1133 m 0,12,13
 913.284 1269 913.284 1269 864.478 1345 c 128,-1,14
 815.674 1421 815.674 1421 704.073 1421 c 0,15,16
 593.374 1421 593.374 1421 517.528 1345 c 128,-1,17
 441.683 1269 441.683 1269 417.89 1133 c 0,18,19
 393.923 996 393.923 996 443.177 920 c 128,-1,20
 492.432 844 492.432 844 603.132 844 c 0,21,22
 714.731 844 714.731 844 790.127 920 c 128,-1,23
 865.522 996 865.522 996 889.49 1133 c 0,12,13
733.16 795 m 1,24,25
 882.136 772 882.136 772 949.707 669.5 c 128,-1,26
 1017.27 567 1017.27 567 989.46 408 c 0,27,28
 952.722 198 952.722 198 813.163 84.5 c 128,-1,29
 673.606 -29 673.606 -29 450.407 -29 c 0,30,31
 228.106 -29 228.106 -29 127.813 84.5 c 128,-1,32
 27.5195 198 27.5195 198 64.2568 408 c 0,33,34
 92.0723 567 92.0723 567 195.505 669.5 c 128,-1,35
 298.936 772 298.936 772 456.859 795 c 1,36,37
 325.683 822 325.683 822 268.54 909.5 c 128,-1,38
 211.398 997 211.398 997 235.189 1133 c 0,39,40
 266.68 1313 266.68 1313 396.386 1416.5 c 128,-1,41
 526.093 1520 526.093 1520 721.394 1520 c 0,42,43
 916.695 1520 916.695 1520 1010.19 1416.5 c 128,-1,44
 1103.68 1313 1103.68 1313 1072.19 1133 c 0,45,46
 1048.4 997 1048.4 997 960.642 909.5 c 128,-1,47
 872.883 822 872.883 822 733.16 795 c 1,24,25
EndSplineSet
EndChar
StartChar: nine
Encoding: 57 57 57
Width: 1172
Flags: W
LayerCount: 2
Fore
SplineSet
848.817 669 m 1,0,1
 775.396 594 775.396 594 690.623 557 c 128,-1,2
 605.851 520 605.851 520 507.75 520 c 0,3,4
 307.95 520 307.95 520 215.742 654 c 128,-1,5
 123.535 788 123.535 788 164.121 1020 c 0,6,7
 203.833 1247 203.833 1247 353.264 1383.5 c 128,-1,8
 502.693 1520 502.693 1520 712.394 1520 c 0,9,10
 940.095 1520 940.095 1520 1029.07 1331.5 c 128,-1,11
 1118.04 1143 1118.04 1143 1056.81 793 c 0,12,13
 988.236 401 988.236 401 805.72 186 c 128,-1,14
 623.207 -29 623.207 -29 360.407 -29 c 0,15,16
 289.307 -29 289.307 -29 213.631 -14 c 128,-1,17
 137.956 1 137.956 1 61.3037 31 c 1,18,-1
 104.688 279 l 1,19,-1
 205.489 279 l 1,20,21
 199.521 178 199.521 178 248.573 124 c 128,-1,22
 297.626 70 297.626 70 395.727 70 c 0,23,24
 570.326 70 570.326 70 681.456 216.5 c 128,-1,25
 792.584 363 792.584 363 848.817 669 c 1,0,1
687.874 1421 m 0,26,27
 560.073 1421 560.073 1421 474.018 1317.5 c 128,-1,28
 387.96 1214 387.96 1214 354.021 1020 c 0,29,30
 320.082 826 320.082 826 369.839 722 c 128,-1,31
 419.596 618 419.596 618 547.396 618 c 0,32,33
 675.195 618 675.195 618 760.727 718.5 c 128,-1,34
 846.258 819 846.258 819 879.321 1008 c 0,35,36
 914.139 1207 914.139 1207 864.454 1314 c 128,-1,37
 814.773 1421 814.773 1421 687.874 1421 c 0,26,27
EndSplineSet
EndChar
StartChar: colon
Encoding: 58 58 58
Width: 621
Flags: W
LayerCount: 2
Fore
SplineSet
134.669 104 m 0,0,1
 144.466 160 144.466 160 185.939 199 c 128,-1,2
 227.411 238 227.411 238 277.812 238 c 0,3,4
 328.211 238 328.211 238 356.039 199 c 128,-1,5
 383.866 160 383.866 160 374.068 104 c 0,6,7
 364.272 48 364.272 48 323.337 9.5 c 128,-1,8
 282.401 -29 282.401 -29 231.102 -29 c 0,9,10
 179.801 -29 179.801 -29 152.337 9.5 c 128,-1,11
 124.872 48 124.872 48 134.669 104 c 0,0,1
248.731 756 m 0,12,13
 258.527 812 258.527 812 299.913 850.5 c 128,-1,14
 341.299 889 341.299 889 391.699 889 c 0,15,16
 442.999 889 442.999 889 470.551 851 c 128,-1,17
 498.103 813 498.103 813 488.131 756 c 0,18,19
 478.159 699 478.159 699 437.311 661 c 128,-1,20
 396.465 623 396.465 623 345.164 623 c 0,21,22
 294.765 623 294.765 623 266.849 661.5 c 128,-1,23
 238.934 700 238.934 700 248.731 756 c 0,12,13
EndSplineSet
EndChar
StartChar: semicolon
Encoding: 59 59 59
Width: 621
Flags: W
LayerCount: 2
Fore
SplineSet
-21.5713 -199 m 1,0,1
 75.0996 -130 75.0996 -130 131.057 -36.5 c 128,-1,2
 187.015 57 187.015 57 210.281 190 c 2,3,-1
 216.754 227 l 1,4,-1
 394.055 227 l 1,5,6
 356.94 56 356.94 56 270.259 -66.5 c 128,-1,7
 183.579 -189 183.579 -189 36.4336 -279 c 1,8,-1
 -21.5713 -199 l 1,0,1
274.198 756 m 0,9,10
 283.996 812 283.996 812 325.381 850.5 c 128,-1,11
 366.768 889 366.768 889 417.167 889 c 0,12,13
 467.567 889 467.567 889 495.395 850 c 128,-1,14
 523.221 811 523.221 811 513.599 756 c 0,15,16
 503.802 700 503.802 700 462.417 661.5 c 128,-1,17
 421.031 623 421.031 623 370.631 623 c 0,18,19
 320.23 623 320.23 623 292.317 661.5 c 128,-1,20
 264.402 700 264.402 700 274.198 756 c 0,9,10
EndSplineSet
EndChar
StartChar: less
Encoding: 60 60 60
Width: 1544
Flags: W
LayerCount: 2
Fore
SplineSet
1349.1 1020 m 1,0,-1
 414.9 641 l 1,1,-1
 1349.1 264 l 1,2,-1
 1349.1 94 l 1,3,-1
 195.3 559 l 1,4,-1
 195.3 725 l 1,5,-1
 1349.1 1190 l 1,6,-1
 1349.1 1020 l 1,0,-1
EndSplineSet
EndChar
StartChar: equal
Encoding: 61 61 61
Width: 1544
Flags: W
LayerCount: 2
Fore
SplineSet
195.3 926 m 1,0,-1
 1349.1 926 l 1,1,-1
 1349.1 766 l 1,2,-1
 195.3 766 l 1,3,-1
 195.3 926 l 1,0,-1
195.3 518 m 1,4,-1
 1349.1 518 l 1,5,-1
 1349.1 358 l 1,6,-1
 195.3 358 l 1,7,-1
 195.3 518 l 1,4,-1
EndSplineSet
EndChar
StartChar: greater
Encoding: 62 62 62
Width: 1544
Flags: W
LayerCount: 2
Fore
SplineSet
195.3 1020 m 1,0,-1
 195.3 1190 l 1,1,-1
 1349.1 725 l 1,2,-1
 1349.1 559 l 1,3,-1
 195.3 94 l 1,4,-1
 195.3 264 l 1,5,-1
 1129.5 641 l 1,6,-1
 195.3 1020 l 1,0,-1
EndSplineSet
EndChar
StartChar: question
Encoding: 63 63 63
Width: 988
Flags: W
LayerCount: 2
Fore
SplineSet
211.774 104 m 0,0,1
 221.571 160 221.571 160 263.044 199 c 128,-1,2
 304.517 238 304.517 238 355.816 238 c 0,3,4
 405.316 238 405.316 238 433.594 199 c 128,-1,5
 461.871 160 461.871 160 452.074 104 c 0,6,7
 442.452 49 442.452 49 400.529 10 c 128,-1,8
 358.606 -29 358.606 -29 309.106 -29 c 0,9,10
 257.807 -29 257.807 -29 229.894 9.5 c 128,-1,11
 201.978 48 201.978 48 211.774 104 c 0,0,1
244.323 1427 m 1,12,13
 347.945 1474 347.945 1474 437.919 1497 c 128,-1,14
 527.894 1520 527.894 1520 603.493 1520 c 0,15,16
 803.293 1520 803.293 1520 900.225 1413 c 128,-1,17
 997.155 1306 997.155 1306 965.312 1124 c 0,18,19
 932.778 938 932.778 938 812.683 820 c 128,-1,20
 692.591 702 692.591 702 482.968 651 c 1,21,-1
 438.533 397 l 1,22,-1
 327.833 397 l 1,23,-1
 385.215 725 l 1,24,25
 552.037 768 552.037 768 650.256 869 c 128,-1,26
 748.475 970 748.475 970 775.766 1126 c 0,27,28
 799.732 1263 799.732 1263 747.854 1342 c 128,-1,29
 695.974 1421 695.974 1421 582.573 1421 c 0,30,31
 479.974 1421 479.974 1421 403.265 1355.5 c 128,-1,32
 326.556 1290 326.556 1290 286.139 1167 c 1,33,-1
 198.839 1167 l 1,34,-1
 244.323 1427 l 1,12,13
EndSplineSet
EndChar
StartChar: at
Encoding: 64 64 64
Width: 1843
Flags: W
LayerCount: 2
Fore
SplineSet
1112.99 248 m 1,0,1
 1045.55 166 1045.55 166 972.396 126 c 128,-1,2
 899.251 86 899.251 86 815.551 86 c 0,3,4
 658.051 86 658.051 86 581.819 211 c 128,-1,5
 505.588 336 505.588 336 540.751 537 c 0,6,7
 575.914 738 575.914 738 695.794 862.5 c 128,-1,8
 815.675 987 815.675 987 973.17 987 c 0,9,10
 1056.87 987 1056.87 987 1116.03 947 c 128,-1,11
 1175.17 907 1175.17 907 1213.94 825 c 1,12,-1
 1238.78 967 l 1,13,-1
 1379.18 967 l 1,14,-1
 1244.12 195 l 1,15,16
 1403.59 232 1403.59 232 1510.06 357 c 128,-1,17
 1616.53 482 1616.53 482 1649.42 670 c 0,18,19
 1668.83 781 1668.83 781 1655.56 880 c 128,-1,20
 1642.28 979 1642.28 979 1596.67 1063 c 0,21,22
 1524.54 1196 1524.54 1196 1399.62 1266.5 c 128,-1,23
 1274.71 1337 1274.71 1337 1113.61 1337 c 0,24,25
 1032.61 1337 1032.61 1337 950.076 1318 c 128,-1,26
 867.556 1299 867.556 1299 783.334 1260 c 0,27,28
 585.264 1167 585.264 1167 451.486 978.5 c 128,-1,29
 317.711 790 317.711 790 274.5 543 c 0,30,31
 245.284 376 245.284 376 265.706 235.5 c 128,-1,32
 286.126 95 286.126 95 353.606 -8 c 0,33,34
 430.89 -127 430.89 -127 554.504 -189.5 c 128,-1,35
 678.121 -252 678.121 -252 833.821 -252 c 0,36,37
 949.923 -252 949.923 -252 1057.37 -214 c 128,-1,38
 1164.82 -176 1164.82 -176 1264.51 -100 c 1,39,-1
 1299.97 -170 l 1,40,41
 1186.5 -263 1186.5 -263 1055.06 -309.5 c 128,-1,42
 923.625 -356 923.625 -356 776.927 -356 c 0,43,44
 612.227 -356 612.227 -356 474.011 -289.5 c 128,-1,45
 335.794 -223 335.794 -223 244.812 -100 c 0,46,47
 150.93 27 150.93 27 119.682 190.5 c 128,-1,48
 88.4355 354 88.4355 354 121.5 543 c 0,49,50
 153.689 727 153.689 727 242.505 890 c 128,-1,51
 331.32 1053 331.32 1053 468.738 1180 c 0,52,53
 605.081 1306 605.081 1306 772.227 1374 c 128,-1,54
 939.375 1442 939.375 1442 1113.97 1442 c 0,55,56
 1306.58 1442 1306.58 1442 1450.9 1359 c 128,-1,57
 1595.23 1276 1595.23 1276 1675.04 1120 c 0,58,59
 1726.3 1022 1726.3 1022 1741.28 907 c 128,-1,60
 1756.26 792 1756.26 792 1734.57 668 c 0,61,62
 1687.68 400 1687.68 400 1513.78 244.5 c 128,-1,63
 1339.88 89 1339.88 89 1085.55 86 c 1,64,-1
 1112.99 248 l 1,0,1
1154.46 485 m 2,65,-1
 1172.83 590 l 2,66,67
 1194.69 715 1194.69 715 1143.9 792.5 c 128,-1,68
 1093.1 870 1093.1 870 989.604 870 c 0,69,70
 880.706 870 880.706 870 804.648 782.5 c 128,-1,71
 728.592 695 728.592 695 700.95 537 c 0,72,73
 673.135 378 673.135 378 719.027 290.5 c 128,-1,74
 764.92 203 764.92 203 874.72 203 c 0,75,76
 977.319 203 977.319 203 1054.95 281.5 c 128,-1,77
 1132.59 360 1132.59 360 1154.46 485 c 2,65,-1
EndSplineSet
EndChar
StartChar: A
Encoding: 65 65 65
Width: 1331
Flags: W
AnchorPoint: "above" 790.796 1465 basechar 0
AnchorPoint: "below" 534.507 0 basechar 0
LayerCount: 2
Fore
SplineSet
333.05 541 m 1,0,-1
 826.249 541 l 1,1,-1
 703.857 1251 l 1,2,-1
 333.05 541 l 1,0,-1
-141.394 0 m 1,3,-1
 -122.851 106 l 1,4,-1
 -4.95117 106 l 1,5,-1
 716.493 1493 l 1,6,-1
 867.693 1493 l 1,7,-1
 1104.75 106 l 1,8,-1
 1237.05 106 l 1,9,-1
 1218.51 0 l 1,10,-1
 729.807 0 l 1,11,-1
 748.35 106 l 1,12,-1
 897.749 106 l 1,13,-1
 842.631 434 l 1,14,-1
 277.431 434 l 1,15,-1
 107.549 106 l 1,16,-1
 255.149 106 l 1,17,-1
 236.606 0 l 1,18,-1
 -141.394 0 l 1,3,-1
EndSplineSet
EndChar
StartChar: B
Encoding: 66 66 66
Width: 1354
Flags: W
AnchorPoint: "above" 794.396 1465 basechar 0
AnchorPoint: "below" 538.106 0 basechar 0
LayerCount: 2
Fore
SplineSet
343.349 106 m 1,0,-1
 612.449 106 l 2,1,2
 774.449 106 774.449 106 862.795 184 c 128,-1,3
 951.138 262 951.138 262 980.883 432 c 0,4,5
 1010.45 601 1010.45 601 949.752 678.5 c 128,-1,6
 889.062 756 889.062 756 726.162 756 c 2,7,-1
 457.062 756 l 1,8,-1
 343.349 106 l 1,0,-1
475.605 862 m 1,9,-1
 704.206 862 l 2,10,11
 851.806 862 851.806 862 930.78 925 c 128,-1,12
 1009.75 988 1009.75 988 1033.54 1124 c 0,13,14
 1057.51 1261 1057.51 1261 1000.49 1323.5 c 128,-1,15
 943.479 1386 943.479 1386 795.876 1386 c 2,16,-1
 567.276 1386 l 1,17,-1
 475.605 862 l 1,9,-1
-28.8945 0 m 1,18,-1
 -10.3506 106 l 1,19,-1
 160.649 106 l 1,20,-1
 384.576 1386 l 1,21,-1
 213.576 1386 l 1,22,-1
 232.294 1493 l 1,23,-1
 895.594 1493 l 2,24,25
 1098.99 1493 1098.99 1493 1185.86 1400.5 c 128,-1,26
 1272.73 1308 1272.73 1308 1240.54 1124 c 0,27,28
 1217.28 991 1217.28 991 1131.9 912 c 128,-1,29
 1046.53 833 1046.53 833 905.688 815 c 1,30,31
 1072.49 791 1072.49 791 1144.08 693.5 c 128,-1,32
 1215.67 596 1215.67 596 1186.98 432 c 0,33,34
 1148.14 210 1148.14 210 1003.77 105 c 128,-1,35
 859.406 0 859.406 0 592.106 0 c 2,36,-1
 -28.8945 0 l 1,18,-1
EndSplineSet
EndChar
StartChar: C
Encoding: 67 67 67
Width: 1410
Flags: W
AnchorPoint: "above" 871.971 1465 basechar 0
AnchorPoint: "below" 615.681 0 basechar 0
LayerCount: 2
Fore
SplineSet
1238.28 395 m 1,0,1
 1142.32 186 1142.32 186 983.564 78.5 c 128,-1,2
 824.807 -29 824.807 -29 610.606 -29 c 0,3,4
 479.207 -29 479.207 -29 375.455 21 c 128,-1,5
 271.702 71 271.702 71 201.37 168 c 0,6,7
 120.164 280 120.164 280 96.0439 422.5 c 128,-1,8
 71.9229 565 71.9229 565 103.412 745 c 0,9,10
 164.292 1093 164.292 1093 382.542 1306.5 c 128,-1,11
 600.793 1520 600.793 1520 896.894 1520 c 0,12,13
 1006.7 1520 1006.7 1520 1125.3 1488 c 128,-1,14
 1243.9 1456 1243.9 1456 1375.62 1391 c 1,15,-1
 1315.45 1047 l 1,16,-1
 1213.75 1047 l 1,17,18
 1213.33 1235 1213.33 1235 1128.55 1324 c 128,-1,19
 1043.78 1413 1043.78 1413 862.874 1413 c 0,20,21
 647.774 1413 647.774 1413 507.422 1243.5 c 128,-1,22
 367.068 1074 367.068 1074 309.512 745 c 0,23,24
 252.132 417 252.132 417 333.178 247.5 c 128,-1,25
 414.226 78 414.226 78 629.326 78 c 0,26,27
 779.626 78 779.626 78 890.733 157.5 c 128,-1,28
 1001.84 237 1001.84 237 1072.68 395 c 1,29,-1
 1238.28 395 l 1,0,1
EndSplineSet
EndChar
StartChar: D
Encoding: 68 68 68
Width: 1477
Flags: W
AnchorPoint: "below" 538.106 0 basechar 0
AnchorPoint: "above" 799.65 1465 basechar 0
LayerCount: 2
Fore
SplineSet
343.349 106 m 1,0,-1
 510.749 106 l 2,1,2
 772.649 106 772.649 106 941.643 272 c 128,-1,3
 1110.63 438 1110.63 438 1164.86 748 c 128,-1,4
 1219.09 1058 1219.09 1058 1108.29 1222 c 128,-1,5
 997.479 1386 997.479 1386 734.676 1386 c 2,6,-1
 567.276 1386 l 1,7,-1
 343.349 106 l 1,0,-1
-28.8945 0 m 1,8,-1
 -10.3506 106 l 1,9,-1
 160.649 106 l 1,10,-1
 384.576 1386 l 1,11,-1
 213.576 1386 l 1,12,-1
 232.294 1493 l 1,13,-1
 766.894 1493 l 2,14,15
 1114.29 1493 1114.29 1493 1273.78 1296 c 128,-1,16
 1433.27 1099 1433.27 1099 1371.86 748 c 0,17,18
 1310.28 396 1310.28 396 1081.24 198 c 128,-1,19
 852.206 0 852.206 0 505.706 0 c 2,20,-1
 -28.8945 0 l 1,8,-1
EndSplineSet
EndChar
StartChar: E
Encoding: 69 69 69
Width: 1345
Flags: W
AnchorPoint: "above" 798.896 1465 basechar 0
AnchorPoint: "below" 542.606 0 basechar 0
LayerCount: 2
Fore
SplineSet
-28.8945 0 m 1,0,-1
 -10.3506 106 l 1,1,-1
 160.649 106 l 1,2,-1
 384.576 1386 l 1,3,-1
 213.576 1386 l 1,4,-1
 232.294 1493 l 1,5,-1
 1314.09 1493 l 1,6,-1
 1256.01 1161 l 1,7,-1
 1145.31 1161 l 1,8,-1
 1181.88 1370 l 1,9,-1
 564.477 1370 l 1,10,-1
 477.006 870 l 1,11,-1
 917.109 870 l 1,12,-1
 949.824 1057 l 1,13,-1
 1060.52 1057 l 1,14,-1
 973.746 561 l 1,15,-1
 863.048 561 l 1,16,-1
 895.763 748 l 1,17,-1
 455.663 748 l 1,18,-1
 346.323 123 l 1,19,-1
 978.12 123 l 1,20,-1
 1014.69 332 l 1,21,-1
 1125.39 332 l 1,22,-1
 1067.31 0 l 1,23,-1
 -28.8945 0 l 1,0,-1
EndSplineSet
EndChar
StartChar: F
Encoding: 70 70 70
Width: 1278
Flags: W
AnchorPoint: "below" 233.007 0 basechar 0
AnchorPoint: "above" 807.896 1465 basechar 0
LayerCount: 2
Fore
SplineSet
-28.8945 0 m 1,0,-1
 -10.3506 106 l 1,1,-1
 160.649 106 l 1,2,-1
 384.576 1386 l 1,3,-1
 213.576 1386 l 1,4,-1
 232.294 1493 l 1,5,-1
 1332.09 1493 l 1,6,-1
 1274.01 1161 l 1,7,-1
 1163.31 1161 l 1,8,-1
 1199.88 1370 l 1,9,-1
 564.477 1370 l 1,10,-1
 477.006 870 l 1,11,-1
 936.009 870 l 1,12,-1
 968.724 1057 l 1,13,-1
 1079.42 1057 l 1,14,-1
 992.646 561 l 1,15,-1
 881.948 561 l 1,16,-1
 914.661 748 l 1,17,-1
 455.663 748 l 1,18,-1
 343.349 106 l 1,19,-1
 558.449 106 l 1,20,-1
 539.906 0 l 1,21,-1
 -28.8945 0 l 1,0,-1
EndSplineSet
EndChar
StartChar: G
Encoding: 71 71 71
Width: 1472
Flags: W
AnchorPoint: "below" 639.981 0 basechar 0
AnchorPoint: "above" 901.35 1465 basechar 0
LayerCount: 2
Fore
SplineSet
1232.65 1047 m 1,0,1
 1233.86 1234 1233.86 1234 1149.62 1323.5 c 128,-1,2
 1065.38 1413 1065.38 1413 887.174 1413 c 0,3,4
 654.975 1413 654.975 1413 511.633 1247 c 128,-1,5
 368.294 1081 368.294 1081 309.512 745 c 0,6,7
 251.957 416 251.957 416 340.292 247 c 128,-1,8
 428.626 78 428.626 78 657.226 78 c 0,9,10
 758.926 78 758.926 78 856.523 106 c 128,-1,11
 954.126 134 954.126 134 1047.62 190 c 1,12,-1
 1114.97 575 l 1,13,-1
 862.072 575 l 1,14,-1
 880.791 682 l 1,15,-1
 1316.39 682 l 1,16,-1
 1218.95 125 l 1,17,18
 1085.78 48 1085.78 48 940.896 9.5 c 128,-1,19
 796.007 -29 796.007 -29 638.507 -29 c 0,20,21
 334.307 -29 334.307 -29 188.156 182.5 c 128,-1,22
 42.0078 394 42.0078 394 103.412 745 c 0,23,24
 165.343 1099 165.343 1099 385.768 1309.5 c 128,-1,25
 606.193 1520 606.193 1520 916.695 1520 c 0,26,27
 1031.89 1520 1031.89 1520 1149.58 1490.5 c 128,-1,28
 1267.27 1461 1267.27 1461 1395.38 1401 c 1,29,-1
 1333.45 1047 l 1,30,-1
 1232.65 1047 l 1,0,1
EndSplineSet
EndChar
StartChar: H
Encoding: 72 72 72
Width: 1607
Flags: W
AnchorPoint: "above" 929.394 1465 basechar 0
AnchorPoint: "below" 673.106 0 basechar 0
LayerCount: 2
Fore
SplineSet
-28.8945 0 m 1,0,-1
 -10.3506 106 l 1,1,-1
 160.649 106 l 1,2,-1
 384.576 1386 l 1,3,-1
 213.576 1386 l 1,4,-1
 232.294 1493 l 1,5,-1
 756.993 1493 l 1,6,-1
 738.276 1386 l 1,7,-1
 567.276 1386 l 1,8,-1
 477.006 870 l 1,9,-1
 1173.61 870 l 1,10,-1
 1263.88 1386 l 1,11,-1
 1092.88 1386 l 1,12,-1
 1111.59 1493 l 1,13,-1
 1636.29 1493 l 1,14,-1
 1617.58 1386 l 1,15,-1
 1446.58 1386 l 1,16,-1
 1222.65 106 l 1,17,-1
 1393.65 106 l 1,18,-1
 1375.11 0 l 1,19,-1
 850.406 0 l 1,20,-1
 868.949 106 l 1,21,-1
 1039.95 106 l 1,22,-1
 1152.26 748 l 1,23,-1
 455.663 748 l 1,24,-1
 343.349 106 l 1,25,-1
 514.35 106 l 1,26,-1
 495.807 0 l 1,27,-1
 -28.8945 0 l 1,0,-1
EndSplineSet
EndChar
StartChar: I
Encoding: 73 73 73
Width: 728
Flags: W
AnchorPoint: "below" 234.807 0 basechar 0
AnchorPoint: "above" 496.354 1465 basechar 0
LayerCount: 2
Fore
SplineSet
343.349 106 m 1,0,-1
 514.35 106 l 1,1,-1
 495.807 0 l 1,2,-1
 -28.8945 0 l 1,3,-1
 -10.3506 106 l 1,4,-1
 160.649 106 l 1,5,-1
 384.576 1386 l 1,6,-1
 213.576 1386 l 1,7,-1
 232.294 1493 l 1,8,-1
 756.993 1493 l 1,9,-1
 738.276 1386 l 1,10,-1
 567.276 1386 l 1,11,-1
 343.349 106 l 1,0,-1
EndSplineSet
EndChar
StartChar: J
Encoding: 74 74 74
Width: 738
Flags: W
AnchorPoint: "above" 554.459 1465 basechar 0
AnchorPoint: "below" -0.256836 -430 basechar 0
LayerCount: 2
Fore
SplineSet
-310.761 -358 m 1,0,-1
 -269.649 -123 l 1,1,-1
 -167.049 -123 l 1,2,3
 -181.669 -222 -181.669 -222 -150.554 -270.5 c 128,-1,4
 -119.438 -319 -119.438 -319 -40.2383 -319 c 0,5,6
 66.8623 -319 66.8623 -319 122.282 -244 c 128,-1,7
 177.703 -169 177.703 -169 215.84 49 c 2,8,-1
 449.738 1386 l 1,9,-1
 240.938 1386 l 1,10,-1
 259.657 1493 l 1,11,-1
 822.157 1493 l 1,12,-1
 803.438 1386 l 1,13,-1
 632.438 1386 l 1,14,-1
 397.142 41 l 2,15,16
 353.931 -206 353.931 -206 245.587 -316 c 128,-1,17
 137.243 -426 137.243 -426 -60.7568 -426 c 0,18,19
 -124.657 -426 -124.657 -426 -187.833 -409 c 128,-1,20
 -251.009 -392 -251.009 -392 -310.761 -358 c 1,0,-1
EndSplineSet
EndChar
StartChar: K
Encoding: 75 75 75
Width: 1377
Flags: W
AnchorPoint: "below" 626.307 0 basechar 0
AnchorPoint: "above" 882.596 1465 basechar 0
LayerCount: 2
Fore
SplineSet
-28.8945 0 m 1,0,-1
 -10.3506 106 l 1,1,-1
 160.649 106 l 1,2,-1
 384.576 1386 l 1,3,-1
 213.576 1386 l 1,4,-1
 232.294 1493 l 1,5,-1
 756.993 1493 l 1,6,-1
 738.276 1386 l 1,7,-1
 567.276 1386 l 1,8,-1
 468.433 821 l 1,9,-1
 1145.98 1386 l 1,10,-1
 1000.18 1386 l 1,11,-1
 1018.89 1493 l 1,12,-1
 1465.29 1493 l 1,13,-1
 1446.58 1386 l 1,14,-1
 1295.38 1386 l 1,15,-1
 619.983 823 l 1,16,-1
 1139.85 106 l 1,17,-1
 1292.85 106 l 1,18,-1
 1274.31 0 l 1,19,-1
 962.01 0 l 1,20,-1
 448.84 709 l 1,21,-1
 343.349 106 l 1,22,-1
 514.35 106 l 1,23,-1
 495.807 0 l 1,24,-1
 -28.8945 0 l 1,0,-1
EndSplineSet
EndChar
StartChar: L
Encoding: 76 76 76
Width: 1224
Flags: W
AnchorPoint: "below" 553.406 0 basechar 0
AnchorPoint: "above" 491.096 1465 basechar 0
LayerCount: 2
Fore
SplineSet
-28.8945 0 m 1,0,-1
 -10.3506 106 l 1,1,-1
 160.649 106 l 1,2,-1
 384.576 1386 l 1,3,-1
 213.576 1386 l 1,4,-1
 232.294 1493 l 1,5,-1
 756.993 1493 l 1,6,-1
 738.276 1386 l 1,7,-1
 567.276 1386 l 1,8,-1
 346.323 123 l 1,9,-1
 960.12 123 l 1,10,-1
 1003.86 373 l 1,11,-1
 1114.56 373 l 1,12,-1
 1049.31 0 l 1,13,-1
 -28.8945 0 l 1,0,-1
EndSplineSet
EndChar
StartChar: M
Encoding: 77 77 77
Width: 1887
Flags: W
AnchorPoint: "above" 1068.89 1465 basechar 0
AnchorPoint: "below" 812.606 0 basechar 0
LayerCount: 2
Fore
SplineSet
-28.8945 0 m 1,0,-1
 -10.3506 106 l 1,1,-1
 160.649 106 l 1,2,-1
 384.576 1386 l 1,3,-1
 203.677 1386 l 1,4,-1
 222.394 1493 l 1,5,-1
 613.894 1493 l 1,6,-1
 899.531 430 l 1,7,-1
 1557.09 1493 l 1,8,-1
 1924.29 1493 l 1,9,-1
 1905.58 1386 l 1,10,-1
 1726.48 1386 l 1,11,-1
 1502.55 106 l 1,12,-1
 1674.45 106 l 1,13,-1
 1655.91 0 l 1,14,-1
 1130.31 0 l 1,15,-1
 1148.85 106 l 1,16,-1
 1319.85 106 l 1,17,-1
 1521.73 1260 l 1,18,-1
 878.818 219 l 1,19,-1
 751.919 219 l 1,20,-1
 473.232 1260 l 1,21,-1
 271.349 106 l 1,22,-1
 442.349 106 l 1,23,-1
 423.807 0 l 1,24,-1
 -28.8945 0 l 1,0,-1
EndSplineSet
EndChar
StartChar: N
Encoding: 78 78 78
Width: 1612
Flags: W
AnchorPoint: "below" 655.843 0 basechar 0
AnchorPoint: "above" 906.3 1464 basechar 0
LayerCount: 2
Fore
SplineSet
-38.0576 0 m 1,0,-1
 -19.5137 106 l 1,1,-1
 161.386 106 l 1,2,-1
 385.312 1386 l 1,3,-1
 204.412 1386 l 1,4,-1
 223.132 1493 l 1,5,-1
 567.832 1493 l 1,6,-1
 1167.25 315 l 1,7,-1
 1354.61 1386 l 1,8,-1
 1174.61 1386 l 1,9,-1
 1193.33 1493 l 1,10,-1
 1664.93 1493 l 1,11,-1
 1646.21 1386 l 1,12,-1
 1465.31 1386 l 1,13,-1
 1217.77 -29 l 1,14,-1
 1108.87 -29 l 1,15,-1
 468.546 1229 l 1,16,-1
 272.086 106 l 1,17,-1
 452.986 106 l 1,18,-1
 434.442 0 l 1,19,-1
 -38.0576 0 l 1,0,-1
EndSplineSet
EndChar
StartChar: O
Encoding: 79 79 79
Width: 1511
Flags: W
AnchorPoint: "above" 881.87 1465 basechar 0
AnchorPoint: "below" 625.581 0 basechar 0
LayerCount: 2
Fore
SplineSet
639.226 78 m 0,0,1
 859.726 78 859.726 78 1001.7 246.5 c 128,-1,2
 1143.68 415 1143.68 415 1201.41 745 c 0,3,4
 1259.32 1076 1259.32 1076 1176.3 1244.5 c 128,-1,5
 1093.28 1413 1093.28 1413 872.774 1413 c 0,6,7
 651.374 1413 651.374 1413 509.396 1244.5 c 128,-1,8
 367.419 1076 367.419 1076 309.512 745 c 0,9,10
 251.781 415 251.781 415 334.804 246.5 c 128,-1,11
 417.826 78 417.826 78 639.226 78 c 0,0,1
620.507 -29 m 0,12,13
 483.707 -29 483.707 -29 377.705 21 c 128,-1,14
 271.702 71 271.702 71 201.37 168 c 0,15,16
 120.164 280 120.164 280 95.9561 422 c 128,-1,17
 71.748 564 71.748 564 103.412 745 c 128,-1,18
 135.077 926 135.077 926 209.057 1068.5 c 128,-1,19
 283.035 1211 283.035 1211 403.43 1323 c 0,20,21
 508.773 1421 508.773 1421 630.833 1470.5 c 128,-1,22
 752.894 1520 752.894 1520 891.493 1520 c 0,23,24
 1184 1520 1184 1520 1326.73 1307 c 128,-1,25
 1469.47 1094 1469.47 1094 1408.41 745 c 0,26,27
 1377.1 566 1377.1 566 1302.49 422.5 c 128,-1,28
 1227.89 279 1227.89 279 1107.67 168 c 0,29,30
 1002.33 70 1002.33 70 880.267 20.5 c 128,-1,31
 758.207 -29 758.207 -29 620.507 -29 c 0,12,13
EndSplineSet
EndChar
StartChar: P
Encoding: 80 80 80
Width: 1240
Flags: W
AnchorPoint: "above" 794.396 1465 basechar 0
AnchorPoint: "below" 234.807 0 basechar 0
LayerCount: 2
Fore
SplineSet
457.762 760 m 1,0,-1
 695.361 760 l 2,1,2
 829.462 760 829.462 760 913.743 840.5 c 128,-1,3
 998.028 921 998.028 921 1024.61 1073 c 0,4,5
 1051.39 1226 1051.39 1226 995.184 1306 c 128,-1,6
 938.979 1386 938.979 1386 804.876 1386 c 2,7,-1
 567.276 1386 l 1,8,-1
 457.762 760 l 1,0,-1
-28.8945 0 m 1,9,-1
 -10.3506 106 l 1,10,-1
 160.649 106 l 1,11,-1
 384.576 1386 l 1,12,-1
 213.576 1386 l 1,13,-1
 232.294 1493 l 1,14,-1
 867.693 1493 l 2,15,16
 1069.29 1493 1069.29 1493 1167.34 1379.5 c 128,-1,17
 1265.38 1266 1265.38 1266 1231.61 1073 c 0,18,19
 1198.03 881 1198.03 881 1060.18 767 c 128,-1,20
 922.347 653 922.347 653 720.742 653 c 2,21,-1
 439.043 653 l 1,22,-1
 343.349 106 l 1,23,-1
 551.249 106 l 1,24,-1
 532.706 0 l 1,25,-1
 -28.8945 0 l 1,9,-1
EndSplineSet
EndChar
StartChar: Q
Encoding: 81 81 81
Width: 1511
Flags: W
AnchorPoint: "below" 594.004 -330 basechar 0
AnchorPoint: "above" 908.028 1465 basechar 0
LayerCount: 2
Fore
SplineSet
668.259 -29 m 1,0,1
 359.559 -29 359.559 -29 213.687 181.5 c 0,2,3
 111.204 329.39 111.204 329.39 111.204 547.62 c 0,4,5
 111.204 640.01 111.204 640.01 129.564 745 c 0,6,7
 161.235 926 161.235 926 235.215 1068.5 c 128,-1,8
 309.186 1211 309.186 1211 429.579 1323 c 0,9,10
 534.924 1421 534.924 1421 656.982 1470.5 c 128,-1,11
 779.049 1520 779.049 1520 917.649 1520 c 0,12,13
 1210.15 1520 1210.15 1520 1352.88 1307 c 0,14,15
 1452.86 1157.81 1452.86 1157.81 1452.86 941.91 c 0,16,17
 1452.86 849.56 1452.86 849.56 1434.56 745 c 0,18,19
 1382.79 449 1382.79 449 1212.53 247.5 c 0,20,21
 1042.28 46 1042.28 46 794.538 -12 c 1,22,23
 831.411 -79 831.411 -79 895.562 -111 c 0,24,25
 959.715 -143 959.715 -143 1057.81 -143 c 2,26,-1
 1282.81 -143 l 1,27,-1
 1250.45 -328 l 1,28,-1
 1145.15 -328 l 2,29,30
 906.39 -328 906.39 -328 807.237 -245.5 c 0,31,32
 709.803 -164.44 709.803 -164.44 668.259 -29 c 1,0,1
665.379 78 m 0,33,34
 885.879 78 885.879 78 1027.85 246.5 c 0,35,36
 1169.84 415 1169.84 415 1227.56 745 c 0,37,38
 1251.36 881 1251.36 881 1251.36 989.57 c 0,39,40
 1251.36 1145.23 1251.36 1145.23 1202.45 1244.5 c 0,41,42
 1119.43 1413 1119.43 1413 898.929 1413 c 0,43,44
 677.529 1413 677.529 1413 535.554 1244.5 c 128,-1,45
 393.57 1076 393.57 1076 335.664 745 c 0,46,47
 311.985 609.65 311.985 609.65 311.994 501.46 c 0,48,49
 311.994 345.89 311.994 345.89 360.954 246.5 c 0,50,51
 443.979 78 443.979 78 665.379 78 c 0,33,34
EndSplineSet
EndChar
StartChar: R
Encoding: 82 82 82
Width: 1387
Flags: W
AnchorPoint: "below" 527.307 0 basechar 0
AnchorPoint: "above" 788.85 1465 basechar 0
LayerCount: 2
Fore
SplineSet
881.938 741 m 1,0,1
 941.616 722 941.616 722 979.101 676.5 c 128,-1,2
 1016.59 631 1016.59 631 1038.25 549 c 2,3,-1
 1156.05 106 l 1,4,-1
 1319.85 106 l 1,5,-1
 1301.31 0 l 1,6,-1
 984.51 0 l 1,7,-1
 857.903 475 l 1,8,9
 821.745 613 821.745 613 778.431 653.5 c 128,-1,10
 735.115 694 735.115 694 646.915 694 c 2,11,-1
 446.216 694 l 1,12,-1
 343.349 106 l 1,13,-1
 533.249 106 l 1,14,-1
 514.706 0 l 1,15,-1
 -28.8945 0 l 1,16,-1
 -10.3506 106 l 1,17,-1
 160.649 106 l 1,18,-1
 384.576 1386 l 1,19,-1
 213.576 1386 l 1,20,-1
 232.294 1493 l 1,21,-1
 913.59 1493 l 2,22,23
 1109.79 1493 1109.79 1493 1198.25 1389 c 128,-1,24
 1286.7 1285 1286.7 1285 1253.29 1094 c 0,25,26
 1226.35 940 1226.35 940 1133.02 851.5 c 128,-1,27
 1039.69 763 1039.69 763 881.938 741 c 1,0,1
464.935 801 m 1,28,-1
 730.435 801 l 2,29,30
 866.335 801 866.335 801 943.641 872.5 c 128,-1,31
 1020.95 944 1020.95 944 1047.2 1094 c 0,32,33
 1073.43 1244 1073.43 1244 1021.05 1315 c 128,-1,34
 968.679 1386 968.679 1386 832.776 1386 c 2,35,-1
 567.276 1386 l 1,36,-1
 464.935 801 l 1,28,-1
EndSplineSet
EndChar
StartChar: S
Encoding: 83 83 83
Width: 1262
Flags: W
AnchorPoint: "below" 501.381 0 basechar 0
AnchorPoint: "above" 762.75 1465 basechar 0
LayerCount: 2
Fore
SplineSet
53.1768 72 m 1,0,-1
 112.656 412 l 1,1,-1
 215.981 411 l 1,2,3
 190.742 241 190.742 241 260.634 159.5 c 128,-1,4
 330.526 78 330.526 78 502.426 78 c 0,5,6
 662.626 78 662.626 78 759.109 148.5 c 128,-1,7
 855.593 219 855.593 219 879.21 354 c 0,8,9
 898.104 462 898.104 462 857.4 520 c 128,-1,10
 816.697 578 816.697 578 662.519 633 c 2,11,-1
 495.541 692 l 2,12,13
 314.312 757 314.312 757 252.531 854 c 128,-1,14
 190.751 951 190.751 951 220.316 1120 c 0,15,16
 253.556 1310 253.556 1310 393.424 1415 c 128,-1,17
 533.293 1520 533.293 1520 752.894 1520 c 0,18,19
 846.493 1520 846.493 1520 954.153 1497.5 c 128,-1,20
 1061.82 1475 1061.82 1475 1180.3 1432 c 1,21,-1
 1124.67 1114 l 1,22,-1
 1022.97 1114 l 1,23,24
 1035.31 1272 1035.31 1272 967.986 1342.5 c 128,-1,25
 900.675 1413 900.675 1413 737.774 1413 c 0,26,27
 595.574 1413 595.574 1413 510.04 1348.5 c 128,-1,28
 424.507 1284 424.507 1284 402.988 1161 c 0,29,30
 384.271 1054 384.271 1054 429.398 993 c 128,-1,31
 474.526 932 474.526 932 644.93 872 c 2,32,-1
 801.809 817 l 2,33,34
 973.836 756 973.836 756 1035.15 661.5 c 128,-1,35
 1096.47 567 1096.47 567 1068.66 408 c 0,36,37
 1030.7 191 1030.7 191 886.351 81 c 128,-1,38
 742.007 -29 742.007 -29 494.507 -29 c 0,39,40
 383.807 -29 383.807 -29 273.431 -4 c 128,-1,41
 163.055 21 163.055 21 53.1768 72 c 1,0,-1
EndSplineSet
EndChar
StartChar: T
Encoding: 84 84 84
Width: 1229
Flags: W
AnchorPoint: "below" 478.706 0 basechar 0
AnchorPoint: "above" 740.25 1465 basechar 0
LayerCount: 2
Fore
SplineSet
221.307 0 m 1,0,-1
 239.849 106 l 1,1,-1
 411.749 106 l 1,2,-1
 633.576 1374 l 1,3,-1
 238.477 1374 l 1,4,-1
 197.715 1141 l 1,5,-1
 87.0146 1141 l 1,6,-1
 148.594 1493 l 1,7,-1
 1341.99 1493 l 1,8,-1
 1280.41 1141 l 1,9,-1
 1169.71 1141 l 1,10,-1
 1210.47 1374 l 1,11,-1
 815.377 1374 l 1,12,-1
 593.549 106 l 1,13,-1
 765.449 106 l 1,14,-1
 746.906 0 l 1,15,-1
 221.307 0 l 1,0,-1
EndSplineSet
EndChar
StartChar: U
Encoding: 85 85 85
Width: 1553
Flags: W
AnchorPoint: "below" 684.643 0 basechar 0
AnchorPoint: "above" 943.65 1465 basechar 0
LayerCount: 2
Fore
SplineSet
372.713 1386 m 1,0,-1
 200.812 1386 l 1,1,-1
 219.531 1493 l 1,2,-1
 745.132 1493 l 1,3,-1
 726.412 1386 l 1,4,-1
 554.513 1386 l 1,5,-1
 419.457 614 l 2,6,7
 369.424 328 369.424 328 433.806 215 c 128,-1,8
 498.186 102 498.186 102 704.286 102 c 0,9,10
 910.386 102 910.386 102 1014.31 215 c 128,-1,11
 1118.22 328 1118.22 328 1168.25 614 c 2,12,-1
 1303.31 1386 l 1,13,-1
 1131.41 1386 l 1,14,-1
 1150.13 1493 l 1,15,-1
 1603.73 1493 l 1,16,-1
 1585.01 1386 l 1,17,-1
 1414.01 1386 l 1,18,-1
 1275.46 594 l 2,19,20
 1215.8 253 1215.8 253 1073.23 112 c 128,-1,21
 930.672 -29 930.672 -29 648.068 -29 c 0,22,23
 365.469 -29 365.469 -29 270.161 113 c 128,-1,24
 174.852 255 174.852 255 234.158 594 c 2,25,-1
 372.713 1386 l 1,0,-1
EndSplineSet
EndChar
StartChar: V
Encoding: 86 86 86
Width: 1331
Flags: W
AnchorPoint: "below" 534.507 0 basechar 0
AnchorPoint: "above" 790.796 1465 basechar 0
LayerCount: 2
Fore
SplineSet
434.076 1386 m 1,0,-1
 630.491 240 l 1,1,-1
 1226.98 1386 l 1,2,-1
 1075.78 1386 l 1,3,-1
 1094.49 1493 l 1,4,-1
 1488.69 1493 l 1,5,-1
 1469.98 1386 l 1,6,-1
 1339.48 1386 l 1,7,-1
 617.307 0 l 1,8,-1
 462.507 0 l 1,9,-1
 227.977 1386 l 1,10,-1
 93.876 1386 l 1,11,-1
 112.594 1493 l 1,12,-1
 602.193 1493 l 1,13,-1
 583.477 1386 l 1,14,-1
 434.076 1386 l 1,0,-1
EndSplineSet
EndChar
StartChar: W
Encoding: 87 87 87
Width: 1894
Flags: W
AnchorPoint: "below" 818.006 0 basechar 0
AnchorPoint: "above" 1059.3 1465 basechar 0
LayerCount: 2
Fore
SplineSet
1274.31 0 m 1,0,-1
 1126.71 0 l 1,1,-1
 1031.28 1214 l 1,2,-1
 511.106 0 l 1,3,-1
 363.507 0 l 1,4,-1
 254.076 1386 l 1,5,-1
 120.876 1386 l 1,6,-1
 139.594 1493 l 1,7,-1
 630.094 1493 l 1,8,-1
 611.376 1386 l 1,9,-1
 443.977 1386 l 1,10,-1
 530.914 283 l 1,11,-1
 1048.59 1493 l 1,12,-1
 1194.39 1493 l 1,13,-1
 1291.84 270 l 1,14,-1
 1768.78 1386 l 1,15,-1
 1613.98 1386 l 1,16,-1
 1632.69 1493 l 1,17,-1
 2019.69 1493 l 1,18,-1
 2000.98 1386 l 1,19,-1
 1868.68 1386 l 1,20,-1
 1274.31 0 l 1,0,-1
EndSplineSet
EndChar
StartChar: X
Encoding: 88 88 88
Width: 1312
Flags: W
AnchorPoint: "below" 525.507 0 basechar 0
AnchorPoint: "above" 783.9 1465 basechar 0
LayerCount: 2
Fore
SplineSet
591.394 639 m 1,0,-1
 169.649 106 l 1,1,-1
 343.349 106 l 1,2,-1
 324.807 0 l 1,3,-1
 -119.794 0 l 1,4,-1
 -101.251 106 l 1,5,-1
 53.5488 106 l 1,6,-1
 550.238 733 l 1,7,-1
 272.076 1386 l 1,8,-1
 128.076 1386 l 1,9,-1
 146.794 1493 l 1,10,-1
 679.594 1493 l 1,11,-1
 660.876 1386 l 1,12,-1
 502.477 1386 l 1,13,-1
 706.329 905 l 1,14,-1
 1086.58 1386 l 1,15,-1
 913.779 1386 l 1,16,-1
 932.49 1493 l 1,17,-1
 1372.59 1493 l 1,18,-1
 1353.88 1386 l 1,19,-1
 1202.68 1386 l 1,20,-1
 746.583 811 l 1,21,-1
 1047.15 106 l 1,22,-1
 1191.15 106 l 1,23,-1
 1172.61 0 l 1,24,-1
 639.807 0 l 1,25,-1
 658.35 106 l 1,26,-1
 818.549 106 l 1,27,-1
 591.394 639 l 1,0,-1
EndSplineSet
EndChar
StartChar: Y
Encoding: 89 89 89
Width: 1216
Flags: W
AnchorPoint: "below" 475.106 0 basechar 0
AnchorPoint: "above" 714.6 1465 basechar 0
LayerCount: 2
Fore
SplineSet
217.706 0 m 1,0,-1
 236.249 106 l 1,1,-1
 408.149 106 l 1,2,-1
 502.094 643 l 1,3,-1
 217.177 1386 l 1,4,-1
 91.1768 1386 l 1,5,-1
 109.894 1493 l 1,6,-1
 609.394 1493 l 1,7,-1
 590.676 1386 l 1,8,-1
 434.076 1386 l 1,9,-1
 664.11 782 l 1,10,-1
 1105.48 1386 l 1,11,-1
 954.279 1386 l 1,12,-1
 972.99 1493 l 1,13,-1
 1363.59 1493 l 1,14,-1
 1344.88 1386 l 1,15,-1
 1217.98 1386 l 1,16,-1
 687.218 662 l 1,17,-1
 589.949 106 l 1,18,-1
 761.85 106 l 1,19,-1
 743.307 0 l 1,20,-1
 217.706 0 l 1,0,-1
EndSplineSet
EndChar
StartChar: Z
Encoding: 90 90 90
Width: 1280
Flags: W
AnchorPoint: "below" 511.106 0 basechar 0
AnchorPoint: "above" 772.2 1465 basechar 0
LayerCount: 2
Fore
SplineSet
-47.7002 0 m 1,0,-1
 -35.0996 72 l 1,1,-1
 1028.7 1370 l 1,2,-1
 333.9 1370 l 1,3,-1
 295.2 1147 l 1,4,-1
 184.5 1147 l 1,5,-1
 244.8 1493 l 1,6,-1
 1306.8 1493 l 1,7,-1
 1294.2 1421 l 1,8,-1
 230.4 123 l 1,9,-1
 990 123 l 1,10,-1
 1026 332 l 1,11,-1
 1135.8 332 l 1,12,-1
 1078.2 0 l 1,13,-1
 -47.7002 0 l 1,0,-1
EndSplineSet
EndChar
StartChar: bracketleft
Encoding: 91 91 91
Width: 719
Flags: W
LayerCount: 2
Fore
SplineSet
318.122 1556 m 1,0,-1
 736.622 1556 l 1,1,-1
 718.078 1450 l 1,2,-1
 471.479 1450 l 1,3,-1
 189.121 -164 l 1,4,-1
 435.722 -164 l 1,5,-1
 417.178 -270 l 1,6,-1
 -1.32227 -270 l 1,7,-1
 318.122 1556 l 1,0,-1
EndSplineSet
EndChar
StartChar: backslash
Encoding: 92 92 92
Width: 621
Flags: W
LayerCount: 2
Fore
SplineSet
291.214 1493 m 1,0,-1
 473.786 -190 l 1,1,-1
 329.786 -190 l 1,2,-1
 147.214 1493 l 1,3,-1
 291.214 1493 l 1,0,-1
EndSplineSet
EndChar
StartChar: bracketright
Encoding: 93 93 93
Width: 719
Flags: W
LayerCount: 2
Fore
SplineSet
720.422 1556 m 1,0,-1
 400.978 -270 l 1,1,-1
 -17.5215 -270 l 1,2,-1
 1.02148 -164 l 1,3,-1
 247.621 -164 l 1,4,-1
 529.979 1450 l 1,5,-1
 283.379 1450 l 1,6,-1
 301.922 1556 l 1,7,-1
 720.422 1556 l 1,0,-1
EndSplineSet
EndChar
StartChar: asciicircum
Encoding: 94 94 94
Width: 1544
Flags: W
LayerCount: 2
Fore
SplineSet
860.4 1493 m 1,0,-1
 1349.1 936 l 1,1,-1
 1211.4 936 l 1,2,-1
 772.2 1317 l 1,3,-1
 333.9 936 l 1,4,-1
 195.3 936 l 1,5,-1
 684 1493 l 1,6,-1
 860.4 1493 l 1,0,-1
EndSplineSet
EndChar
StartChar: underscore
Encoding: 95 95 95
Width: 921
Flags: W
LayerCount: 2
Fore
SplineSet
921.6 -403 m 1,0,-1
 921.6 -483 l 1,1,-1
 0 -483 l 1,2,-1
 0 -403 l 1,3,-1
 921.6 -403 l 1,0,-1
EndSplineSet
EndChar
StartChar: grave
Encoding: 96 96 96
Width: 921
Flags: W
LayerCount: 2
Fore
SplineSet
507.6 1636 m 1,0,-1
 675 1260 l 1,1,-1
 569.7 1260 l 1,2,-1
 330.3 1636 l 1,3,-1
 507.6 1636 l 1,0,-1
EndSplineSet
EndChar
StartChar: a
Encoding: 97 97 97
Width: 1098
Flags: W
AnchorPoint: "below" 419.118 0 basechar 0
AnchorPoint: "above" 609.3 1092 basechar 0
LayerCount: 2
Fore
SplineSet
669.557 166 m 1,0,1
 549.468 -29 549.468 -29 356.803 -29 c 0,2,3
 198.05 -29 198.05 -29 118.079 90.3467 c 0,4,5
 61.7539 174.409 61.7539 174.409 61.7539 294.442 c 0,6,7
 61.7539 344.832 61.7539 344.832 71.6797 401.567 c 0,8,9
 133.584 755.414 133.584 755.414 354.438 937 c 0,10,11
 542.984 1092.02 542.984 1092.02 770.42 1092.02 c 0,12,13
 923.076 1092.02 923.076 1092.02 975.879 1063 c 9,14,-1
 808.461 106 l 1,15,-1
 950.661 106 l 1,16,-1
 932.121 0 l 1,17,-1
 640.521 0 l 1,18,-1
 669.557 166 l 1,0,1
237.053 299.999 m 0,19,20
 237.053 86 237.053 86 423.088 86 c 0,21,22
 536.488 86 536.488 86 613.609 186.5 c 128,-1,23
 690.727 287.008 690.727 287.008 724.313 479 c 2,24,-1
 808.636 961 l 1,25,-1
 808.64 961.451 l 2,26,27
 808.64 990 808.64 990 736.309 990 c 0,28,29
 563.509 990 563.509 990 429.269 840 c 0,30,31
 296.126 689.033 296.126 689.033 248.166 414.925 c 0,32,33
 237.053 351.409 237.053 351.409 237.053 299.999 c 0,19,20
EndSplineSet
EndChar
StartChar: b
Encoding: 98 98 98
Width: 1179
Flags: W
AnchorPoint: "below" 524.28 10 basechar 0
AnchorPoint: "above" 430.343 1536 basechar 0
LayerCount: 2
Fore
SplineSet
332.496 1450 m 1,0,-1
 173.196 1450 l 1,1,-1
 191.745 1556 l 1,2,-1
 516.645 1556 l 1,3,-1
 401.355 897 l 1,4,5
 467.451 997 467.451 997 550.908 1044.5 c 128,-1,6
 634.365 1092 634.365 1092 745.064 1092 c 0,7,8
 921.465 1092 921.465 1092 1005.95 937 c 0,9,10
 1061.62 834.87 1061.62 834.87 1061.62 691.5 c 0,11,12
 1061.62 617.28 1061.62 617.28 1046.7 532 c 0,13,14
 1002.97 282 1002.97 282 864.162 126.5 c 128,-1,15
 725.355 -29 725.355 -29 548.955 -29 c 0,16,17
 438.255 -29 438.255 -29 371.421 18.5 c 128,-1,18
 304.578 66 304.578 66 273.474 166 c 1,19,-1
 244.431 0 l 1,20,-1
 78.8311 0 l 1,21,-1
 332.496 1450 l 1,0,-1
328.23 479 m 2,22,23
 314.496 400.5 314.496 400.5 314.496 337.3 c 0,24,25
 314.496 245.91 314.496 245.91 343.206 186.5 c 0,26,27
 391.779 86 391.779 86 517.779 86 c 0,28,29
 644.679 86 644.679 86 729.693 199 c 128,-1,30
 814.716 312 814.716 312 853.2 532 c 0,31,32
 870.93 633.34 870.93 633.34 870.93 711.75 c 0,33,34
 870.93 804.36 870.93 804.36 846.207 865 c 0,35,36
 800.55 977 800.55 977 673.65 977 c 0,37,38
 547.65 977 547.65 977 463.833 876 c 128,-1,39
 380.016 775 380.016 775 346.599 584 c 2,40,-1
 328.23 479 l 2,22,23
EndSplineSet
EndChar
StartChar: c
Encoding: 99 99 99
Width: 1032
Flags: W
AnchorPoint: "below" 463.168 10 basechar 0
AnchorPoint: "above" 651.6 1092 basechar 0
LayerCount: 2
Fore
SplineSet
910.521 319 m 1,0,1
 845.685 149 845.685 149 730.215 60 c 128,-1,2
 614.745 -29 614.745 -29 456.345 -29 c 0,3,4
 247.545 -29 247.545 -29 147.501 124.5 c 0,5,6
 78.2188 230.79 78.2188 230.79 78.2188 385.26 c 0,7,8
 78.2188 453.88 78.2188 453.88 91.8896 532 c 0,9,10
 136.494 787 136.494 787 290.079 939.5 c 128,-1,11
 443.655 1092 443.655 1092 652.455 1092 c 0,12,13
 743.355 1092 743.355 1092 829.242 1068.5 c 128,-1,14
 915.129 1045 915.129 1045 997.632 997 c 1,15,-1
 950.049 725 l 1,16,-1
 853.749 725 l 1,17,18
 854.289 738.55 854.289 738.55 854.289 751.38 c 0,19,20
 854.289 871.19 854.289 871.19 807.093 929 c 0,21,22
 754.839 993 754.839 993 636.939 993 c 0,23,24
 502.839 993 502.839 993 414.234 877.5 c 128,-1,25
 325.62 762 325.62 762 285.39 532 c 0,26,27
 266.967 426.7 266.967 426.7 266.967 345.3 c 0,28,29
 266.967 248.89 266.967 248.89 292.806 186 c 0,30,31
 340.461 70 340.461 70 475.461 70 c 0,32,33
 582.561 70 582.561 70 657.306 132 c 128,-1,34
 732.06 194 732.06 194 777.321 319 c 1,35,-1
 910.521 319 l 1,0,1
EndSplineSet
EndChar
StartChar: d
Encoding: 100 100 100
Width: 1179
Flags: W
AnchorPoint: "below" 378.532 0 basechar 0
AnchorPoint: "above" 1019.84 1536 basechar 0
LayerCount: 2
Fore
SplineSet
1106.14 1556 m 1,0,-1
 833.931 0 l 1,1,-1
 668.331 0 l 1,2,-1
 697.374 166 l 1,3,4
 631.278 66 631.278 66 547.821 18.5 c 0,5,6
 464.355 -29 464.355 -29 353.655 -29 c 0,7,8
 177.255 -29 177.255 -29 92.4121 126.5 c 0,9,10
 36.4229 229.11 36.4229 229.11 36.4229 372.87 c 0,11,12
 36.4229 446.97 36.4229 446.97 51.2998 532 c 0,13,14
 95.04 782 95.04 782 233.748 937 c 0,15,16
 372.465 1092 372.465 1092 549.765 1092 c 0,17,18
 660.465 1092 660.465 1092 727.308 1044.5 c 128,-1,19
 794.151 997 794.151 997 825.255 897 c 1,20,-1
 921.996 1450 l 1,21,-1
 765.396 1450 l 1,22,-1
 783.945 1556 l 1,23,-1
 1106.14 1556 l 1,0,-1
752.13 479 m 2,24,-1
 770.499 584 l 2,25,26
 784.134 661.93 784.134 661.93 784.134 724.88 c 0,27,28
 784.134 816.21 784.134 816.21 755.433 876 c 0,29,30
 706.95 977 706.95 977 580.95 977 c 0,31,32
 453.15 977 453.15 977 368.307 865 c 0,33,34
 283.464 753 283.464 753 244.8 532 c 0,35,36
 227.16 431.16 227.16 431.16 227.16 352.8 c 0,37,38
 227.16 260.21 227.16 260.21 251.793 199 c 0,39,40
 297.279 86 297.279 86 425.079 86 c 0,41,42
 551.079 86 551.079 86 634.806 186.5 c 0,43,44
 718.542 287 718.542 287 752.13 479 c 2,24,-1
EndSplineSet
EndChar
StartChar: e
Encoding: 101 101 101
Width: 1090
Flags: W
AnchorPoint: "below" 452.418 0 basechar 0
AnchorPoint: "above" 642.6 1092 basechar 0
LayerCount: 2
Fore
SplineSet
270 408 m 1,0,1
 266.4 370 266.4 370 266.4 336 c 0,2,3
 266.4 242 266.4 242 297 180 c 0,4,5
 350.1 70 350.1 70 492.3 70 c 0,6,7
 596.7 70 596.7 70 648 105 c 0,8,9
 739.8 168 739.8 168 761.4 249 c 1,10,-1
 882.9 249 l 1,11,12
 846.9 122 846.9 122 712.8 33 c 0,13,14
 619.2 -29 619.2 -29 433.8 -29 c 128,-1,15
 248.4 -29 248.4 -29 148.5 124 c 0,16,17
 78.2998 231 78.2998 231 78.2998 386 c 0,18,19
 78.2998 454 78.2998 454 91.7998 531 c 0,20,21
 135.9 784 135.9 784 288 938 c 128,-1,22
 440.1 1092 440.1 1092 656.1 1092 c 0,23,24
 1008 1092 1008 1092 1008 815 c 0,25,26
 1008 612 1008 612 823.5 513 c 0,27,28
 635.4 412 635.4 412 270 408 c 1,0,1
731.7 632 m 16,29,30
 832.5 698 832.5 698 832.5 822 c 0,31,32
 832.5 993 832.5 993 628.2 993 c 0,33,34
 507.6 993 507.6 993 423.9 891 c 128,-1,35
 340.2 789 340.2 789 288.9 514 c 1,36,37
 577.8 529 577.8 529 731.7 632 c 16,29,30
EndSplineSet
EndChar
StartChar: f
Encoding: 102 102 102
Width: 682
Flags: W
AnchorPoint: "below" 36.0215 -430 basechar 0
AnchorPoint: "above" 674.259 1536 basechar 0
LayerCount: 2
Fore
SplineSet
918.243 1305 m 1,0,-1
 830.944 1305 l 1,1,2
 834.439 1326.45 834.439 1326.45 834.438 1344.94 c 0,3,4
 834.438 1391.15 834.438 1391.15 812.641 1419 c 0,5,6
 782.113 1458 782.113 1458 711.014 1458 c 0,7,8
 618.313 1458 618.313 1458 570.628 1401.5 c 128,-1,9
 522.943 1345 522.943 1345 497.576 1200 c 2,10,-1
 473.608 1063 l 1,11,-1
 740.909 1063 l 1,12,-1
 722.192 956 l 1,13,-1
 454.893 956 l 1,14,-1
 276.1 -66 l 2,15,16
 244.961 -243.997 244.961 -243.997 145.791 -335 c 128,-1,17
 46.6221 -426 46.6221 -426 -114.478 -426 c 1,18,-1
 -103.635 -328 l 1,19,20
 -9.08398 -328 -9.08398 -328 36.75 -271.5 c 0,21,22
 84.9424 -212.091 84.9424 -212.091 110.499 -66 c 2,23,-1
 289.292 956 l 1,24,-1
 130.893 956 l 1,25,-1
 149.608 1063 l 1,26,-1
 308.009 1063 l 1,27,-1
 331.277 1196 l 2,28,29
 362.544 1374.72 362.544 1374.72 461.587 1465 c 0,30,31
 560.756 1556 560.756 1556 721.855 1556 c 0,32,33
 782.156 1556 782.156 1556 840.356 1544 c 128,-1,34
 898.559 1532 898.559 1532 953.586 1507 c 1,35,-1
 918.243 1305 l 1,0,-1
EndSplineSet
EndChar
StartChar: g
Encoding: 103 103 103
Width: 1179
Flags: W
AnchorPoint: "below" 412.655 -430 basechar 0
AnchorPoint: "above" 640.8 1092 basechar 0
LayerCount: 2
Fore
SplineSet
1100.28 1063 m 1,0,-1
 918.342 23 l 2,1,2
 876.648 -215.333 876.648 -215.333 743.1 -330.5 c 0,3,4
 598.729 -455 598.729 -455 398.22 -455 c 0,5,6
 303.719 -455 303.719 -455 220.643 -436 c 128,-1,7
 137.566 -417 137.566 -417 65.0146 -379 c 1,8,-1
 104.026 -156 l 1,9,-1
 190.427 -156 l 1,10,11
 188.432 -260 188.432 -260 240.335 -308 c 128,-1,12
 292.238 -356 292.238 -356 404.738 -356 c 0,13,14
 550.538 -356 550.538 -356 634.494 -264.5 c 0,15,16
 718.341 -173.625 718.341 -173.625 752.741 23 c 2,17,-1
 777.76 166 l 1,18,19
 711.663 66 711.663 66 628.204 18.5 c 128,-1,20
 544.744 -29 544.744 -29 439.179 -29 c 24,21,22
 280.427 -29 280.427 -29 200.452 90.3467 c 0,23,24
 150.277 165.228 150.277 165.228 144.797 268.644 c 0,25,26
 141.547 330.067 141.547 330.067 154.058 401.567 c 0,27,28
 215.96 755.414 215.96 755.414 436.812 937 c 0,29,30
 624.668 1091.45 624.668 1091.45 844.629 1092 c 0,31,32
 1045.7 1092.79 1045.7 1092.79 1100.28 1063 c 1,0,-1
916.866 956 m 9,33,34
 916.623 990 916.623 990 818.682 990 c 0,35,36
 643.938 990 643.938 990 511.646 840 c 0,37,38
 378.5 689.033 378.5 689.033 330.538 414.925 c 0,39,40
 316.427 334.277 316.427 334.277 320.233 273.147 c 0,41,42
 324.086 211.266 324.086 211.266 346.298 169.338 c 0,43,44
 390.451 86 390.451 86 505.463 86 c 24,45,46
 631.463 86 631.463 86 715.194 186.5 c 128,-1,47
 798.927 287 798.927 287 832.517 479 c 2,48,-1
 850.885 584 l 17,49,-1
 916.866 956 l 9,33,34
EndSplineSet
EndChar
StartChar: h
Encoding: 104 104 104
Width: 1187
Flags: W
AnchorPoint: "above" 427.98 1537 basechar 0
AnchorPoint: "below" 469.595 0 basechar 0
LayerCount: 2
Fore
SplineSet
88.8926 0 m 1,0,-1
 342.558 1450 l 1,1,-1
 184.158 1450 l 1,2,-1
 202.707 1556 l 1,3,-1
 526.707 1556 l 1,4,-1
 407.394 874 l 1,5,6
 472.185 982 472.185 982 555.156 1037 c 0,7,8
 638.136 1092 638.136 1092 735.336 1092 c 0,9,10
 893.736 1092 893.736 1092 950.76 991 c 0,11,12
 985.194 930.03 985.194 930.03 985.194 827.87 c 0,13,14
 985.194 760.81 985.194 760.81 970.354 676 c 2,15,-1
 870.642 106 l 1,16,-1
 1018.24 106 l 1,17,-1
 999.693 0 l 1,18,-1
 685.593 0 l 1,19,-1
 793.71 618 l 2,20,21
 811.791 721.36 811.791 721.36 811.791 790.03 c 0,22,23
 811.791 850.9 811.791 850.9 797.58 884.5 c 0,24,25
 767.34 956 767.34 956 657.54 956 c 0,26,27
 542.34 956 542.34 956 465.768 863 c 0,28,29
 389.205 770 389.205 770 358.065 592 c 2,30,-1
 254.493 0 l 1,31,-1
 88.8926 0 l 1,0,-1
EndSplineSet
EndChar
StartChar: i
Encoding: 105 105 105
Width: 589
Flags: W
AnchorPoint: "below" 163.381 0 basechar 0
AnchorPoint: "above" 430.175 1524 basechar 0
LayerCount: 2
Fore
SplineSet
290.979 1393 m 0,0,1
 299.025 1439 299.025 1439 335.124 1473 c 128,-1,2
 371.223 1507 371.223 1507 413.523 1507 c 0,3,4
 454.923 1507 454.923 1507 479.124 1473 c 0,5,6
 497.286 1447.48 497.286 1447.48 497.286 1415.21 c 0,7,8
 497.286 1404.48 497.286 1404.48 495.279 1393 c 0,9,10
 487.053 1346 487.053 1346 451.584 1313 c 128,-1,11
 416.106 1280 416.106 1280 373.806 1280 c 128,-1,12
 331.506 1280 331.506 1280 307.134 1313 c 0,13,14
 288.9 1337.68 288.9 1337.68 288.9 1370.18 c 0,15,16
 288.9 1381.14 288.9 1381.14 290.979 1393 c 0,0,1
277.326 106 m 1,17,-1
 433.926 106 l 1,18,-1
 415.377 0 l 1,19,-1
 93.1768 0 l 1,20,-1
 260.424 956 l 1,21,-1
 102.024 956 l 1,22,-1
 120.744 1063 l 1,23,-1
 444.744 1063 l 1,24,-1
 277.326 106 l 1,17,-1
EndSplineSet
Substitution2: "Single Substitution - Dotless Form" dotlessi
EndChar
StartChar: j
Encoding: 106 106 106
Width: 571
Flags: W
AnchorPoint: "below" -61.0439 -430 basechar 0
AnchorPoint: "above" 484.175 1524 basechar 0
LayerCount: 2
Fore
SplineSet
336.177 1393 m 0,0,1
 344.223 1439 344.223 1439 380.322 1473 c 0,2,3
 416.421 1507 416.421 1507 458.721 1507 c 0,4,5
 500.121 1507 500.121 1507 524.322 1473 c 0,6,7
 542.484 1447.48 542.484 1447.48 542.484 1415.21 c 0,8,9
 542.484 1404.48 542.484 1404.48 540.477 1393 c 0,10,11
 532.251 1346 532.251 1346 497.232 1313 c 0,12,13
 462.204 1280 462.204 1280 419.004 1280 c 0,14,15
 376.704 1280 376.704 1280 352.332 1313 c 0,16,17
 334.098 1337.68 334.098 1337.68 334.098 1370.18 c 0,18,19
 334.098 1381.15 334.098 1381.15 336.177 1393 c 0,0,1
300.222 956 m 1,20,-1
 143.622 956 l 1,21,-1
 162.342 1063 l 1,22,-1
 484.542 1063 l 1,23,-1
 280.386 -104 l 2,24,25
 251.694 -268 251.694 -268 147.591 -361.5 c 0,26,27
 43.4785 -455 43.4785 -455 -110.421 -455 c 0,28,29
 -175.221 -455 -175.221 -455 -231.282 -438.5 c 0,30,31
 -287.343 -422 -287.343 -422 -337.374 -389 c 1,32,-1
 -299.061 -170 l 1,33,-1
 -213.561 -170 l 1,34,35
 -216.252 -194.65 -216.252 -194.65 -216.252 -215.93 c 0,36,37
 -216.252 -277.55 -216.252 -277.55 -193.68 -311 c 0,38,39
 -163.296 -356 -163.296 -356 -89.4961 -356 c 0,40,41
 -7.5957 -356 -7.5957 -356 42.3086 -294.5 c 0,42,43
 92.2227 -233 92.2227 -233 114.786 -104 c 2,44,-1
 300.222 956 l 1,20,-1
EndSplineSet
Substitution2: "Single Substitution - Dotless Form" dotlessj
EndChar
StartChar: k
Encoding: 107 107 107
Width: 1116
Flags: W
AnchorPoint: "above" 427.806 1536 basechar 0
AnchorPoint: "below" 456.095 0 basechar 0
LayerCount: 2
Fore
SplineSet
608.256 664 m 1,0,-1
 874.242 106 l 1,1,-1
 1011.94 106 l 1,2,-1
 993.393 0 l 1,3,-1
 727.893 0 l 1,4,-1
 467.388 543 l 1,5,-1
 313.271 408 l 1,6,-1
 241.893 0 l 1,7,-1
 76.293 0 l 1,8,-1
 329.958 1450 l 1,9,-1
 170.658 1450 l 1,10,-1
 189.207 1556 l 1,11,-1
 514.107 1556 l 1,12,-1
 336.888 543 l 1,13,-1
 812.34 956 l 1,14,-1
 674.64 956 l 1,15,-1
 693.36 1063 l 1,16,-1
 962.46 1063 l 1,17,-1
 943.74 956 l 1,18,-1
 608.256 664 l 1,0,-1
EndSplineSet
EndChar
StartChar: l
Encoding: 108 108 108
Width: 589
Flags: W
AnchorPoint: "above" 427.806 1536 basechar 0
AnchorPoint: "below" 159.095 0 basechar 0
LayerCount: 2
Fore
SplineSet
260.442 106 m 1,0,-1
 417.042 106 l 1,1,-1
 398.493 0 l 1,2,-1
 76.293 0 l 1,3,-1
 329.958 1450 l 1,4,-1
 170.658 1450 l 1,5,-1
 189.207 1556 l 1,6,-1
 514.107 1556 l 1,7,-1
 260.442 106 l 1,0,-1
EndSplineSet
EndChar
StartChar: m
Encoding: 109 109 109
Width: 1747
Flags: W
AnchorPoint: "below" 790.981 0 basechar 0
AnchorPoint: "above" 982.017 1092 basechar 0
LayerCount: 2
Fore
SplineSet
1009.13 856 m 1,0,1
 1077.3 973 1077.3 973 1161.96 1032.5 c 0,2,3
 1246.62 1092 1246.62 1092 1345.62 1092 c 0,4,5
 1495.92 1092 1495.92 1092 1551.61 988.5 c 0,6,7
 1585.23 926.02 1585.23 926.02 1585.23 825.09 c 0,8,9
 1585.23 758.83 1585.23 758.83 1570.74 676 c 2,10,-1
 1471.02 106 l 1,11,-1
 1620.42 106 l 1,12,-1
 1601.88 0 l 1,13,-1
 1286.88 0 l 1,14,-1
 1401.47 655 l 2,15,16
 1415.11 732.93 1415.11 732.93 1415.11 789.37 c 0,17,18
 1415.11 850.99 1415.11 850.99 1398.85 887 c 0,19,20
 1367.73 956 1367.73 956 1267.83 956 c 0,21,22
 1157.13 956 1157.13 956 1082.81 863 c 128,-1,23
 1008.49 770 1008.49 770 977.346 592 c 2,24,-1
 873.783 0 l 1,25,-1
 708.183 0 l 1,26,-1
 823.995 662 l 2,27,28
 837.062 736.7 837.062 736.7 837.062 791.2 c 0,29,30
 837.062 852.71 837.062 852.71 820.422 888.5 c 0,31,32
 789.03 956 789.03 956 689.13 956 c 0,33,34
 578.43 956 578.43 956 504.108 863 c 0,35,36
 429.786 770 429.786 770 398.646 592 c 2,37,-1
 295.083 0 l 1,38,-1
 129.483 0 l 1,39,-1
 297.072 958 l 1,40,-1
 138.681 958 l 1,41,-1
 157.041 1063 l 1,42,-1
 481.041 1063 l 1,43,-1
 447.984 874 l 1,44,45
 512.424 980 512.424 980 593.325 1036 c 0,46,47
 674.217 1092 674.217 1092 764.217 1092 c 0,48,49
 875.817 1092 875.817 1092 939.762 1030.5 c 0,50,51
 1003.7 969 1003.7 969 1009.13 856 c 1,0,1
EndSplineSet
EndChar
StartChar: n
Encoding: 110 110 110
Width: 1187
Flags: W
AnchorPoint: "below" 510.182 0 basechar 0
AnchorPoint: "above" 642.6 1092 basechar 0
LayerCount: 2
Fore
SplineSet
129.483 0 m 1,0,-1
 296.73 956 l 1,1,-1
 138.33 956 l 1,2,-1
 157.041 1063 l 1,3,-1
 481.041 1063 l 1,4,-1
 447.984 874 l 1,5,6
 512.775 982 512.775 982 595.746 1037 c 128,-1,7
 678.717 1092 678.717 1092 775.917 1092 c 0,8,9
 934.317 1092 934.317 1092 991.35 991 c 0,10,11
 1025.78 930.027 1025.78 930.027 1025.78 827.871 c 0,12,13
 1025.78 760.809 1025.78 760.809 1010.94 676 c 2,14,-1
 911.223 106 l 1,15,-1
 1058.82 106 l 1,16,-1
 1040.28 0 l 1,17,-1
 726.183 0 l 1,18,-1
 834.3 618 l 2,19,20
 852.303 720.917 852.303 720.917 852.303 789.712 c 0,21,22
 852.303 851.264 852.303 851.264 837.891 885.5 c 0,23,24
 807.372 958 807.372 958 698.472 958 c 0,25,26
 583.271 958 583.271 958 506.619 864.5 c 0,27,28
 429.966 771 429.966 771 398.646 592 c 2,29,-1
 295.083 0 l 1,30,-1
 129.483 0 l 1,0,-1
EndSplineSet
EndChar
StartChar: o
Encoding: 111 111 111
Width: 1109
Flags: W
AnchorPoint: "below" 461.418 0 basechar 0
AnchorPoint: "above" 651.6 1092 basechar 0
LayerCount: 2
Fore
SplineSet
473.661 70 m 0,0,1
 606.861 70 606.861 70 695.286 187 c 128,-1,2
 783.702 304 783.702 304 823.59 532 c 0,3,4
 841.781 635.982 841.781 635.982 841.781 716.773 c 0,5,6
 841.781 813.131 841.781 813.131 815.904 876.5 c 0,7,8
 768.339 993 768.339 993 635.139 993 c 128,-1,9
 501.939 993 501.939 993 413.604 876.5 c 128,-1,10
 325.278 760 325.278 760 285.39 532 c 0,11,12
 267.273 428.444 267.273 428.444 267.273 347.787 c 0,13,14
 267.273 250.86 267.273 250.86 293.436 187 c 0,15,16
 341.361 70 341.361 70 473.661 70 c 0,0,1
456.345 -29 m 0,17,18
 247.545 -29 247.545 -29 147.501 124.5 c 0,19,20
 78.2207 230.788 78.2207 230.788 78.2207 385.263 c 0,21,22
 78.2207 453.878 78.2207 453.878 91.8896 532 c 0,23,24
 136.323 786 136.323 786 289.539 939 c 128,-1,25
 442.755 1092 442.755 1092 652.455 1092 c 128,-1,26
 862.155 1092 862.155 1092 961.839 939 c 0,27,28
 1030.79 833.172 1030.79 833.172 1030.79 679.021 c 0,29,30
 1030.79 610.311 1030.79 610.311 1017.09 532 c 0,31,32
 972.648 278 972.648 278 819.351 124.5 c 128,-1,33
 666.045 -29 666.045 -29 456.345 -29 c 0,17,18
EndSplineSet
EndChar
StartChar: p
Encoding: 112 112 112
Width: 1179
Flags: W
AnchorPoint: "above" 770.882 1092 basechar 0
AnchorPoint: "below" 161.719 -430 basechar 0
LayerCount: 2
Fore
SplineSet
421.911 584 m 2,0,-1
 403.542 479 l 2,1,2
 389.81 400.5 389.81 400.5 389.81 337.296 c 0,3,4
 389.81 245.91 389.81 245.91 418.518 186.5 c 0,5,6
 467.091 86 467.091 86 593.091 86 c 0,7,8
 719.991 86 719.991 86 805.005 199 c 0,9,10
 890.028 312 890.028 312 928.512 532 c 0,11,12
 946.242 633.336 946.242 633.336 946.242 711.754 c 0,13,14
 946.242 804.356 946.242 804.356 921.519 865 c 0,15,16
 875.862 977 875.862 977 748.962 977 c 0,17,18
 622.962 977 622.962 977 539.145 876 c 0,19,20
 455.328 775 455.328 775 421.911 584 c 2,0,-1
321.39 956 m 1,21,-1
 162.09 956 l 1,22,-1
 180.81 1063 l 1,23,-1
 505.71 1063 l 1,24,-1
 476.667 897 l 1,25,26
 542.763 997 542.763 997 626.22 1044.5 c 0,27,28
 709.677 1092 709.677 1092 820.377 1092 c 0,29,30
 996.777 1092 996.777 1092 1081.27 937 c 0,31,32
 1136.93 834.874 1136.93 834.874 1136.93 691.507 c 0,33,34
 1136.93 617.281 1136.93 617.281 1122.01 532 c 0,35,36
 1078.28 282 1078.28 282 939.474 126.5 c 128,-1,37
 800.667 -29 800.667 -29 624.267 -29 c 0,38,39
 513.567 -29 513.567 -29 446.733 18.5 c 0,40,41
 379.89 66 379.89 66 348.786 166 c 1,42,-1
 245.223 -426 l 1,43,-1
 79.623 -426 l 1,44,-1
 321.39 956 l 1,21,-1
EndSplineSet
EndChar
StartChar: q
Encoding: 113 113 113
Width: 1179
Flags: W
AnchorPoint: "below" 751.219 -430 basechar 0
AnchorPoint: "above" 644.882 1092 basechar 0
LayerCount: 2
Fore
SplineSet
773.1 166 m 1,0,1
 711 66 711 66 635.4 18 c 0,2,3
 559.8 -29 559.8 -29 459.9 -29 c 0,4,5
 301.5 -29 301.5 -29 221.4 90 c 0,6,7
 171 165 171 165 165.6 269 c 0,8,9
 162 330 162 330 174.6 402 c 0,10,11
 236.7 755 236.7 755 457.2 937 c 0,12,13
 645.3 1091 645.3 1091 865.8 1092 c 0,14,15
 1040.4 1093 1040.4 1093 1095.3 1063 c 1,16,-1
 853.2 -320 l 1,17,-1
 1012.5 -320 l 1,18,-1
 993.6 -426 l 1,19,-1
 668.7 -426 l 1,20,-1
 773.1 166 l 1,0,1
839.7 990 m 0,21,22
 666.9 990 666.9 990 532.8 840 c 0,23,24
 399.6 689 399.6 689 351 415 c 0,25,26
 337.5 334 337.5 334 341.1 273 c 0,27,28
 344.7 211 344.7 211 367.2 169 c 0,29,30
 411.3 86 411.3 86 526.5 86 c 0,31,32
 639.9 86 639.9 86 716.85 186.5 c 128,-1,33
 793.8 287 793.8 287 827.1 479 c 2,34,-1
 911.7 961 l 9,35,36
 912.6 990 912.6 990 839.7 990 c 0,21,22
EndSplineSet
EndChar
StartChar: r
Encoding: 114 114 114
Width: 881
Flags: W
AnchorPoint: "below" 199.682 0 basechar 0
AnchorPoint: "above" 604.8 1092 basechar 0
LayerCount: 2
Fore
SplineSet
971.892 1065 m 1,0,-1
 925.362 799 l 1,1,-1
 829.962 799 l 1,2,3
 832.271 818.58 832.271 818.58 832.271 835.702 c 0,4,5
 832.271 887.666 832.271 887.666 811.008 917 c 0,6,7
 782.73 956 782.73 956 715.23 956 c 0,8,9
 592.83 956 592.83 956 511.128 862 c 0,10,11
 429.435 768 429.435 768 398.646 592 c 2,12,-1
 295.083 0 l 1,13,-1
 129.483 0 l 1,14,-1
 297.072 958 l 1,15,-1
 138.672 958 l 1,16,-1
 157.041 1063 l 1,17,-1
 481.041 1063 l 1,18,-1
 447.984 874 l 1,19,20
 515.997 985 515.997 985 601.857 1038.5 c 0,21,22
 687.717 1092 687.717 1092 797.517 1092 c 0,23,24
 838.017 1092 838.017 1092 881.343 1085 c 128,-1,25
 924.669 1078 924.669 1078 971.892 1065 c 1,0,-1
EndSplineSet
EndChar
StartChar: s
Encoding: 115 115 115
Width: 945
Flags: W
AnchorPoint: "below" 380.418 0 basechar 0
AnchorPoint: "above" 570.6 1092 basechar 0
LayerCount: 2
Fore
SplineSet
63.9004 307 m 1,0,-1
 159.3 307 l 1,1,2
 155.7 278 155.7 278 155.7 252 c 0,3,4
 155.7 70 155.7 70 378 70 c 0,5,6
 601.2 70 601.2 70 633.6 252 c 0,7,8
 636.3 270 636.3 270 636.3 302 c 0,9,10
 636.3 333 636.3 333 605.7 370.5 c 128,-1,11
 575.1 408 575.1 408 446.4 457 c 2,12,-1
 333.9 502 l 2,13,14
 218.7 546 218.7 546 181.35 602.5 c 128,-1,15
 144 659 144 659 144 724 c 0,16,17
 144 750 144 750 148.5 780 c 0,18,19
 174.6 926 174.6 926 285.3 1009 c 128,-1,20
 396 1092 396 1092 556.2 1092 c 0,21,22
 715.5 1092 715.5 1092 882.9 1006 c 1,23,-1
 842.4 774 l 1,24,-1
 747 774 l 1,25,26
 750.6 797 750.6 797 750.6 817 c 0,27,28
 750.6 890 750.6 890 705.15 941.5 c 128,-1,29
 659.7 993 659.7 993 554.4 993 c 0,30,31
 342.9 993 342.9 993 314.1 829 c 0,32,33
 310.5 812 310.5 812 310.5 782 c 0,34,35
 310.5 751 310.5 751 339.75 716 c 128,-1,36
 369 681 369 681 483.3 639 c 2,37,-1
 606.6 594 l 2,38,39
 734.4 547 734.4 547 782.1 476 c 0,40,41
 815.4 426 815.4 426 815.4 377 c 0,42,43
 815.4 167 815.4 167 664.2 58 c 0,44,45
 545.4 -29 545.4 -29 363.6 -29 c 0,46,47
 181.8 -29 181.8 -29 20.7002 59 c 1,48,-1
 63.9004 307 l 1,0,-1
EndSplineSet
EndChar
StartChar: t
Encoding: 116 116 116
Width: 740
Flags: W
AnchorPoint: "below" 343.29 0 basechar 0
AnchorPoint: "above" 431.101 1536 basechar 0
LayerCount: 2
Fore
SplineSet
246.834 956 m 1,0,-1
 101.034 956 l 1,1,-1
 119.754 1063 l 1,2,-1
 265.554 1063 l 1,3,-1
 323.28 1393 l 1,4,-1
 489.78 1393 l 1,5,-1
 432.054 1063 l 1,6,-1
 743.454 1063 l 1,7,-1
 724.734 956 l 1,8,-1
 413.334 956 l 1,9,-1
 295.245 281 l 2,10,11
 281.43 202.02 281.43 202.02 281.43 156.24 c 0,12,13
 281.43 123.77 281.43 123.77 288.387 108 c 0,14,15
 305.136 70 305.136 70 368.136 70 c 0,16,17
 432.936 70 432.936 70 470.07 112.5 c 0,18,19
 507.204 155 507.204 155 525.627 250 c 1,20,-1
 650.727 250 l 1,21,22
 618.156 105 618.156 105 542.538 38 c 0,23,24
 466.92 -29 466.92 -29 336.42 -29 c 0,25,26
 193.32 -29 193.32 -29 146.25 41.5 c 0,27,28
 117.342 84.7998 117.342 84.7998 117.342 165.26 c 0,29,30
 117.342 215.8 117.342 215.8 128.745 281 c 2,31,-1
 246.834 956 l 1,0,-1
EndSplineSet
EndChar
StartChar: u
Encoding: 117 117 117
Width: 1187
Flags: W
AnchorPoint: "below" 444.155 0 basechar 0
AnchorPoint: "above" 622.8 1092 basechar 0
LayerCount: 2
Fore
SplineSet
892.017 1063 m 1,0,-1
 1057.62 1063 l 1,1,-1
 890.199 106 l 1,2,-1
 1046.8 106 l 1,3,-1
 1028.26 0 l 1,4,-1
 706.059 0 l 1,5,-1
 738.945 188 l 1,6,7
 674.496 82 674.496 82 591.894 26.5 c 0,8,9
 509.283 -29 509.283 -29 412.983 -29 c 0,10,11
 253.683 -29 253.683 -29 196.11 71.5 c 0,12,13
 161.298 132.28 161.298 132.28 161.298 234.95 c 0,14,15
 161.298 302.04 161.298 302.04 176.157 387 c 2,16,-1
 275.697 956 l 1,17,-1
 126.297 956 l 1,18,-1
 145.017 1063 l 1,19,-1
 460.917 1063 l 1,20,-1
 352.629 444 l 2,21,22
 334.656 341.28 334.656 341.28 334.656 272.76 c 0,23,24
 334.656 211.88 334.656 211.88 348.849 178 c 0,25,26
 378.999 106 378.999 106 488.799 106 c 0,27,28
 603.999 106 603.999 106 680.742 200 c 128,-1,29
 757.485 294 757.485 294 788.805 473 c 2,30,-1
 892.017 1063 l 1,0,-1
EndSplineSet
EndChar
StartChar: v
Encoding: 118 118 118
Width: 1041
Flags: W
AnchorPoint: "below" 427.219 0 basechar 0
AnchorPoint: "above" 618.255 1092 basechar 0
LayerCount: 2
Fore
SplineSet
484.2 0 m 1,0,-1
 362.7 0 l 1,1,-1
 178.2 956 l 1,2,-1
 69.2998 956 l 1,3,-1
 87.2998 1063 l 1,4,-1
 334.8 1063 l 1,5,-1
 496.8 225 l 1,6,7
 600.3 325 600.3 325 669.6 452 c 0,8,9
 813.6 716 813.6 716 864.9 956 c 1,10,-1
 755.1 956 l 1,11,-1
 774 1063 l 1,12,-1
 1021.5 1063 l 1,13,14
 923.4 651 923.4 651 799.2 420 c 0,15,16
 691.2 220 691.2 220 484.2 0 c 1,0,-1
EndSplineSet
EndChar
StartChar: w
Encoding: 119 119 119
Width: 1577
Flags: W
AnchorPoint: "above" 889.155 1092 basechar 0
AnchorPoint: "below" 698.118 0 basechar 0
LayerCount: 2
Fore
SplineSet
1077.28 233 m 1,0,1
 1197.34 377.487 1197.34 377.487 1224 430 c 0,2,3
 1323 630 1323 630 1419.76 956 c 1,4,-1
 1280.99 955.011 l 1,5,-1
 1299.88 1063 l 1,6,-1
 1540.18 1063 l 1,7,-1
 1521.29 955.02 l 1,8,-1
 1520.05 954.771 l 1,9,10
 1428.53 584.311 1428.53 584.311 1341 405 c 0,11,12
 1212.23 149.998 1212.23 149.998 1071 0 c 1,13,-1
 933.021 0 l 1,14,-1
 835.396 795 l 1,15,-1
 459.62 0 l 1,16,-1
 327.32 0 l 1,17,-1
 211.059 956 l 1,18,-1
 103.61 953.994 l 1,19,-1
 122.679 1063 l 1,20,-1
 369.281 1063 l 1,21,-1
 469.783 233 l 1,22,-1
 861.578 1063 l 1,23,-1
 977.679 1063 l 1,24,-1
 1077.28 233 l 1,0,1
EndSplineSet
EndChar
StartChar: x
Encoding: 120 120 120
Width: 1039
Flags: W
AnchorPoint: "above" 618.255 1092 basechar 0
AnchorPoint: "below" 427.219 0 basechar 0
LayerCount: 2
Fore
SplineSet
117.621 0 m 1,0,-1
 5.12109 0 l 1,1,-1
 427.338 510 l 1,2,-1
 214.659 956 l 1,3,-1
 96.7588 956 l 1,4,-1
 115.479 1063 l 1,5,-1
 358.479 1063 l 1,6,-1
 556.956 649 l 1,7,-1
 900.279 1063 l 1,8,-1
 1012.78 1063 l 1,9,-1
 598.608 563 l 1,10,-1
 817.461 106 l 1,11,-1
 942.561 106 l 1,12,-1
 924.021 0 l 1,13,-1
 672.921 0 l 1,14,-1
 469.89 424 l 1,15,-1
 117.621 0 l 1,0,-1
EndSplineSet
EndChar
StartChar: y
Encoding: 121 121 121
Width: 1041
Flags: W
AnchorPoint: "below" 386.393 -430 basechar 0
AnchorPoint: "above" 604.053 1092 basechar 0
LayerCount: 2
Fore
SplineSet
1060.2 1054 m 1,0,1
 971.298 482.483 971.298 482.483 814.5 180 c 0,2,3
 584.709 -263.298 584.709 -263.298 400.5 -396 c 0,4,5
 318.6 -455 318.6 -455 102.6 -455 c 0,6,7
 60.2998 -455 60.2998 -455 17.5498 -447 c 128,-1,8
 -25.2002 -439 -25.2002 -439 -68.4004 -424 c 1,9,-1
 -32.4004 -221 l 1,10,-1
 52.2002 -221 l 1,11,12
 50.4004 -237 50.4004 -237 50.4004 -252 c 0,13,14
 50.4004 -293.52 50.4004 -293.52 66.5996 -318 c 0,15,16
 89.0996 -352 89.0996 -352 147.6 -352 c 0,17,18
 306 -352 306 -352 443.7 -199 c 1,19,-1
 217.8 956 l 1,20,-1
 108.9 956 l 1,21,-1
 127.8 1063 l 1,22,-1
 375.3 1063 l 1,23,-1
 587.7 8 l 1,24,25
 732.6 249 732.6 249 767.7 348 c 0,26,27
 881.1 659 881.1 659 903.6 947 c 1,28,-1
 794.7 947 l 1,29,-1
 813.6 1054 l 1,30,-1
 1060.2 1054 l 1,0,1
EndSplineSet
EndChar
StartChar: z
Encoding: 122 122 122
Width: 971
Flags: W
AnchorPoint: "above" 574.155 1092 basechar 0
AnchorPoint: "below" 383.118 0 basechar 0
LayerCount: 2
Fore
SplineSet
733.402 975 m 0,0,1
 830.896 975 830.896 975 925.488 1063 c 1,2,-1
 979.488 1063 l 1,3,-1
 964.439 977 l 1,4,-1
 310.484 219.331 l 1,5,6
 319.261 215.834 319.261 215.834 345.609 206.992 c 0,7,8
 376.325 195.805 376.325 195.805 407.1 174.398 c 2,9,-1
 450.544 144 l 2,10,11
 535.827 87 535.827 87 596.415 87 c 0,12,13
 714.432 87 714.432 87 853.021 237 c 1,14,-1
 831.853 116 l 1,15,16
 677.336 -52 677.336 -52 560.762 -52 c 0,17,18
 489.829 -50.4473 489.829 -50.4473 389.797 18.7764 c 128,-1,19
 289.765 88 289.765 88 226.911 88 c 0,20,21
 129.425 88 129.425 88 34.8271 0 c 1,22,-1
 -19.1729 0 l 1,23,-1
 -4.12695 86 l 1,24,-1
 650.275 843.489 l 1,25,26
 641.223 847.135 641.223 847.135 614.789 855.992 c 0,27,28
 583.99 867.19 583.99 867.19 553.214 888.6 c 2,29,-1
 509.769 919 l 2,30,31
 424.485 976 424.485 976 363.897 976 c 0,32,33
 245.877 976 245.877 976 107.288 826 c 1,34,-1
 128.456 947 l 1,35,36
 282.972 1115 282.972 1115 399.551 1115 c 0,37,38
 470.463 1113.45 470.463 1113.45 570.506 1044.22 c 128,-1,39
 670.549 975 670.549 975 733.402 975 c 0,0,1
EndSplineSet
EndChar
StartChar: braceleft
Encoding: 123 123 123
Width: 1172
Flags: W
LayerCount: 2
Fore
SplineSet
795.349 -229 m 1,0,-1
 776.979 -334 l 1,1,-1
 721.18 -334 l 2,2,3
 497.08 -334 497.08 -334 433.975 -260 c 128,-1,4
 370.871 -186 370.871 -186 409.533 35 c 2,5,-1
 454.669 293 l 2,6,7
 480.909 443 480.909 443 442.456 501 c 128,-1,8
 404.004 559 404.004 559 276.204 559 c 2,9,-1
 221.304 559 l 1,10,-1
 239.672 664 l 1,11,-1
 294.572 664 l 2,12,13
 422.372 664 422.372 664 481.118 722 c 128,-1,14
 539.866 780 539.866 780 566.106 930 c 2,15,-1
 611.241 1188 l 2,16,17
 649.903 1409 649.903 1409 738.812 1482.5 c 128,-1,18
 827.72 1556 827.72 1556 1051.82 1556 c 2,19,-1
 1107.62 1556 l 1,20,-1
 1089.42 1452 l 1,21,-1
 1028.22 1452 l 2,22,23
 901.323 1452 901.323 1452 854.929 1408 c 128,-1,24
 808.531 1364 808.531 1364 783.865 1223 c 2,25,-1
 733.656 936 l 2,26,27
 706.016 778 706.016 778 649.119 710 c 128,-1,28
 592.223 642 592.223 642 469.975 612 c 1,29,30
 582.826 578 582.826 578 615.206 511 c 128,-1,31
 647.584 444 647.584 444 620.119 287 c 2,32,-1
 569.91 0 l 2,33,34
 545.243 -141 545.243 -141 576.246 -185 c 128,-1,35
 607.249 -229 607.249 -229 734.148 -229 c 2,36,-1
 795.349 -229 l 1,0,-1
EndSplineSet
EndChar
StartChar: bar
Encoding: 124 124 124
Width: 621
Flags: W
LayerCount: 2
Fore
SplineSet
383.4 1565 m 1,0,-1
 383.4 -483 l 1,1,-1
 237.6 -483 l 1,2,-1
 237.6 1565 l 1,3,-1
 383.4 1565 l 1,0,-1
EndSplineSet
EndChar
StartChar: braceright
Encoding: 125 125 125
Width: 1172
Flags: W
LayerCount: 2
Fore
SplineSet
83.4482 -229 m 1,0,-1
 146.449 -229 l 2,1,2
 272.449 -229 272.449 -229 318.309 -185.5 c 128,-1,3
 364.169 -142 364.169 -142 389.01 0 c 2,4,-1
 439.219 287 l 2,5,6
 466.685 444 466.685 444 522.506 511 c 128,-1,7
 578.326 578 578.326 578 702.175 612 c 1,8,9
 590.423 642 590.423 642 557.769 710 c 128,-1,10
 525.116 778 525.116 778 552.757 936 c 2,11,-1
 602.965 1223 l 2,12,13
 627.806 1365 627.806 1365 597.167 1408.5 c 128,-1,14
 566.526 1452 566.526 1452 440.526 1452 c 2,15,-1
 377.526 1452 l 1,16,-1
 395.72 1556 l 1,17,-1
 452.42 1556 l 2,18,19
 676.521 1556 676.521 1556 738.812 1482.5 c 128,-1,20
 801.104 1409 801.104 1409 762.441 1188 c 2,21,-1
 717.307 930 l 2,22,23
 691.066 780 691.066 780 729.519 722 c 128,-1,24
 767.972 664 767.972 664 895.771 664 c 2,25,-1
 951.57 664 l 1,26,-1
 933.201 559 l 1,27,-1
 877.403 559 l 2,28,29
 749.604 559 749.604 559 690.856 501 c 128,-1,30
 632.109 443 632.109 443 605.869 293 c 2,31,-1
 560.733 35 l 2,32,33
 522.071 -186 522.071 -186 433.975 -260 c 128,-1,34
 345.88 -334 345.88 -334 121.78 -334 c 2,35,-1
 65.0791 -334 l 1,36,-1
 83.4482 -229 l 1,0,-1
EndSplineSet
EndChar
StartChar: asciitilde
Encoding: 126 126 126
Width: 1544
Flags: W
LayerCount: 2
Fore
SplineSet
1349.1 807 m 1,0,-1
 1349.1 659 l 1,1,2
 1259.1 571 1259.1 571 1178.1 529 c 128,-1,3
 1097.1 487 1097.1 487 1013.4 487 c 0,4,5
 927 487 927 487 770.4 553 c 2,6,-1
 761.4 557 l 2,7,8
 751.5 561 751.5 561 731.7 570 c 0,9,10
 599.4 627 599.4 627 513.9 627 c 0,11,12
 431.1 627 431.1 627 353.25 590.5 c 128,-1,13
 275.4 554 275.4 554 195.3 477 c 1,14,-1
 195.3 629 l 1,15,16
 285.3 716 285.3 716 365.85 756.5 c 128,-1,17
 446.4 797 446.4 797 531 797 c 0,18,19
 617.4 797 617.4 797 774 731 c 2,20,-1
 783 727 l 2,21,22
 792.9 723 792.9 723 810.9 715 c 0,23,24
 941.4 657 941.4 657 1028.7 657 c 0,25,26
 1111.5 657 1111.5 657 1190.7 694 c 128,-1,27
 1269.9 731 1269.9 731 1349.1 807 c 1,0,-1
EndSplineSet
EndChar
StartChar: exclamdown
Encoding: 161 161 161
Width: 740
Flags: W
LayerCount: 2
Fore
SplineSet
360.964 1389 m 0,0,1
 370.761 1445 370.761 1445 411.695 1483.5 c 128,-1,2
 452.632 1522 452.632 1522 503.932 1522 c 0,3,4
 553.432 1522 553.432 1522 581.709 1483 c 128,-1,5
 609.985 1444 609.985 1444 600.364 1389 c 0,6,7
 590.567 1333 590.567 1333 548.644 1294 c 128,-1,8
 506.721 1255 506.721 1255 457.221 1255 c 0,9,10
 405.921 1255 405.921 1255 378.544 1294 c 128,-1,11
 351.167 1333 351.167 1333 360.964 1389 c 0,0,1
121.568 0 m 1,12,-1
 325.497 821 l 1,13,-1
 369.581 1073 l 1,14,-1
 480.281 1073 l 1,15,-1
 436.196 821 l 1,16,-1
 353.769 0 l 1,17,-1
 121.568 0 l 1,12,-1
EndSplineSet
EndChar
StartChar: cent
Encoding: 162 162 162
Width: 1172
Flags: W
LayerCount: 2
Fore
SplineSet
646.835 991 m 1,0,1
 528.112 976 528.112 976 449.944 861 c 128,-1,2
 371.774 746 371.774 746 334.337 532 c 0,3,4
 296.725 317 296.725 317 334.657 202 c 128,-1,5
 372.587 87 372.587 87 486.063 72 c 1,6,-1
 646.835 991 l 1,0,1
956.771 319 m 1,7,8
 898.333 165 898.333 165 798.602 78.5 c 128,-1,9
 698.869 -8 698.869 -8 558.744 -27 c 1,10,-1
 511.511 -297 l 1,11,-1
 421.511 -297 l 1,12,-1
 468.744 -27 l 1,13,14
 274.069 -8 274.069 -8 185.561 142 c 128,-1,15
 97.0518 292 97.0518 292 139.037 532 c 0,16,17
 181.373 774 181.373 774 322.277 923.5 c 128,-1,18
 463.182 1073 463.182 1073 664.155 1090 c 1,19,-1
 710.689 1356 l 1,20,-1
 800.689 1356 l 1,21,-1
 754.155 1090 l 1,22,23
 835.557 1082 835.557 1082 907.128 1059 c 128,-1,24
 978.705 1036 978.705 1036 1043.88 997 c 1,25,-1
 996.3 725 l 1,26,-1
 900.9 725 l 1,27,28
 905.319 848 905.319 848 865.027 913.5 c 128,-1,29
 824.736 979 824.736 979 736.835 991 c 1,30,-1
 576.063 72 l 1,31,32
 659.163 84 659.163 84 722.473 147.5 c 128,-1,33
 785.781 211 785.781 211 823.574 319 c 1,34,-1
 956.771 319 l 1,7,8
EndSplineSet
EndChar
StartChar: sterling
Encoding: 163 163 163
Width: 1172
Flags: W
LayerCount: 2
Fore
SplineSet
1073.15 1225 m 1,0,-1
 978.651 1225 l 1,1,2
 986.265 1320 986.265 1320 944.253 1370.5 c 128,-1,3
 902.241 1421 902.241 1421 815.837 1421 c 0,4,5
 701.536 1421 701.536 1421 633.529 1343.5 c 128,-1,6
 565.521 1266 565.521 1266 536.831 1102 c 2,7,-1
 485.223 807 l 1,8,-1
 856.022 807 l 1,9,-1
 837.304 700 l 1,10,-1
 466.503 700 l 1,11,-1
 365.212 121 l 1,12,-1
 795.412 121 l 1,13,-1
 835.123 348 l 1,14,-1
 939.528 348 l 1,15,-1
 878.644 0 l 1,16,-1
 -9.65625 0 l 1,17,-1
 8.8877 106 l 1,18,-1
 182.588 106 l 1,19,-1
 286.503 700 l 1,20,-1
 112.804 700 l 1,21,-1
 131.522 807 l 1,22,-1
 305.223 807 l 1,23,-1
 356.831 1102 l 2,24,25
 392.693 1307 392.693 1307 514.374 1413.5 c 128,-1,26
 636.056 1520 636.056 1520 834.956 1520 c 0,27,28
 911.457 1520 911.457 1520 982.17 1507.5 c 128,-1,29
 1052.88 1495 1052.88 1495 1116.01 1470 c 1,30,-1
 1073.15 1225 l 1,0,-1
EndSplineSet
EndChar
StartChar: currency
Encoding: 164 164 164
Width: 1172
Flags: W
LayerCount: 2
Fore
SplineSet
810.9 985 m 1,0,-1
 999 1192 l 1,1,-1
 1083.6 1098 l 1,2,-1
 895.5 889 l 1,3,4
 934.2 829 934.2 829 952.65 768 c 128,-1,5
 971.1 707 971.1 707 971.1 641 c 0,6,7
 971.1 572 971.1 572 952.65 513 c 128,-1,8
 934.2 454 934.2 454 893.7 397 c 1,9,-1
 1080 190 l 1,10,-1
 993.6 96 l 1,11,-1
 807.3 301 l 1,12,13
 756.9 257 756.9 257 703.35 236 c 128,-1,14
 649.8 215 649.8 215 587.7 215 c 0,15,16
 530.1 215 530.1 215 473.85 235.5 c 128,-1,17
 417.6 256 417.6 256 362.7 297 c 1,18,-1
 179.1 92 l 1,19,-1
 93.5996 186 l 1,20,-1
 278.1 393 l 1,21,22
 241.2 455 241.2 455 222.75 516 c 128,-1,23
 204.3 577 204.3 577 204.3 641 c 0,24,25
 204.3 711 204.3 711 223.2 770.5 c 128,-1,26
 242.1 830 242.1 830 281.7 887 c 1,27,-1
 95.4004 1094 l 1,28,-1
 180.9 1188 l 1,29,-1
 367.2 981 l 1,30,31
 417.6 1025 417.6 1025 471.6 1046 c 128,-1,32
 525.6 1067 525.6 1067 587.7 1067 c 0,33,34
 647.1 1067 647.1 1067 702 1047 c 128,-1,35
 756.9 1027 756.9 1027 810.9 985 c 1,0,-1
829.8 643 m 0,36,37
 829.8 755 829.8 755 760.05 832 c 128,-1,38
 690.3 909 690.3 909 587.7 909 c 0,39,40
 486.9 909 486.9 909 416.7 832 c 128,-1,41
 346.5 755 346.5 755 346.5 643 c 0,42,43
 346.5 529 346.5 529 416.25 451 c 128,-1,44
 486 373 486 373 587.7 373 c 0,45,46
 689.4 373 689.4 373 759.6 451.5 c 128,-1,47
 829.8 530 829.8 530 829.8 643 c 0,36,37
EndSplineSet
EndChar
StartChar: yen
Encoding: 165 165 165
Width: 1172
Flags: W
LayerCount: 2
Fore
SplineSet
193.406 0 m 1,0,-1
 211.949 106 l 1,1,-1
 383.849 106 l 1,2,-1
 448.054 473 l 1,3,-1
 84.4531 473 l 1,4,-1
 102.822 578 l 1,5,-1
 466.422 578 l 1,6,-1
 477.794 643 l 1,7,-1
 428.66 784 l 1,8,-1
 138.86 784 l 1,9,-1
 157.229 889 l 1,10,-1
 393.929 889 l 1,11,-1
 222.576 1386 l 1,12,-1
 97.4766 1386 l 1,13,-1
 116.193 1493 l 1,14,-1
 613.894 1493 l 1,15,-1
 595.176 1386 l 1,16,-1
 437.677 1386 l 1,17,-1
 640.71 782 l 1,18,-1
 1051.48 1386 l 1,19,-1
 901.179 1386 l 1,20,-1
 919.89 1493 l 1,21,-1
 1308.69 1493 l 1,22,-1
 1289.98 1386 l 1,23,-1
 1162.18 1386 l 1,24,-1
 819.629 889 l 1,25,-1
 1064.43 889 l 1,26,-1
 1046.06 784 l 1,27,-1
 747.26 784 l 1,28,-1
 662.018 662 l 1,29,-1
 647.322 578 l 1,30,-1
 1010.03 578 l 1,31,-1
 991.656 473 l 1,32,-1
 628.953 473 l 1,33,-1
 564.749 106 l 1,34,-1
 735.749 106 l 1,35,-1
 717.206 0 l 1,36,-1
 193.406 0 l 1,0,-1
EndSplineSet
EndChar
StartChar: brokenbar
Encoding: 166 166 166
Width: 621
Flags: W
LayerCount: 2
Fore
SplineSet
383.4 408 m 1,0,-1
 383.4 -350 l 1,1,-1
 237.6 -350 l 1,2,-1
 237.6 408 l 1,3,-1
 383.4 408 l 1,0,-1
383.4 1432 m 1,4,-1
 383.4 674 l 1,5,-1
 237.6 674 l 1,6,-1
 237.6 1432 l 1,7,-1
 383.4 1432 l 1,4,-1
EndSplineSet
EndChar
StartChar: section
Encoding: 167 167 167
Width: 921
Flags: W
LayerCount: 2
Fore
SplineSet
388.946 936 m 1,0,1
 319.7 890 319.7 890 287.688 848.5 c 128,-1,2
 255.68 807 255.68 807 246.407 754 c 0,3,4
 223.315 622 223.315 622 514.501 419 c 2,5,-1
 540.153 401 l 1,6,7
 599 439 599 439 633.948 487 c 128,-1,8
 668.896 535 668.896 535 678.866 592 c 0,9,10
 691.987 667 691.987 667 641.158 734 c 128,-1,11
 590.33 801 590.33 801 388.946 936 c 1,0,1
886.316 1464 m 1,12,-1
 850.978 1262 l 1,13,-1
 768.178 1262 l 1,14,15
 778.974 1334 778.974 1334 739.434 1375.5 c 128,-1,16
 699.894 1417 699.894 1417 620.694 1417 c 0,17,18
 530.694 1417 530.694 1417 470.459 1368.5 c 128,-1,19
 410.225 1320 410.225 1320 395.705 1237 c 0,20,21
 378.734 1140 378.734 1140 576.168 1003 c 0,22,23
 596.944 988 596.944 988 606.519 981 c 0,24,25
 762.951 872 762.951 872 806.08 797 c 128,-1,26
 849.209 722 849.209 722 831.89 623 c 0,27,28
 815.27 528 815.27 528 756.999 465 c 128,-1,29
 698.728 402 698.728 402 588.431 358 c 1,30,31
 650.408 311 650.408 311 672.237 248 c 128,-1,32
 694.065 185 694.065 185 678.146 94 c 0,33,34
 655.228 -37 655.228 -37 549.607 -116 c 128,-1,35
 443.987 -195 443.987 -195 288.287 -195 c 0,36,37
 207.287 -195 207.287 -195 137.648 -181.5 c 128,-1,38
 68.0107 -168 68.0107 -168 3.7832 -139 c 1,39,-1
 40.3467 70 l 1,40,-1
 122.973 69 l 1,41,42
 110.776 -11 110.776 -11 152.292 -51.5 c 128,-1,43
 193.806 -92 193.806 -92 290.106 -92 c 0,44,45
 383.706 -92 383.706 -92 446.728 -43 c 128,-1,46
 509.751 6 509.751 6 524.445 90 c 0,47,48
 544.215 203 544.215 203 361.231 330 c 0,49,50
 344.431 342 344.431 342 335.58 348 c 0,51,52
 162.523 470 162.523 470 118.944 545 c 128,-1,53
 75.3652 620 75.3652 620 92.6836 719 c 0,54,55
 109.129 813 109.129 813 173.863 879.5 c 128,-1,56
 238.596 946 238.596 946 342.12 977 c 1,57,58
 276.892 1026 276.892 1026 252.362 1089 c 128,-1,59
 227.834 1152 227.834 1152 241.654 1231 c 0,60,61
 264.396 1361 264.396 1361 368.305 1440.5 c 128,-1,62
 472.213 1520 472.213 1520 621.613 1520 c 0,63,64
 691.812 1520 691.812 1520 757.764 1506 c 128,-1,65
 823.714 1492 823.714 1492 886.316 1464 c 1,12,-1
EndSplineSet
EndChar
StartChar: dieresis
Encoding: 168 168 168
Width: 921
Flags: W
LayerCount: 2
Fore
SplineSet
480.6 1569 m 0,0,1
 523.8 1569 523.8 1569 549 1534 c 0,2,3
 573.3 1500 573.3 1500 565.2 1452 c 0,4,5
 556.2 1401 556.2 1401 521.1 1368 c 0,6,7
 485.1 1335 485.1 1335 439.2 1335 c 0,8,9
 394.2 1335 394.2 1335 370.8 1368 c 0,10,11
 346.5 1401 346.5 1401 355.5 1452 c 0,12,13
 363.6 1500 363.6 1500 401.4 1534 c 0,14,15
 438.3 1569 438.3 1569 480.6 1569 c 0,0,1
831.6 1569 m 0,16,17
 873.9 1569 873.9 1569 899.1 1534 c 0,18,19
 923.4 1500 923.4 1500 915.3 1452 c 0,20,21
 906.3 1401 906.3 1401 871.2 1368 c 0,22,23
 835.2 1335 835.2 1335 790.2 1335 c 0,24,25
 744.3 1335 744.3 1335 720.9 1368 c 0,26,27
 696.6 1401 696.6 1401 705.6 1452 c 0,28,29
 713.7 1500 713.7 1500 751.5 1534 c 0,30,31
 788.4 1569 788.4 1569 831.6 1569 c 0,16,17
EndSplineSet
LCarets2: 1 0 
EndChar
StartChar: copyright
Encoding: 169 169 169
Width: 1843
Flags: W
LayerCount: 2
Fore
SplineSet
1238.4 573 m 1,0,1
 1214.1 442 1214.1 442 1132.65 371.5 c 128,-1,2
 1051.2 301 1051.2 301 923.4 301 c 0,3,4
 755.1 301 755.1 301 654.75 421 c 128,-1,5
 554.4 541 554.4 541 554.4 741 c 0,6,7
 554.4 942 554.4 942 655.65 1063 c 128,-1,8
 756.9 1184 756.9 1184 923.4 1184 c 0,9,10
 995.4 1184 995.4 1184 1065.15 1165.5 c 128,-1,11
 1134.9 1147 1134.9 1147 1213.2 1108 c 1,12,-1
 1213.2 895 l 1,13,-1
 1137.6 895 l 1,14,15
 1122.3 1004 1122.3 1004 1071 1055 c 128,-1,16
 1019.7 1106 1019.7 1106 925.2 1106 c 0,17,18
 818.1 1106 818.1 1106 763.65 1014.5 c 128,-1,19
 709.2 923 709.2 923 709.2 741 c 0,20,21
 709.2 560 709.2 560 763.2 469.5 c 128,-1,22
 817.2 379 817.2 379 923.4 379 c 0,23,24
 1010.7 379 1010.7 379 1061.55 426.5 c 128,-1,25
 1112.4 474 1112.4 474 1131.3 573 c 1,26,-1
 1238.4 573 l 1,0,1
921.6 1485 m 0,27,28
 1058.4 1485 1058.4 1485 1176.75 1430 c 128,-1,29
 1295.1 1375 1295.1 1375 1393.2 1266 c 0,30,31
 1491.3 1157 1491.3 1157 1539.9 1026 c 128,-1,32
 1588.5 895 1588.5 895 1588.5 741 c 0,33,34
 1588.5 589 1588.5 589 1539.9 458.5 c 128,-1,35
 1491.3 328 1491.3 328 1393.2 219 c 0,36,37
 1295.1 110 1295.1 110 1176.75 55 c 128,-1,38
 1058.4 0 1058.4 0 921.6 0 c 0,39,40
 784.8 0 784.8 0 666.45 55 c 128,-1,41
 548.1 110 548.1 110 450 219 c 0,42,43
 351.9 328 351.9 328 303.3 458.5 c 128,-1,44
 254.7 589 254.7 589 254.7 741 c 0,45,46
 254.7 895 254.7 895 303.3 1026 c 128,-1,47
 351.9 1157 351.9 1157 450 1266 c 0,48,49
 548.1 1375 548.1 1375 666.45 1430 c 128,-1,50
 784.8 1485 784.8 1485 921.6 1485 c 0,27,28
921.6 1382 m 0,51,52
 803.7 1382 803.7 1382 702 1335 c 128,-1,53
 600.3 1288 600.3 1288 515.7 1194 c 0,54,55
 432 1101 432 1101 389.25 986.5 c 128,-1,56
 346.5 872 346.5 872 346.5 741 c 0,57,58
 346.5 611 346.5 611 389.25 498 c 128,-1,59
 432 385 432 385 515.7 291 c 0,60,61
 600.3 197 600.3 197 702 149.5 c 128,-1,62
 803.7 102 803.7 102 921.6 102 c 0,63,64
 1040.4 102 1040.4 102 1142.55 149.5 c 128,-1,65
 1244.7 197 1244.7 197 1329.3 291 c 0,66,67
 1413 384 1413 384 1454.85 497 c 128,-1,68
 1496.7 610 1496.7 610 1496.7 741 c 0,69,70
 1496.7 874 1496.7 874 1454.4 987.5 c 128,-1,71
 1412.1 1101 1412.1 1101 1329.3 1194 c 0,72,73
 1244.7 1288 1244.7 1288 1142.55 1335 c 128,-1,74
 1040.4 1382 1040.4 1382 921.6 1382 c 0,51,52
EndSplineSet
EndChar
StartChar: ordfeminine
Encoding: 170 170 170
Width: 875
Flags: W
LayerCount: 2
Fore
SplineSet
551.502 756 m 17,0,-1
 582.642 934 l 1,1,2
 528.669 857 528.669 857 470.295 813.4 c 0,3,4
 411.417 769.74 411.417 769.74 345.402 756 c 0,5,6
 316.296 749.94 316.296 749.94 290.718 749.94 c 0,7,8
 205.911 749.94 205.911 749.94 159.867 816.53 c 0,9,10
 119.493 874.91 119.493 874.91 119.493 969.29 c 0,11,12
 119.493 1015.04 119.493 1015.04 128.979 1069.25 c 0,13,14
 158.031 1235.3 158.031 1235.3 253.962 1354.41 c 0,15,16
 349.713 1472.5 349.713 1472.5 475.326 1498.64 c 0,17,18
 501.039 1503.99 501.039 1503.99 523.944 1503.99 c 0,19,20
 559.827 1503.99 559.827 1503.99 588.807 1490.85 c 0,21,22
 636.642 1469.13 636.642 1469.13 666.504 1409.65 c 1,23,-1
 680.607 1494 l 1,24,-1
 794.007 1494 l 1,25,-1
 680.301 844 l 1,26,-1
 795.501 844 l 9,27,-1
 780.102 756 l 25,28,-1
 551.502 756 l 17,0,-1
616.59 1129.5 m 2,29,-1
 631.737 1216.09 l 2,30,31
 637.317 1247.96 637.317 1247.96 637.317 1275.09 c 0,32,33
 637.317 1335.56 637.317 1335.56 609.624 1372.48 c 0,34,35
 579.924 1413.15 579.924 1413.15 525.357 1413.15 c 0,36,37
 507.906 1413.15 507.906 1413.15 487.908 1408.99 c 0,38,39
 400.806 1390.86 400.806 1390.86 340.479 1308.61 c 0,40,41
 279.234 1226.17 279.234 1226.17 256.419 1095.78 c 0,42,43
 247.455 1044.51 247.455 1044.51 247.455 1003.77 c 0,44,45
 247.455 940.09 247.455 940.09 269.37 902.15 c 0,46,47
 297.198 853.97 297.198 853.97 355.716 853.97 c 0,48,49
 372.762 853.97 372.762 853.97 392.409 858.06 c 0,50,51
 474.012 875.04 474.012 875.04 536.76 950.92 c 0,52,53
 598.59 1026.61 598.59 1026.61 616.59 1129.5 c 2,29,-1
82.8359 639 m 1,54,-1
 711.036 639 l 1,55,-1
 692.838 535 l 1,56,-1
 64.6377 535 l 1,57,-1
 82.8359 639 l 1,54,-1
EndSplineSet
EndChar
StartChar: guillemotleft
Encoding: 171 171 171
Width: 1127
Flags: W
LayerCount: 2
Fore
SplineSet
1035.2 1059 m 1,0,-1
 1015.08 944 l 1,1,-1
 687.6 600 l 1,2,-1
 894.72 256 l 1,3,-1
 874.602 141 l 1,4,-1
 525.627 559 l 1,5,-1
 539.973 641 l 1,6,-1
 1035.2 1059 l 1,0,-1
644.599 1059 m 1,7,-1
 624.48 944 l 1,8,-1
 297 600 l 1,9,-1
 504.12 256 l 1,10,-1
 484.001 141 l 1,11,-1
 135.027 559 l 1,12,-1
 149.373 641 l 1,13,-1
 644.599 1059 l 1,7,-1
EndSplineSet
EndChar
StartChar: logicalnot
Encoding: 172 172 172
Width: 1544
Flags: W
LayerCount: 2
Fore
SplineSet
195.3 862 m 1,0,-1
 1349.1 862 l 1,1,-1
 1349.1 287 l 1,2,-1
 1205.1 287 l 1,3,-1
 1205.1 700 l 1,4,-1
 195.3 700 l 1,5,-1
 195.3 862 l 1,0,-1
EndSplineSet
EndChar
StartChar: sfthyphen
Encoding: 173 173 173
Width: 622
Flags: W
LayerCount: 2
Fore
SplineSet
94.6455 627 m 1,0,-1
 555.445 627 l 1,1,-1
 528.154 471 l 1,2,-1
 67.3545 471 l 1,3,-1
 94.6455 627 l 1,0,-1
EndSplineSet
EndChar
StartChar: registered
Encoding: 174 174 174
Width: 1843
Flags: W
LayerCount: 2
Fore
SplineSet
805.5 791 m 1,0,-1
 918 791 l 2,1,2
 992.7 791 992.7 791 1030.05 829 c 128,-1,3
 1067.4 867 1067.4 867 1067.4 942 c 0,4,5
 1067.4 1016 1067.4 1016 1029.6 1054 c 128,-1,6
 991.8 1092 991.8 1092 918 1092 c 2,7,-1
 805.5 1092 l 1,8,-1
 805.5 791 l 1,0,-1
1026.9 754 m 1,9,10
 1064.7 740 1064.7 740 1091.25 714.5 c 128,-1,11
 1117.8 689 1117.8 689 1135.8 649 c 2,12,-1
 1240.2 420 l 1,13,-1
 1308.6 420 l 1,14,-1
 1308.6 352 l 1,15,-1
 1137.6 352 l 1,16,-1
 1019.7 606 l 1,17,18
 988.2 676 988.2 676 960.3 699.5 c 128,-1,19
 932.4 723 932.4 723 888.3 723 c 2,20,-1
 805.5 723 l 1,21,-1
 805.5 420 l 1,22,-1
 881.1 420 l 1,23,-1
 881.1 352 l 1,24,-1
 595.8 352 l 1,25,-1
 595.8 420 l 1,26,-1
 670.5 420 l 1,27,-1
 670.5 1092 l 1,28,-1
 595.8 1092 l 1,29,-1
 595.8 1159 l 1,30,-1
 969.3 1159 l 2,31,32
 1084.5 1159 1084.5 1159 1143 1103 c 128,-1,33
 1201.5 1047 1201.5 1047 1201.5 938 c 0,34,35
 1201.5 855 1201.5 855 1158.3 809.5 c 128,-1,36
 1115.1 764 1115.1 764 1026.9 754 c 1,9,10
921.6 1382 m 0,37,38
 803.7 1382 803.7 1382 702 1335 c 128,-1,39
 600.3 1288 600.3 1288 515.7 1194 c 0,40,41
 432 1101 432 1101 389.25 986.5 c 128,-1,42
 346.5 872 346.5 872 346.5 741 c 0,43,44
 346.5 611 346.5 611 389.25 498 c 128,-1,45
 432 385 432 385 515.7 291 c 0,46,47
 600.3 197 600.3 197 702 149.5 c 128,-1,48
 803.7 102 803.7 102 921.6 102 c 0,49,50
 1040.4 102 1040.4 102 1142.55 149.5 c 128,-1,51
 1244.7 197 1244.7 197 1329.3 291 c 0,52,53
 1413 384 1413 384 1454.85 497 c 128,-1,54
 1496.7 610 1496.7 610 1496.7 741 c 0,55,56
 1496.7 874 1496.7 874 1454.4 987.5 c 128,-1,57
 1412.1 1101 1412.1 1101 1329.3 1194 c 0,58,59
 1244.7 1288 1244.7 1288 1142.55 1335 c 128,-1,60
 1040.4 1382 1040.4 1382 921.6 1382 c 0,37,38
921.6 1485 m 0,61,62
 1058.4 1485 1058.4 1485 1176.75 1430 c 128,-1,63
 1295.1 1375 1295.1 1375 1393.2 1266 c 0,64,65
 1491.3 1157 1491.3 1157 1539.9 1026 c 128,-1,66
 1588.5 895 1588.5 895 1588.5 741 c 0,67,68
 1588.5 589 1588.5 589 1539.9 458.5 c 128,-1,69
 1491.3 328 1491.3 328 1393.2 219 c 0,70,71
 1295.1 110 1295.1 110 1176.75 55 c 128,-1,72
 1058.4 0 1058.4 0 921.6 0 c 0,73,74
 784.8 0 784.8 0 666.45 55 c 128,-1,75
 548.1 110 548.1 110 450 219 c 0,76,77
 351.9 328 351.9 328 303.3 458.5 c 128,-1,78
 254.7 589 254.7 589 254.7 741 c 0,79,80
 254.7 895 254.7 895 303.3 1026 c 128,-1,81
 351.9 1157 351.9 1157 450 1266 c 0,82,83
 548.1 1375 548.1 1375 666.45 1430 c 128,-1,84
 784.8 1485 784.8 1485 921.6 1485 c 0,61,62
EndSplineSet
EndChar
StartChar: macron
Encoding: 175 175 175
Width: 921
Flags: W
LayerCount: 2
Fore
SplineSet
356.4 1526 m 1,0,-1
 894.6 1526 l 1,1,-1
 869.4 1378 l 1,2,-1
 331.2 1378 l 1,3,-1
 356.4 1526 l 1,0,-1
EndSplineSet
LCarets2: 1 0 
EndChar
StartChar: degree
Encoding: 176 176 176
Width: 921
Flags: W
LayerCount: 2
Fore
SplineSet
460.8 1382 m 0,0,1
 392.4 1382 392.4 1382 345.6 1329.5 c 128,-1,2
 298.8 1277 298.8 1277 298.8 1200 c 0,3,4
 298.8 1124 298.8 1124 345.15 1073 c 128,-1,5
 391.5 1022 391.5 1022 460.8 1022 c 0,6,7
 529.2 1022 529.2 1022 576 1073.5 c 128,-1,8
 622.8 1125 622.8 1125 622.8 1200 c 128,-1,9
 622.8 1275 622.8 1275 575.1 1328.5 c 128,-1,10
 527.4 1382 527.4 1382 460.8 1382 c 0,0,1
460.8 1520 m 0,11,12
 518.4 1520 518.4 1520 571.5 1495.5 c 128,-1,13
 624.6 1471 624.6 1471 663.3 1425 c 1,14,15
 704.7 1380 704.7 1380 725.4 1323 c 128,-1,16
 746.1 1266 746.1 1266 746.1 1200 c 0,17,18
 746.1 1068 746.1 1068 662.85 976.5 c 128,-1,19
 579.6 885 579.6 885 459 885 c 0,20,21
 337.5 885 337.5 885 256.5 975 c 128,-1,22
 175.5 1065 175.5 1065 175.5 1200 c 0,23,24
 175.5 1334 175.5 1334 258.3 1427 c 128,-1,25
 341.1 1520 341.1 1520 460.8 1520 c 0,11,12
EndSplineSet
EndChar
StartChar: plusminus
Encoding: 177 177 177
Width: 1544
Flags: W
LayerCount: 2
Fore
SplineSet
844.2 1284 m 1,0,-1
 844.2 893 l 1,1,-1
 1349.1 893 l 1,2,-1
 1349.1 731 l 1,3,-1
 844.2 731 l 1,4,-1
 844.2 340 l 1,5,-1
 700.2 340 l 1,6,-1
 700.2 731 l 1,7,-1
 195.3 731 l 1,8,-1
 195.3 893 l 1,9,-1
 700.2 893 l 1,10,-1
 700.2 1284 l 1,11,-1
 844.2 1284 l 1,0,-1
195.3 160 m 1,12,-1
 1349.1 160 l 1,13,-1
 1349.1 0 l 1,14,-1
 195.3 0 l 1,15,-1
 195.3 160 l 1,12,-1
EndSplineSet
EndChar
StartChar: twosuperior
Encoding: 178 178 178
Width: 738
Flags: W
LayerCount: 2
Fore
SplineSet
188.339 1296 m 1,0,-1
 125.339 1296 l 1,1,-1
 152.979 1454 l 1,2,3
 217.978 1486 217.978 1486 283.952 1503 c 128,-1,4
 349.926 1520 349.926 1520 412.025 1520 c 0,5,6
 536.226 1520 536.226 1520 601.629 1454 c 128,-1,7
 667.032 1388 667.032 1388 648.84 1284 c 0,8,9
 627.496 1162 627.496 1162 422.456 988 c 2,10,-1
 402.382 971 l 1,11,-1
 150.57 756 l 1,12,-1
 497.07 756 l 1,13,-1
 515.964 864 l 1,14,-1
 582.563 864 l 1,15,-1
 548.274 668 l 1,16,-1
 6.47461 668 l 1,17,-1
 19.5957 743 l 1,18,-1
 320.531 997 l 2,19,20
 411.4 1074 411.4 1074 455.373 1135 c 128,-1,21
 499.345 1196 499.345 1196 510.891 1262 c 0,22,23
 525.76 1347 525.76 1347 490.77 1396.5 c 128,-1,24
 455.779 1446 455.779 1446 380.18 1446 c 0,25,26
 309.979 1446 309.979 1446 261.031 1408 c 128,-1,27
 212.084 1370 212.084 1370 188.339 1296 c 1,0,-1
EndSplineSet
EndChar
StartChar: threesuperior
Encoding: 179 179 179
Width: 738
Flags: W
LayerCount: 2
Fore
SplineSet
179.24 1468 m 1,0,1
 249.489 1494 249.489 1494 312.063 1507 c 128,-1,2
 374.638 1520 374.638 1520 427.737 1520 c 0,3,4
 551.938 1520 551.938 1520 609.541 1466 c 128,-1,5
 667.144 1412 667.144 1412 649.824 1313 c 0,6,7
 637.229 1241 637.229 1241 580.781 1191 c 128,-1,8
 524.335 1141 524.335 1141 435.86 1124 c 1,9,10
 540.161 1108 540.161 1108 584.201 1048.5 c 128,-1,11
 628.243 989 628.243 989 610.749 889 c 0,12,13
 590.805 775 590.805 775 501.385 714 c 128,-1,14
 411.962 653 411.962 653 265.263 653 c 0,15,16
 200.462 653 200.462 653 140.361 667 c 128,-1,17
 80.2607 681 80.2607 681 23.959 709 c 1,18,-1
 53.6992 879 l 1,19,-1
 116.524 878 l 1,20,21
 108.079 804 108.079 804 145.443 765.5 c 128,-1,22
 182.808 727 182.808 727 265.608 727 c 0,23,24
 350.208 727 350.208 727 403.806 771 c 128,-1,25
 457.403 815 457.403 815 471.748 897 c 0,26,27
 488.018 990 488.018 990 450.429 1037.5 c 128,-1,28
 412.837 1085 412.837 1085 321.938 1085 c 2,29,-1
 274.237 1085 l 1,30,-1
 287.184 1159 l 1,31,-1
 311.483 1159 l 2,32,33
 398.783 1159 398.783 1159 449.806 1196 c 128,-1,34
 500.829 1233 500.829 1233 513.775 1307 c 0,35,36
 525.496 1374 525.496 1374 495.344 1410 c 128,-1,37
 465.192 1446 465.192 1446 396.792 1446 c 0,38,39
 322.992 1446 322.992 1446 278.243 1414 c 128,-1,40
 233.495 1382 233.495 1382 215.824 1317 c 1,41,-1
 152.824 1317 l 1,42,-1
 179.24 1468 l 1,0,1
EndSplineSet
EndChar
StartChar: acute
Encoding: 180 180 180
Width: 921
Flags: W
LayerCount: 2
Fore
SplineSet
772.2 1638 m 1,0,-1
 951.3 1638 l 1,1,-1
 578.7 1262 l 1,2,-1
 473.4 1262 l 1,3,-1
 772.2 1638 l 1,0,-1
EndSplineSet
LCarets2: 1 0 
EndChar
StartChar: mu
Encoding: 181 181 181
Width: 1197
Flags: W
LayerCount: 2
Fore
SplineSet
939.348 1063 m 1,0,-1
 1104.95 1063 l 1,1,-1
 937.179 104 l 1,2,-1
 1093.78 104 l 1,3,-1
 1075.58 0 l 1,4,-1
 753.381 0 l 1,5,-1
 786.267 188 l 1,6,7
 720.927 82 720.927 82 645.066 26.5 c 0,8,9
 569.205 -29 569.205 -29 488.205 -29 c 0,10,11
 436.905 -29 436.905 -29 397.755 -11 c 0,12,13
 358.605 7 358.605 7 329.805 43 c 1,14,-1
 247.752 -426 l 1,15,-1
 82.1523 -426 l 1,16,-1
 323.928 956 l 1,17,-1
 174.528 956 l 1,18,-1
 193.248 1063 l 1,19,-1
 508.248 1063 l 1,20,-1
 399.951 444 l 2,21,22
 382.113 341.99 382.113 341.99 382.113 273.71 c 0,23,24
 382.113 212.14 382.113 212.14 396.621 178 c 0,25,26
 427.221 106 427.221 106 536.121 106 c 0,27,28
 651.321 106 651.321 106 728.073 200 c 0,29,30
 804.816 294 804.816 294 836.127 473 c 2,31,-1
 939.348 1063 l 1,0,-1
EndSplineSet
EndChar
StartChar: paragraph
Encoding: 182 182 182
Width: 1172
Flags: W
LayerCount: 2
Fore
SplineSet
717.525 1493 m 2,0,-1
 1201.72 1493 l 1,1,-1
 1183 1386 l 1,2,-1
 1076.8 1386 l 1,3,-1
 799.874 -197 l 1,4,-1
 703.574 -197 l 1,5,-1
 980.505 1386 l 1,6,-1
 772.607 1386 l 1,7,-1
 495.674 -197 l 1,8,-1
 399.374 -197 l 1,9,-1
 547.375 649 l 1,10,11
 356.849 666 356.849 666 270.43 776.5 c 128,-1,12
 184.012 887 184.012 887 216.201 1071 c 0,13,14
 249.439 1261 249.439 1261 386.732 1377 c 128,-1,15
 524.025 1493 524.025 1493 717.525 1493 c 2,0,-1
EndSplineSet
EndChar
StartChar: periodcentered
Encoding: 183 183 183
Width: 585
Flags: W
LayerCount: 2
Fore
SplineSet
171 711 m 0,0,1
 180.798 767 180.798 767 222.182 805.5 c 128,-1,2
 263.567 844 263.567 844 314.867 844 c 0,3,4
 364.367 844 364.367 844 392.644 805 c 128,-1,5
 420.922 766 420.922 766 411.3 711 c 0,6,7
 401.503 655 401.503 655 359.668 616.5 c 128,-1,8
 317.832 578 317.832 578 268.332 578 c 0,9,10
 217.032 578 217.032 578 189.03 616 c 128,-1,11
 161.028 654 161.028 654 171 711 c 0,0,1
EndSplineSet
EndChar
StartChar: cedilla
Encoding: 184 184 184
Width: 921
Flags: W
LayerCount: 2
Fore
SplineSet
554.751 0 m 1,0,1
 601.155 -64 601.155 -64 619.708 -120 c 128,-1,2
 638.261 -176 638.261 -176 629.688 -225 c 0,3,4
 615.519 -306 615.519 -306 551.034 -350.5 c 128,-1,5
 486.549 -395 486.549 -395 385.749 -395 c 0,6,7
 347.949 -395 347.949 -395 309.398 -389 c 128,-1,8
 270.848 -383 270.848 -383 231.548 -371 c 1,9,-1
 254.465 -240 l 1,10,11
 288.392 -257 288.392 -257 322.454 -265.5 c 128,-1,12
 356.517 -274 356.517 -274 388.017 -274 c 0,13,14
 439.317 -274 439.317 -274 473.653 -247.5 c 128,-1,15
 507.989 -221 507.989 -221 515.861 -176 c 0,16,17
 520.76 -148 520.76 -148 508.657 -104 c 128,-1,18
 496.556 -60 496.556 -60 467.451 0 c 1,19,-1
 554.751 0 l 1,0,1
EndSplineSet
EndChar
StartChar: onesuperior
Encoding: 185 185 185
Width: 738
Flags: W
LayerCount: 2
Fore
SplineSet
85.3623 668 m 1,0,-1
 100.057 752 l 1,1,-1
 254.856 752 l 1,2,-1
 365.77 1386 l 1,3,-1
 166.326 1280 l 1,4,-1
 182.771 1374 l 1,5,-1
 421.338 1503 l 1,6,-1
 513.138 1503 l 1,7,-1
 381.757 752 l 1,8,-1
 537.457 752 l 1,9,-1
 522.763 668 l 1,10,-1
 85.3623 668 l 1,0,-1
EndSplineSet
EndChar
StartChar: ordmasculine
Encoding: 186 186 186
Width: 866
Flags: W
LayerCount: 2
Fore
SplineSet
395.375 813 m 0,0,1
 490.775 813 490.775 813 552.833 892.5 c 128,-1,2
 614.891 972 614.891 972 642.182 1128 c 0,3,4
 669.473 1284 669.473 1284 634.868 1364 c 128,-1,5
 600.263 1444 600.263 1444 505.763 1444 c 0,6,7
 412.163 1444 412.163 1444 348.943 1363 c 128,-1,8
 285.723 1282 285.723 1282 258.781 1128 c 0,9,10
 231.665 973 231.665 973 266.27 893 c 128,-1,11
 300.875 813 300.875 813 395.375 813 c 0,0,1
382.079 737 m 0,12,13
 224.579 737 224.579 737 147.986 844.5 c 128,-1,14
 71.3916 952 71.3916 952 102.182 1128 c 0,15,16
 133.146 1305 133.146 1305 247.353 1412.5 c 128,-1,17
 361.559 1520 361.559 1520 519.059 1520 c 0,18,19
 676.559 1520 676.559 1520 753.152 1412.5 c 128,-1,20
 829.746 1305 829.746 1305 798.781 1128 c 0,21,22
 767.817 951 767.817 951 654.147 844 c 128,-1,23
 540.479 737 540.479 737 382.079 737 c 0,12,13
55.335 639 m 1,24,-1
 674.535 639 l 1,25,-1
 656.341 535 l 1,26,-1
 37.1406 535 l 1,27,-1
 55.335 639 l 1,24,-1
EndSplineSet
EndChar
StartChar: guillemotright
Encoding: 187 187 187
Width: 1127
Flags: W
LayerCount: 2
Fore
SplineSet
644.599 1059 m 1,0,-1
 993.573 641 l 1,1,-1
 979.227 559 l 1,2,-1
 484.001 141 l 1,3,-1
 504.12 256 l 1,4,-1
 831.6 600 l 1,5,-1
 624.48 944 l 1,6,-1
 644.599 1059 l 1,0,-1
253.999 1059 m 1,7,-1
 602.973 641 l 1,8,-1
 588.627 559 l 1,9,-1
 93.4014 141 l 1,10,-1
 113.52 256 l 1,11,-1
 440.1 600 l 1,12,-1
 233.88 944 l 1,13,-1
 253.999 1059 l 1,7,-1
EndSplineSet
EndChar
StartChar: questiondown
Encoding: 191 191 191
Width: 988
Flags: W
LayerCount: 2
Fore
SplineSet
812.426 1389 m 0,0,1
 802.629 1333 802.629 1333 761.156 1294 c 128,-1,2
 719.684 1255 719.684 1255 669.283 1255 c 0,3,4
 619.783 1255 619.783 1255 591.506 1294 c 128,-1,5
 563.229 1333 563.229 1333 573.025 1389 c 0,6,7
 582.647 1444 582.647 1444 624.57 1483 c 128,-1,8
 666.493 1522 666.493 1522 715.993 1522 c 0,9,10
 767.293 1522 767.293 1522 794.757 1483.5 c 128,-1,11
 822.222 1445 822.222 1445 812.426 1389 c 0,0,1
779.877 66 m 1,12,13
 676.255 19 676.255 19 586.73 -4 c 128,-1,14
 497.207 -27 497.207 -27 420.707 -27 c 0,15,16
 221.807 -27 221.807 -27 124.426 80 c 128,-1,17
 27.0449 187 27.0449 187 58.8838 369 c 0,18,19
 91.4238 555 91.4238 555 211.967 673 c 128,-1,20
 332.51 791 332.51 791 542.132 842 c 1,21,-1
 586.566 1096 l 1,22,-1
 697.267 1096 l 1,23,-1
 639.886 768 l 1,24,25
 473.063 725 473.063 725 374.395 624 c 128,-1,26
 275.725 523 275.725 523 248.435 367 c 0,27,28
 224.467 230 224.467 230 276.797 151 c 128,-1,29
 329.126 72 329.126 72 442.526 72 c 0,30,31
 544.227 72 544.227 72 621.385 137.5 c 128,-1,32
 698.544 203 698.544 203 738.961 326 c 1,33,-1
 825.361 326 l 1,34,-1
 779.877 66 l 1,12,13
EndSplineSet
EndChar
StartChar: Aring
Encoding: 197 197 197
Width: 1331
Flags: W
LayerCount: 2
Fore
SplineSet
916.47 1626 m 0,0,1
 927.495 1689 927.495 1689 895.23 1733.5 c 128,-1,2
 862.965 1778 862.965 1778 806.265 1778 c 0,3,4
 748.665 1778 748.665 1778 701.905 1734.5 c 128,-1,5
 655.145 1691 655.145 1691 643.773 1626 c 0,6,7
 632.752 1563 632.752 1563 664.204 1519 c 128,-1,8
 695.657 1475 695.657 1475 753.257 1475 c 0,9,10
 809.957 1475 809.957 1475 857.704 1519 c 128,-1,11
 905.454 1563 905.454 1563 916.47 1626 c 0,0,1
297.361 541 m 1,12,-1
 788.761 541 l 1,13,-1
 668.17 1251 l 1,14,-1
 297.361 541 l 1,12,-1
-177.083 0 m 1,15,-1
 -158.539 106 l 1,16,-1
 -40.6387 106 l 1,17,-1
 623.037 1384 l 1,18,19
 564.71 1421 564.71 1421 541.632 1482 c 128,-1,20
 518.553 1543 518.553 1543 533.073 1626 c 0,21,22
 553.017 1740 553.017 1740 639.1 1820.5 c 128,-1,23
 725.183 1901 725.183 1901 827.783 1901 c 0,24,25
 930.384 1901 930.384 1901 988.749 1820.5 c 128,-1,26
 1047.11 1740 1047.11 1740 1027.17 1626 c 0,27,28
 1013.17 1546 1013.17 1546 966.969 1482.5 c 128,-1,29
 920.763 1419 920.763 1419 849.838 1384 c 1,30,-1
 1069.06 106 l 1,31,-1
 1201.37 106 l 1,32,-1
 1182.82 0 l 1,33,-1
 694.117 0 l 1,34,-1
 712.661 106 l 1,35,-1
 862.062 106 l 1,36,-1
 806.942 434 l 1,37,-1
 241.743 434 l 1,38,-1
 71.8613 106 l 1,39,-1
 219.461 106 l 1,40,-1
 200.917 0 l 1,41,-1
 -177.083 0 l 1,15,-1
EndSplineSet
EndChar
StartChar: AE
Encoding: 198 198 198
Width: 1845
Flags: W
AnchorPoint: "below" 950.31 0 basechar 0
AnchorPoint: "above" 1206.59 1465 basechar 0
LayerCount: 2
Fore
SplineSet
347.449 541 m 1,0,-1
 787.55 541 l 1,1,-1
 935.379 1386 l 1,2,-1
 845.376 1386 l 1,3,-1
 347.449 541 l 1,0,-1
521.906 0 m 1,4,-1
 540.449 106 l 1,5,-1
 711.449 106 l 1,6,-1
 768.83 434 l 1,7,-1
 284.631 434 l 1,8,-1
 90.4492 106 l 1,9,-1
 238.049 106 l 1,10,-1
 219.507 0 l 1,11,-1
 -162.094 0 l 1,12,-1
 -143.551 106 l 1,13,-1
 -25.6514 106 l 1,14,-1
 729.276 1386 l 1,15,-1
 535.776 1386 l 1,16,-1
 554.493 1493 l 1,17,-1
 1864.89 1493 l 1,18,-1
 1806.81 1161 l 1,19,-1
 1696.11 1161 l 1,20,-1
 1732.68 1370 l 1,21,-1
 1113.48 1370 l 1,22,-1
 1026.01 870 l 1,23,-1
 1468.81 870 l 1,24,-1
 1501.52 1057 l 1,25,-1
 1612.22 1057 l 1,26,-1
 1525.45 561 l 1,27,-1
 1414.75 561 l 1,28,-1
 1447.46 748 l 1,29,-1
 1004.66 748 l 1,30,-1
 895.323 123 l 1,31,-1
 1529.82 123 l 1,32,-1
 1566.39 332 l 1,33,-1
 1677.09 332 l 1,34,-1
 1619.01 0 l 1,35,-1
 521.906 0 l 1,4,-1
EndSplineSet
EndChar
StartChar: Eth
Encoding: 208 208 208
Width: 1487
Flags: W
LayerCount: 2
Fore
SplineSet
350.549 106 m 1,0,-1
 519.749 106 l 2,1,2
 781.649 106 781.649 106 951.093 272 c 128,-1,3
 1120.53 438 1120.53 438 1174.76 748 c 0,4,5
 1229 1058 1229 1058 1117.74 1222 c 128,-1,6
 1006.48 1386 1006.48 1386 743.676 1386 c 2,7,-1
 574.477 1386 l 1,8,-1
 479.657 844 l 1,9,-1
 782.057 844 l 1,10,-1
 760.188 719 l 1,11,-1
 457.789 719 l 1,12,-1
 350.549 106 l 1,0,-1
-19.8945 0 m 1,13,-1
 -1.35059 106 l 1,14,-1
 169.649 106 l 1,15,-1
 276.889 719 l 1,16,-1
 96.8887 719 l 1,17,-1
 118.757 844 l 1,18,-1
 298.757 844 l 1,19,-1
 393.576 1386 l 1,20,-1
 222.576 1386 l 1,21,-1
 241.294 1493 l 1,22,-1
 775.894 1493 l 2,23,24
 1123.29 1493 1123.29 1493 1282.78 1296 c 128,-1,25
 1442.27 1099 1442.27 1099 1380.86 748 c 0,26,27
 1319.28 396 1319.28 396 1090.24 198 c 128,-1,28
 861.206 0 861.206 0 514.706 0 c 2,29,-1
 -19.8945 0 l 1,13,-1
EndSplineSet
EndChar
StartChar: multiply
Encoding: 215 215 215
Width: 1544
Flags: W
LayerCount: 2
Fore
SplineSet
1290.6 1104 m 1,0,-1
 873.9 641 l 1,1,-1
 1290.6 180 l 1,2,-1
 1187.1 68 l 1,3,-1
 772.2 528 l 1,4,-1
 357.3 68 l 1,5,-1
 254.7 180 l 1,6,-1
 668.7 641 l 1,7,-1
 254.7 1104 l 1,8,-1
 357.3 1217 l 1,9,-1
 772.2 756 l 1,10,-1
 1187.1 1217 l 1,11,-1
 1290.6 1104 l 1,0,-1
EndSplineSet
EndChar
StartChar: Oslash
Encoding: 216 216 216
Width: 1511
Flags: W
AnchorPoint: "below" 625.581 0 basechar 0
AnchorPoint: "above" 881.87 1465 basechar 0
LayerCount: 2
Fore
SplineSet
1178.76 1239 m 1,0,1
 1135.66 1327 1135.66 1327 1059.93 1370 c 128,-1,2
 984.195 1413 984.195 1413 872.6 1413 c 0,3,4
 651.199 1413 651.199 1413 509.222 1244.5 c 128,-1,5
 367.243 1076 367.243 1076 309.337 745 c 0,6,7
 288.52 626 288.52 626 286.037 529.5 c 128,-1,8
 283.556 433 283.556 433 299.985 352 c 1,9,-1
 1178.76 1239 l 1,0,1
330.891 256 m 1,10,11
 372.92 167 372.92 167 449.736 122.5 c 128,-1,12
 526.551 78 526.551 78 639.051 78 c 0,13,14
 859.551 78 859.551 78 1001.53 246.5 c 128,-1,15
 1143.5 415 1143.5 415 1201.24 745 c 0,16,17
 1221.71 862 1221.71 862 1224.09 960.5 c 128,-1,18
 1226.47 1059 1226.47 1059 1210.21 1141 c 1,19,-1
 330.891 256 l 1,10,11
1344.53 1276 m 1,20,21
 1403.94 1168 1403.94 1168 1420.08 1036.5 c 128,-1,22
 1436.23 905 1436.23 905 1408.24 745 c 0,23,24
 1347.88 400 1347.88 400 1129.91 185.5 c 128,-1,25
 911.934 -29 911.934 -29 620.332 -29 c 0,26,27
 493.433 -29 493.433 -29 393.854 14 c 128,-1,28
 294.277 57 294.277 57 218.422 143 c 1,29,-1
 19.6338 -57 l 1,30,-1
 -38.4951 12 l 1,31,-1
 166.019 219 l 1,32,33
 106.087 324 106.087 324 90.667 454.5 c 128,-1,34
 75.2471 585 75.2471 585 103.237 745 c 0,35,36
 163.768 1091 163.768 1091 382.192 1305.5 c 128,-1,37
 600.618 1520 600.618 1520 891.318 1520 c 0,38,39
 1018.21 1520 1018.21 1520 1118.78 1477.5 c 128,-1,40
 1219.35 1435 1219.35 1435 1291.23 1352 c 1,41,-1
 1486.06 1550 l 1,42,-1
 1545.64 1479 l 1,43,-1
 1344.53 1276 l 1,20,21
EndSplineSet
EndChar
StartChar: Thorn
Encoding: 222 222 222
Width: 1245
Flags: W
LayerCount: 2
Fore
SplineSet
400.73 434 m 1,0,-1
 638.33 434 l 2,1,2
 772.431 434 772.431 434 856.713 514.5 c 128,-1,3
 940.995 595 940.995 595 967.761 748 c 0,4,5
 994.355 900 994.355 900 938.241 980.5 c 128,-1,6
 882.12 1061 882.12 1061 748.02 1061 c 2,7,-1
 510.42 1061 l 1,8,-1
 400.73 434 l 1,0,-1
-28.8945 0 m 1,9,-1
 -10.3506 106 l 1,10,-1
 160.649 106 l 1,11,-1
 384.576 1386 l 1,12,-1
 213.576 1386 l 1,13,-1
 232.294 1493 l 1,14,-1
 793.894 1493 l 1,15,-1
 775.176 1386 l 1,16,-1
 567.276 1386 l 1,17,-1
 528.963 1167 l 1,18,-1
 810.663 1167 l 2,19,20
 1012.27 1167 1012.27 1167 1110.3 1053.5 c 128,-1,21
 1208.35 940 1208.35 940 1174.76 748 c 0,22,23
 1140.82 554 1140.82 554 1002.53 440 c 128,-1,24
 864.236 326 864.236 326 663.537 326 c 2,25,-1
 381.837 326 l 1,26,-1
 343.349 106 l 1,27,-1
 551.249 106 l 1,28,-1
 532.706 0 l 1,29,-1
 -28.8945 0 l 1,9,-1
EndSplineSet
EndChar
StartChar: germandbls
Encoding: 223 223 223
Width: 1231
Flags: W
LayerCount: 2
Fore
SplineSet
924.3 1210 m 1,0,1
 937.8 1329 937.8 1329 886.5 1393.5 c 128,-1,2
 835.2 1458 835.2 1458 728.1 1458 c 0,3,4
 609.3 1458 609.3 1458 543.15 1393.5 c 128,-1,5
 477 1329 477 1329 452.7 1190 c 2,14,-1
 233.1 -66 l 2,15,16
 201.6 -244 201.6 -244 102.6 -335 c 128,-1,17
 3.59961 -426 3.59961 -426 -157.5 -426 c 1,18,-1
 -146.7 -328 l 1,19,20
 -52.2002 -328 -52.2002 -328 -6.2998 -272 c 0,21,22
 41.4004 -212 41.4004 -212 67.5 -66 c 2,23,-1
 286.2 1186 l 2,24,-1
 316.8 1362 316.8 1362 436.95 1459 c 128,-1,13
 557.1 1556 557.1 1556 745.2 1556 c 0,14,15
 936.9 1556 936.9 1556 1019.25 1452 c 128,-1,16
 1101.6 1348 1101.6 1348 1075.5 1137 c 1,17,-1
 1055.7 1137 l 2,18,19
 925.2 1137 925.2 1137 840.6 1083 c 128,-1,20
 756 1029 756 1029 739.8 936 c 0,21,22
 729.9 884 729.9 884 747.45 845.5 c 128,-1,23
 765 807 765 807 822.6 760 c 1,24,-1
 893.7 705 l 1,25,26
 1015.2 606 1015.2 606 1053.9 521 c 128,-1,27
 1092.6 436 1092.6 436 1072.8 322 c 0,28,29
 1045.8 167 1045.8 167 924.75 69 c 128,-1,30
 803.7 -29 803.7 -29 637.2 -29 c 0,31,32
 560.7 -29 560.7 -29 488.25 -10.5 c 128,-1,33
 415.8 8 415.8 8 351 43 c 1,34,-1
 391.5 276 l 1,35,-1
 489.6 276 l 1,36,37
 476.1 175 476.1 175 516.6 122.5 c 128,-1,38
 557.1 70 557.1 70 648.9 70 c 0,39,40
 748.8 70 748.8 70 816.75 130.5 c 128,-1,41
 884.7 191 884.7 191 902.7 295 c 0,42,43
 917.1 379 917.1 379 891.9 438 c 0,44,45
 865.8 495 865.8 495 773.1 569 c 2,45,-1
 705.6 623 l 2,46,47
 622.8 689 622.8 689 594 752 c 0,48,49
 565.2 817 565.2 817 579.6 899 c 0,49,50
 601.2 1021 601.2 1021 691.65 1103 c 128,-1,51
 782.1 1185 782.1 1185 924.3 1210 c 1,0,1
EndSplineSet
EndChar
StartChar: ae
Encoding: 230 230 230
Width: 1732
Flags: W
AnchorPoint: "below" 720.704 0 basechar 0
AnchorPoint: "above" 910.881 1092 basechar 0
LayerCount: 2
Fore
SplineSet
1373.4 632 m 0,0,1
 1474.2 698 1474.2 698 1474.2 822 c 0,2,3
 1474.2 993 1474.2 993 1269.9 993 c 0,4,5
 1149.3 993 1149.3 993 1065.6 891 c 128,-1,6
 981.9 789 981.9 789 930.6 514 c 1,7,8
 1215.9 528 1215.9 528 1373.4 632 c 0,0,1
1075.5 -29 m 0,9,10
 861.3 -29 861.3 -29 765.9 167 c 1,11,12
 636.3 -29 636.3 -29 369.369 -29.1074 c 0,13,14
 362.7 -29 362.7 -29 356.4 -29 c 0,15,16
 198 -29 198 -29 117.9 90 c 0,17,18
 62.0996 174 62.0996 174 62.0996 294 c 0,19,20
 62.0996 345 62.0996 345 72 402 c 0,21,22
 133.2 755 133.2 755 354.6 937 c 0,23,24
 542.7 1092 542.7 1092 770.4 1092 c 0,25,26
 923.4 1092 923.4 1092 975.6 1063 c 1,27,-1
 958.5 966 l 1,28,29
 1101.6 1092 1101.6 1092 1297.8 1092 c 0,30,31
 1649.7 1092 1649.7 1092 1649.7 815 c 0,32,33
 1649.7 416 1649.7 416 911.7 408 c 1,34,35
 908.1 370 908.1 370 908.1 336 c 0,36,37
 908.1 242 908.1 242 938.7 180 c 0,38,39
 991.8 70 991.8 70 1134 70 c 0,40,41
 1238.4 70 1238.4 70 1289.7 105 c 0,42,43
 1381.5 168 1381.5 168 1403.1 249 c 1,44,-1
 1524.6 249 l 1,45,46
 1488.6 122 1488.6 122 1354.5 33 c 0,47,48
 1260.9 -29 1260.9 -29 1075.5 -29 c 0,9,10
248.4 415 m 0,49,50
 236.7 350 236.7 350 236.7 297 c 0,51,52
 236.7 86 236.7 86 423 86 c 0,53,54
 536.4 86 536.4 86 613.35 186.5 c 128,-1,55
 690.3 287 690.3 287 724.5 479 c 2,56,-1
 808.2 961 l 1,57,58
 808.2 990 808.2 990 736.2 990 c 0,59,60
 563.4 990 563.4 990 429.3 840 c 0,61,62
 296.1 689 296.1 689 248.4 415 c 0,49,50
EndSplineSet
AlternateSubs2: "'aalt' Access All Alternates" ae.alt
Substitution2: "'salt' Stylistic Alternatives" ae.alt
EndChar
StartChar: eth
Encoding: 240 240 240
Width: 1109
Flags: W
LayerCount: 2
Fore
SplineSet
767.679 928 m 1,0,1
 728.752 937 728.752 937 693.09 941.5 c 128,-1,2
 657.428 946 657.428 946 621.428 946 c 0,3,4
 465.728 946 465.728 946 372.759 839 c 128,-1,5
 279.789 732 279.789 732 240.603 508 c 0,6,7
 203.864 298 203.864 298 254.57 184 c 128,-1,8
 305.277 70 305.277 70 433.077 70 c 0,9,10
 562.678 70 562.678 70 652.459 184.5 c 128,-1,11
 742.239 299 742.239 299 779.502 512 c 0,12,13
 799.096 624 799.096 624 796.402 729.5 c 128,-1,14
 793.708 835 793.708 835 767.679 928 c 1,0,1
779.081 1307 m 1,15,16
 914.562 1140 914.562 1140 964.512 944.5 c 128,-1,17
 1014.46 749 1014.46 749 976.5 532 c 0,18,19
 932.067 278 932.067 278 778.762 124.5 c 128,-1,20
 625.458 -29 625.458 -29 415.758 -29 c 0,21,22
 209.657 -29 209.657 -29 107.912 122.5 c 128,-1,23
 6.16602 274 6.16602 274 48.8516 518 c 0,24,25
 90.1377 754 90.1377 754 242.405 899 c 128,-1,26
 394.671 1044 394.671 1044 599.871 1044 c 0,27,28
 631.371 1044 631.371 1044 664.596 1041 c 128,-1,29
 697.821 1038 697.821 1038 743.223 1030 c 1,30,31
 732.693 1083 732.693 1083 709.203 1136.5 c 128,-1,32
 685.713 1190 685.713 1190 650.335 1245 c 1,33,-1
 334.469 1096 l 1,34,-1
 314.813 1174 l 1,35,-1
 602.131 1309 l 1,36,37
 557.378 1367 557.378 1367 493.812 1407.5 c 128,-1,38
 430.249 1448 430.249 1448 348.597 1470 c 1,39,-1
 379.842 1556 l 1,40,41
 482.393 1530 482.393 1530 568.221 1483 c 128,-1,42
 654.049 1436 654.049 1436 724.953 1368 c 1,43,-1
 1040.99 1518 l 1,44,-1
 1060.65 1440 l 1,45,-1
 779.081 1307 l 1,15,16
EndSplineSet
EndChar
StartChar: divide
Encoding: 247 247 247
Width: 1544
Flags: W
LayerCount: 2
Fore
SplineSet
652.5 1012 m 0,0,1
 652.5 1068 652.5 1068 687.15 1106.5 c 128,-1,2
 721.8 1145 721.8 1145 772.2 1145 c 0,3,4
 821.7 1145 821.7 1145 856.8 1106 c 128,-1,5
 891.9 1067 891.9 1067 891.9 1012 c 0,6,7
 891.9 956 891.9 956 856.8 917.5 c 128,-1,8
 821.7 879 821.7 879 772.2 879 c 0,9,10
 720.9 879 720.9 879 686.7 917 c 128,-1,11
 652.5 955 652.5 955 652.5 1012 c 0,0,1
652.5 272 m 0,12,13
 652.5 328 652.5 328 687.15 367 c 128,-1,14
 721.8 406 721.8 406 772.2 406 c 0,15,16
 821.7 406 821.7 406 856.8 367 c 128,-1,17
 891.9 328 891.9 328 891.9 272 c 0,18,19
 891.9 217 891.9 217 856.8 178 c 128,-1,20
 821.7 139 821.7 139 772.2 139 c 0,21,22
 720.9 139 720.9 139 686.7 177.5 c 128,-1,23
 652.5 216 652.5 216 652.5 272 c 0,12,13
195.3 723 m 1,24,-1
 1349.1 723 l 1,25,-1
 1349.1 561 l 1,26,-1
 195.3 561 l 1,27,-1
 195.3 723 l 1,24,-1
EndSplineSet
EndChar
StartChar: oslash
Encoding: 248 248 248
Width: 1109
Flags: W
AnchorPoint: "above" 651.6 1092 basechar 0
AnchorPoint: "below" 461.418 0 basechar 0
LayerCount: 2
Fore
SplineSet
816.792 879 m 1,0,1
 792.564 936 792.564 936 747.15 964.5 c 128,-1,2
 701.736 993 701.736 993 635.136 993 c 0,3,4
 502.836 993 502.836 993 413.968 876 c 128,-1,5
 325.1 759 325.1 759 285.389 532 c 0,6,7
 272.792 460 272.792 460 269.221 401 c 128,-1,8
 265.648 342 265.648 342 269.677 293 c 1,9,-1
 816.792 879 l 1,0,1
292.157 190 m 1,10,11
 317.485 129 317.485 129 362.274 99.5 c 128,-1,12
 407.064 70 407.064 70 473.665 70 c 0,13,14
 605.965 70 605.965 70 694.92 187.5 c 128,-1,15
 783.876 305 783.876 305 823.588 532 c 0,16,17
 836.883 608 836.883 608 840.717 668.5 c 128,-1,18
 844.551 729 844.551 729 839.974 780 c 1,19,-1
 292.157 190 l 1,10,11
971.919 922 m 1,20,21
 1014.77 848 1014.77 848 1026.25 749 c 128,-1,22
 1037.73 650 1037.73 650 1017.09 532 c 0,23,24
 972.648 278 972.648 278 819.35 124.5 c 128,-1,25
 666.045 -29 666.045 -29 456.345 -29 c 0,26,27
 371.745 -29 371.745 -29 304.381 -2.5 c 128,-1,28
 237.017 24 237.017 24 186.164 78 c 1,29,-1
 27.373 -94 l 1,30,-1
 -30.0049 -31 l 1,31,-1
 135.235 147 l 1,32,33
 93.8057 224 93.8057 224 82.7871 320.5 c 128,-1,34
 71.7686 417 71.7686 417 91.8887 532 c 0,35,36
 136.323 786 136.323 786 289.539 939 c 128,-1,37
 442.755 1092 442.755 1092 652.455 1092 c 0,38,39
 737.055 1092 737.055 1092 804.594 1066.5 c 128,-1,40
 872.133 1041 872.133 1041 920.988 991 c 1,41,-1
 1075.12 1157 l 1,42,-1
 1132.51 1094 l 1,43,-1
 971.919 922 l 1,20,21
EndSplineSet
EndChar
StartChar: thorn
Encoding: 254 254 254
Width: 1179
Flags: W
LayerCount: 2
Fore
SplineSet
381.321 584 m 2,0,-1
 362.952 479 l 2,1,2
 349.218 400.5 349.218 400.5 349.218 337.3 c 0,3,4
 349.218 245.91 349.218 245.91 377.937 186.5 c 0,5,6
 426.501 86 426.501 86 552.501 86 c 0,7,8
 679.401 86 679.401 86 764.424 199 c 0,9,10
 849.438 312 849.438 312 887.931 532 c 0,11,12
 905.652 633.33 905.652 633.33 905.652 711.75 c 0,13,14
 905.652 804.35 905.652 804.35 880.929 865 c 0,15,16
 835.271 977 835.271 977 708.372 977 c 0,17,18
 582.372 977 582.372 977 498.555 876 c 128,-1,19
 414.738 775 414.738 775 381.321 584 c 2,0,-1
367.227 1450 m 1,20,-1
 207.927 1450 l 1,21,-1
 226.467 1556 l 1,22,-1
 551.367 1556 l 1,23,-1
 436.077 897 l 1,24,25
 502.173 997 502.173 997 585.639 1044.5 c 0,26,27
 669.096 1092 669.096 1092 779.796 1092 c 0,28,29
 956.196 1092 956.196 1092 1040.68 937 c 0,30,31
 1096.34 834.87 1096.34 834.87 1096.34 691.5 c 0,32,33
 1096.34 617.27 1096.34 617.27 1081.43 532 c 0,34,35
 1037.69 282 1037.69 282 898.884 126.5 c 0,36,37
 760.086 -29 760.086 -29 583.686 -29 c 0,38,39
 472.986 -29 472.986 -29 406.143 18.5 c 128,-1,40
 339.3 66 339.3 66 308.196 166 c 1,41,-1
 204.633 -426 l 1,42,-1
 39.0332 -426 l 1,43,-1
 367.227 1450 l 1,20,-1
EndSplineSet
EndChar
StartChar: dcroat
Encoding: 273 273 273
Width: 1179
Flags: W
LayerCount: 2
Fore
SplineSet
1048.59 1227 m 1,0,-1
 833.931 0 l 1,1,-1
 668.331 0 l 1,2,-1
 697.374 166 l 1,3,4
 631.278 66 631.278 66 547.821 18.5 c 0,5,6
 464.355 -29 464.355 -29 353.655 -29 c 0,7,8
 177.255 -29 177.255 -29 92.4121 126.5 c 0,9,10
 36.4229 229.11 36.4229 229.11 36.4229 372.86 c 0,11,12
 36.4229 446.97 36.4229 446.97 51.2998 532 c 0,13,14
 95.04 782 95.04 782 233.748 937 c 0,15,16
 372.465 1092 372.465 1092 549.765 1092 c 0,17,18
 660.465 1092 660.465 1092 727.308 1044.5 c 128,-1,19
 794.151 997 794.151 997 825.255 897 c 1,20,-1
 882.99 1227 l 1,21,-1
 589.59 1227 l 1,22,-1
 608.13 1333 l 1,23,-1
 901.53 1333 l 1,24,-1
 921.996 1450 l 1,25,-1
 765.396 1450 l 1,26,-1
 783.945 1556 l 1,27,-1
 1106.14 1556 l 1,28,-1
 1067.13 1333 l 1,29,-1
 1225.53 1333 l 1,30,-1
 1206.99 1227 l 1,31,-1
 1048.59 1227 l 1,0,-1
752.13 479 m 2,32,-1
 770.499 584 l 2,33,34
 784.134 661.93 784.134 661.93 784.134 724.88 c 0,35,36
 784.134 816.21 784.134 816.21 755.433 876 c 0,37,38
 706.95 977 706.95 977 580.95 977 c 0,39,40
 453.15 977 453.15 977 368.307 865 c 0,41,42
 283.464 753 283.464 753 244.8 532 c 0,43,44
 227.16 431.16 227.16 431.16 227.16 352.8 c 0,45,46
 227.16 260.21 227.16 260.21 251.793 199 c 0,47,48
 297.279 86 297.279 86 425.079 86 c 0,49,50
 551.079 86 551.079 86 634.806 186.5 c 0,51,52
 718.542 287 718.542 287 752.13 479 c 2,32,-1
EndSplineSet
EndChar
StartChar: Hbar
Encoding: 294 294 294
Width: 1607
Flags: W
AnchorPoint: "above" 934.65 1465 basechar 0
LayerCount: 2
Fore
SplineSet
477 870 m 1,0,-1
 1173.6 870 l 1,1,-1
 1207.8 1067 l 1,2,-1
 511.2 1067 l 1,3,-1
 477 870 l 1,0,-1
-28.7998 0 m 1,4,-1
 -10.7998 106 l 1,5,-1
 160.2 106 l 1,6,-1
 328.5 1067 l 1,7,-1
 157.5 1067 l 1,8,-1
 179.1 1189 l 1,9,-1
 350.1 1189 l 1,10,-1
 384.3 1386 l 1,11,-1
 213.3 1386 l 1,12,-1
 232.2 1493 l 1,13,-1
 756.9 1493 l 1,14,-1
 738 1386 l 1,15,-1
 567 1386 l 1,16,-1
 532.8 1189 l 1,17,-1
 1229.4 1189 l 1,18,-1
 1263.6 1386 l 1,19,-1
 1092.6 1386 l 1,20,-1
 1111.5 1493 l 1,21,-1
 1636.2 1493 l 1,22,-1
 1617.3 1386 l 1,23,-1
 1446.3 1386 l 1,24,-1
 1412.1 1189 l 1,25,-1
 1583.1 1189 l 1,26,-1
 1561.5 1067 l 1,27,-1
 1390.5 1067 l 1,28,-1
 1222.2 106 l 1,29,-1
 1393.2 106 l 1,30,-1
 1375.2 0 l 1,31,-1
 850.5 0 l 1,32,-1
 868.5 106 l 1,33,-1
 1039.5 106 l 1,34,-1
 1152 748 l 1,35,-1
 455.4 748 l 1,36,-1
 342.9 106 l 1,37,-1
 513.9 106 l 1,38,-1
 495.9 0 l 1,39,-1
 -28.7998 0 l 1,4,-1
EndSplineSet
EndChar
StartChar: hbar
Encoding: 295 295 295
Width: 1187
Flags: W
AnchorPoint: "above" 341.554 1465 basechar 0
LayerCount: 2
Fore
SplineSet
88.8926 0 m 1,0,-1
 300.573 1210 l 1,1,-1
 142.173 1210 l 1,2,-1
 163.521 1332 l 1,3,-1
 321.921 1332 l 1,4,-1
 342.558 1450 l 1,5,-1
 184.158 1450 l 1,6,-1
 202.707 1556 l 1,7,-1
 526.707 1556 l 1,8,-1
 487.521 1332 l 1,9,-1
 771.921 1332 l 1,10,-1
 750.573 1210 l 1,11,-1
 466.173 1210 l 1,12,-1
 407.394 874 l 1,13,14
 472.185 982 472.185 982 555.156 1037 c 0,15,16
 638.136 1092 638.136 1092 735.336 1092 c 0,17,18
 893.736 1092 893.736 1092 950.76 991 c 0,19,20
 985.194 930.03 985.194 930.03 985.194 827.87 c 0,21,22
 985.194 760.81 985.194 760.81 970.354 676 c 2,23,-1
 870.642 106 l 1,24,-1
 1018.24 106 l 1,25,-1
 999.693 0 l 1,26,-1
 685.593 0 l 1,27,-1
 793.71 618 l 2,28,29
 811.791 721.37 811.791 721.37 811.791 790.03 c 0,30,31
 811.791 850.9 811.791 850.9 797.58 884.5 c 0,32,33
 767.34 956 767.34 956 657.54 956 c 0,34,35
 542.34 956 542.34 956 465.768 863 c 0,36,37
 389.205 770 389.205 770 358.065 592 c 2,38,-1
 254.493 0 l 1,39,-1
 88.8926 0 l 1,0,-1
EndSplineSet
EndChar
StartChar: dotlessi
Encoding: 305 305 305
Width: 589
Flags: W
AnchorPoint: "above" 392.4 1092 basechar 0
LayerCount: 2
Fore
SplineSet
315.9 106 m 1,0,-1
 472.5 106 l 1,1,-1
 454.5 0 l 1,2,-1
 132.3 0 l 1,3,-1
 299.7 956 l 1,4,-1
 141.3 956 l 1,5,-1
 159.3 1063 l 1,6,-1
 483.3 1063 l 1,7,-1
 315.9 106 l 1,0,-1
EndSplineSet
EndChar
StartChar: kgreenlandic
Encoding: 312 312 312
Width: 1116
Flags: W
LayerCount: 2
Fore
SplineSet
285.282 0 m 1,0,-1
 119.682 0 l 1,1,-1
 286.398 953 l 1,2,-1
 127.098 953 l 1,3,-1
 145.818 1060 l 1,4,-1
 470.718 1060 l 1,5,-1
 379.926 541 l 1,6,-1
 855.198 953 l 1,7,-1
 717.498 953 l 1,8,-1
 736.218 1060 l 1,9,-1
 1005.32 1060 l 1,10,-1
 986.598 953 l 1,11,-1
 651.294 662 l 1,12,-1
 917.622 106 l 1,13,-1
 1055.32 106 l 1,14,-1
 1036.78 0 l 1,15,-1
 771.282 0 l 1,16,-1
 510.426 541 l 1,17,-1
 356.31 406 l 1,18,-1
 285.282 0 l 1,0,-1
EndSplineSet
EndChar
StartChar: Lslash
Encoding: 321 321 321
Width: 1233
Flags: W
LayerCount: 2
Fore
SplineSet
-19.8945 0 m 1,0,-1
 -1.35059 106 l 1,1,-1
 169.649 106 l 1,2,-1
 253.622 586 l 1,3,-1
 92.5537 473 l 1,4,-1
 45.6475 565 l 1,5,-1
 278.289 727 l 1,6,-1
 393.576 1386 l 1,7,-1
 222.576 1386 l 1,8,-1
 241.294 1493 l 1,9,-1
 765.094 1493 l 1,10,-1
 746.376 1386 l 1,11,-1
 574.477 1386 l 1,12,-1
 484.205 870 l 1,13,-1
 800.042 1096 l 1,14,-1
 846.947 1004 l 1,15,-1
 459.539 729 l 1,16,-1
 353.523 123 l 1,17,-1
 969.12 123 l 1,18,-1
 1012.86 373 l 1,19,-1
 1123.56 373 l 1,20,-1
 1058.31 0 l 1,21,-1
 -19.8945 0 l 1,0,-1
EndSplineSet
EndChar
StartChar: lslash
Encoding: 322 322 322
Width: 597
Flags: W
LayerCount: 2
Fore
SplineSet
267.642 106 m 1,0,-1
 426.042 106 l 1,1,-1
 407.493 0 l 1,2,-1
 83.4932 0 l 1,3,-1
 202.455 680 l 1,4,-1
 61.4609 584 l 1,5,-1
 21.6094 670 l 1,6,-1
 225.369 811 l 1,7,-1
 337.158 1450 l 1,8,-1
 180.558 1450 l 1,9,-1
 199.107 1556 l 1,10,-1
 521.307 1556 l 1,11,-1
 413.541 940 l 1,12,-1
 562.986 1038 l 1,13,-1
 601.938 952 l 1,14,-1
 390.969 811 l 1,15,-1
 267.642 106 l 1,0,-1
EndSplineSet
EndChar
StartChar: Eng
Encoding: 330 330 330
Width: 1553
Flags: W
LayerCount: 2
Fore
SplineSet
736.2 -181 m 0,0,1
 736.2 -319 736.2 -319 867.6 -319 c 0,2,3
 974.7 -319 974.7 -319 1030.05 -245 c 128,-1,4
 1085.4 -171 1085.4 -171 1124.1 49 c 2,5,-1
 1269 881 l 2,6,7
 1296 1031 1296 1031 1296 1130 c 128,-1,8
 1296 1229 1296 1229 1272.6 1282 c 0,9,10
 1224 1391 1224 1391 1048.5 1391 c 128,-1,11
 873 1391 873 1391 756 1262.5 c 128,-1,12
 639 1134 639 1134 595.8 887 c 2,13,-1
 459.9 107 l 1,14,-1
 630.9 107 l 1,15,-1
 612 0 l 1,16,-1
 86.4004 0 l 1,17,-1
 105.3 107 l 1,18,-1
 277.2 107 l 1,19,-1
 500.4 1386 l 1,20,-1
 342 1386 l 1,21,-1
 360.9 1493 l 1,22,-1
 702 1493 l 1,23,-1
 666.9 1292 l 1,24,25
 841.5 1522 841.5 1522 1124.1 1522 c 0,26,27
 1351.8 1522 1351.8 1522 1433.7 1376 c 0,28,29
 1482.3 1289 1482.3 1289 1482.3 1167 c 128,-1,30
 1482.3 1045 1482.3 1045 1460.7 922 c 2,31,-1
 1306.8 41 l 2,32,33
 1263.6 -206 1263.6 -206 1155.15 -316 c 128,-1,34
 1046.7 -426 1046.7 -426 848.7 -426 c 0,35,36
 718.2 -426 718.2 -426 598.5 -358 c 1,37,-1
 639.9 -123 l 1,38,-1
 740.7 -123 l 1,39,40
 736.2 -155 736.2 -155 736.2 -181 c 0,0,1
EndSplineSet
Substitution2: "'locl' Localized Forms in Latin - Sami" Eng.alt
EndChar
StartChar: eng
Encoding: 331 331 331
Width: 1187
Flags: W
LayerCount: 2
Fore
SplineSet
747.783 -104 m 2,0,-1
 874.098 618 l 2,1,2
 892.098 720.92 892.098 720.92 892.098 789.72 c 0,3,4
 892.098 851.26 892.098 851.26 877.689 885.5 c 0,5,6
 847.179 958 847.179 958 738.279 958 c 0,7,8
 623.079 958 623.079 958 546.417 864.5 c 0,9,10
 469.764 771 469.764 771 438.444 592 c 2,11,-1
 334.881 0 l 1,12,-1
 169.281 0 l 1,13,-1
 336.528 956 l 1,14,-1
 178.128 956 l 1,15,-1
 196.848 1063 l 1,16,-1
 520.848 1063 l 1,17,-1
 487.782 874 l 1,18,19
 552.573 982 552.573 982 635.544 1037 c 0,20,21
 718.515 1092 718.515 1092 815.715 1092 c 0,22,23
 972.333 1092 972.333 1092 1031.15 991 c 0,24,25
 1065.78 931.53 1065.78 931.53 1065.78 829.3 c 0,26,27
 1065.78 761.93 1065.78 761.93 1050.74 676 c 2,28,-1
 914.283 -104 l 2,29,30
 885.6 -268 885.6 -268 781.488 -361.5 c 0,31,32
 677.385 -455 677.385 -455 523.485 -455 c 0,33,34
 458.685 -455 458.685 -455 402.615 -438.5 c 128,-1,35
 346.554 -422 346.554 -422 296.532 -389 c 1,36,-1
 334.845 -170 l 1,37,-1
 420.345 -170 l 1,38,39
 417.645 -194.65 417.645 -194.65 417.645 -215.93 c 0,40,41
 417.645 -277.55 417.645 -277.55 440.226 -311 c 0,42,43
 470.601 -356 470.601 -356 544.401 -356 c 0,44,45
 626.301 -356 626.301 -356 676.206 -294.5 c 0,46,47
 724.968 -234.43 724.968 -234.43 747.783 -104 c 2,0,-1
EndSplineSet
EndChar
StartChar: OE
Encoding: 338 338 338
Width: 2096
Flags: W
LayerCount: 2
Fore
SplineSet
911.25 106 m 1,0,-1
 1135.18 1386 l 1,1,-1
 966.879 1386 l 2,2,3
 704.076 1386 704.076 1386 535.885 1222 c 128,-1,4
 367.695 1058 367.695 1058 313.812 750 c 0,5,6
 259.406 439 259.406 439 370.227 272.5 c 128,-1,7
 481.049 106 481.049 106 742.949 106 c 2,8,-1
 911.25 106 l 1,0,-1
1817.91 0 m 1,9,-1
 711.807 0 l 2,10,11
 365.307 0 365.307 0 205.545 198 c 128,-1,12
 45.7832 396 45.7832 396 107.713 750 c 0,13,14
 169.117 1101 169.117 1101 397.356 1297 c 128,-1,15
 625.594 1493 625.594 1493 972.99 1493 c 2,16,-1
 2063.79 1493 l 1,17,-1
 2005.71 1161 l 1,18,-1
 1895.01 1161 l 1,19,-1
 1931.58 1370 l 1,20,-1
 1314.18 1370 l 1,21,-1
 1226.71 870 l 1,22,-1
 1669.51 870 l 1,23,-1
 1702.22 1057 l 1,24,-1
 1811.12 1057 l 1,25,-1
 1724.35 561 l 1,26,-1
 1615.45 561 l 1,27,-1
 1648.16 748 l 1,28,-1
 1205.36 748 l 1,29,-1
 1096.02 123 l 1,30,-1
 1728.72 123 l 1,31,-1
 1765.29 332 l 1,32,-1
 1875.99 332 l 1,33,-1
 1817.91 0 l 1,9,-1
EndSplineSet
EndChar
StartChar: oe
Encoding: 339 339 339
Width: 1822
Flags: W
AnchorPoint: "below" 830.418 0 basechar 0
AnchorPoint: "above" 1021.46 1092 basechar 0
LayerCount: 2
Fore
SplineSet
473.665 70 m 0,0,1
 606.864 70 606.864 70 695.282 187 c 128,-1,2
 783.7 304 783.7 304 823.588 532 c 128,-1,3
 863.475 760 863.475 760 815.906 876.5 c 128,-1,4
 768.336 993 768.336 993 635.136 993 c 128,-1,5
 501.937 993 501.937 993 413.605 876.5 c 128,-1,6
 325.274 760 325.274 760 285.389 532 c 128,-1,7
 245.501 304 245.501 304 293.433 187 c 128,-1,8
 341.364 70 341.364 70 473.665 70 c 0,0,1
1463.4 631.79 m 0,9,10
 1563.77 698.463 1563.77 698.463 1563.77 822.148 c 0,11,12
 1563.77 993 1563.77 993 1359.65 993 c 0,13,14
 1239.06 993 1239.06 993 1155.48 891 c 128,-1,15
 1071.9 789 1071.9 789 1020.24 514 c 1,16,17
 1308.04 528.587 1308.04 528.587 1463.4 631.79 c 0,9,10
1001.7 408 m 1,18,19
 997.74 369.956 997.74 369.956 997.74 336.047 c 0,20,21
 997.74 241.811 997.74 241.811 1028.32 179.5 c 0,22,23
 1082.06 70.001 1082.06 70.001 1224.26 70 c 0,24,25
 1328.7 70 1328.7 70 1379.7 105 c 0,26,27
 1471.5 168 1471.5 168 1493.1 249 c 1,28,-1
 1614.6 249 l 1,29,30
 1578.63 122.416 1578.63 122.416 1444.5 33 c 0,31,32
 1350.99 -29.3428 1350.99 -29.3428 1165.68 -29.3428 c 128,-1,33
 980.37 -29.3428 980.37 -29.3428 879.762 124.321 c 0,34,35
 866.952 143.886 866.952 143.886 856.491 165.06 c 1,36,37
 838.797 143.972 838.797 143.972 819.351 124.5 c 0,38,39
 666.045 -29 666.045 -29 456.345 -29 c 0,40,41
 247.545 -29 247.545 -29 147.501 124.5 c 0,42,43
 78.2236 230.79 78.2236 230.79 78.2207 385.263 c 0,44,45
 78.2207 453.878 78.2207 453.878 91.8896 532 c 0,46,47
 136.327 785.999 136.327 785.999 289.539 939 c 128,-1,48
 442.755 1092 442.755 1092 652.455 1092 c 128,-1,49
 862.155 1092 862.155 1092 961.839 939 c 0,50,51
 974.277 919.909 974.277 919.909 984.474 899.246 c 1,52,53
 1001.3 919.349 1001.3 919.349 1019.72 938 c 0,54,55
 1171.75 1092 1171.75 1092 1387.75 1092 c 0,56,57
 1740.11 1092 1740.11 1092 1740.11 815.35 c 0,58,59
 1740.11 612.473 1740.11 612.473 1555.2 513.067 c 0,60,61
 1367.27 412.042 1367.27 412.042 1001.7 408 c 1,18,19
EndSplineSet
EndChar
StartChar: Tbar
Encoding: 358 358 358
Width: 1229
Flags: W
LayerCount: 2
Fore
SplineSet
221.307 0 m 1,0,-1
 239.849 106 l 1,1,-1
 411.749 106 l 1,2,-1
 511.991 679 l 1,3,-1
 272.591 679 l 1,4,-1
 293.41 798 l 1,5,-1
 532.81 798 l 1,6,-1
 633.576 1374 l 1,7,-1
 238.477 1374 l 1,8,-1
 197.715 1141 l 1,9,-1
 87.0146 1141 l 1,10,-1
 148.594 1493 l 1,11,-1
 1341.99 1493 l 1,12,-1
 1280.41 1141 l 1,13,-1
 1169.71 1141 l 1,14,-1
 1210.47 1374 l 1,15,-1
 815.377 1374 l 1,16,-1
 714.609 798 l 1,17,-1
 954.009 798 l 1,18,-1
 933.192 679 l 1,19,-1
 693.791 679 l 1,20,-1
 593.549 106 l 1,21,-1
 765.449 106 l 1,22,-1
 746.906 0 l 1,23,-1
 221.307 0 l 1,0,-1
EndSplineSet
EndChar
StartChar: tbar
Encoding: 359 359 359
Width: 740
Flags: W
LayerCount: 2
Fore
SplineSet
246.6 956 m 1,0,-1
 100.8 956 l 1,1,-1
 119.7 1063 l 1,2,-1
 265.5 1063 l 1,3,-1
 323.1 1393 l 1,4,-1
 489.6 1393 l 1,5,-1
 432 1063 l 1,6,-1
 743.4 1063 l 1,7,-1
 724.5 956 l 1,8,-1
 413.1 956 l 1,9,-1
 372.6 723 l 1,10,-1
 543.6 723 l 1,11,-1
 518.4 581 l 1,12,-1
 347.4 581 l 1,13,-1
 295.2 281 l 2,14,15
 281.7 202 281.7 202 281.7 156 c 0,16,17
 281.7 124 281.7 124 288 108 c 0,18,19
 305.1 70 305.1 70 368.1 70 c 0,20,21
 432.9 70 432.9 70 469.8 112 c 0,22,23
 507.6 155 507.6 155 525.6 250 c 1,24,-1
 650.7 250 l 1,25,26
 618.3 105 618.3 105 542.7 38 c 128,-1,27
 467.1 -29 467.1 -29 336.6 -29 c 0,28,29
 193.5 -29 193.5 -29 146.7 42 c 0,30,31
 117 85 117 85 117 165 c 0,32,33
 117 216 117 216 128.7 281 c 2,34,-1
 180.9 581 l 1,35,-1
 59.4004 581 l 1,36,-1
 84.5996 723 l 1,37,-1
 206.1 723 l 1,38,-1
 246.6 956 l 1,0,-1
EndSplineSet
EndChar
StartChar: longs
Encoding: 383 383 383
Width: 682
Flags: W
LayerCount: 2
Fore
SplineSet
918 1305 m 1,0,-1
 830.7 1305 l 1,1,2
 834.3 1326 834.3 1326 834.3 1345 c 0,3,4
 834.3 1391 834.3 1391 812.7 1419 c 0,5,6
 782.1 1458 782.1 1458 711 1458 c 0,7,8
 618.3 1458 618.3 1458 570.6 1401.5 c 128,-1,9
 522.9 1345 522.9 1345 497.7 1200 c 2,14,-1
 276.3 -66 l 2,15,16
 244.8 -244 244.8 -244 145.8 -335 c 128,-1,17
 46.7998 -426 46.7998 -426 -114.3 -426 c 1,18,-1
 -103.5 -328 l 1,19,20
 -9 -328 -9 -328 36.9004 -272 c 0,21,22
 84.5996 -212 84.5996 -212 110.7 -66 c 2,23,-1
 288.9 956 l 25,24,-1
 130.5 956 l 1,30,-1
 149.4 1063 l 1,31,-1
 307.8 1063 l 1,32,-1
 331.2 1196 l 2,33,34
 362.7 1374 362.7 1374 461.7 1465 c 128,-1,35
 560.7 1556 560.7 1556 721.8 1556 c 0,36,37
 782.1 1556 782.1 1556 840.15 1544 c 128,-1,38
 898.2 1532 898.2 1532 954 1507 c 1,39,-1
 918 1305 l 1,0,-1
EndSplineSet
EndChar
StartChar: uni0180
Encoding: 384 384 384
Width: 1179
Flags: W
LayerCount: 2
Fore
SplineSet
332.496 1450 m 1,0,-1
 174.096 1450 l 1,1,-1
 192.645 1556 l 1,2,-1
 516.645 1556 l 1,3,-1
 477.459 1332 l 1,4,-1
 761.859 1332 l 1,5,-1
 740.511 1210 l 1,6,-1
 456.111 1210 l 9,7,-1
 401.355 897 l 17,8,9
 467.451 997 467.451 997 550.908 1044.5 c 128,-1,10
 634.365 1092 634.365 1092 745.064 1092 c 0,11,12
 921.465 1092 921.465 1092 1005.95 937 c 0,13,14
 1061.62 834.87 1061.62 834.87 1061.62 691.5 c 0,15,16
 1061.62 617.28 1061.62 617.28 1046.7 532 c 0,17,18
 1002.97 282 1002.97 282 864.162 126.5 c 128,-1,19
 725.355 -29 725.355 -29 548.955 -29 c 0,20,21
 438.255 -29 438.255 -29 371.421 18.5 c 128,-1,22
 304.578 66 304.578 66 273.474 166 c 1,23,-1
 244.431 0 l 1,24,-1
 78.8311 0 l 1,25,-1
 290.511 1210 l 1,26,-1
 132.111 1210 l 1,27,-1
 153.459 1332 l 1,28,-1
 311.859 1332 l 1,29,-1
 332.496 1450 l 1,0,-1
328.23 479 m 2,30,31
 314.496 400.5 314.496 400.5 314.496 337.3 c 0,32,33
 314.496 245.91 314.496 245.91 343.206 186.5 c 0,34,35
 391.779 86 391.779 86 517.779 86 c 0,36,37
 644.679 86 644.679 86 729.693 199 c 128,-1,38
 814.716 312 814.716 312 853.2 532 c 0,39,40
 870.93 633.34 870.93 633.34 870.93 711.75 c 0,41,42
 870.93 804.36 870.93 804.36 846.207 865 c 0,43,44
 800.55 977 800.55 977 673.65 977 c 0,45,46
 547.65 977 547.65 977 463.833 876 c 128,-1,47
 380.016 775 380.016 775 346.599 584 c 2,48,-1
 328.23 479 l 2,30,31
EndSplineSet
EndChar
StartChar: uni0181
Encoding: 385 385 385
Width: 1354
Flags: W
LayerCount: 2
Fore
SplineSet
384.576 1386 m 0,0,1
 180.276 1386 180.276 1386 103.506 1297 c 0,2,3
 23.6855 1206 23.6855 1206 -8.85352 1020 c 1,4,-1
 -124.953 1020 l 1,5,-1
 -64.7725 1364 l 1,6,7
 40.3223 1440 40.3223 1440 208.621 1476 c 0,8,9
 315.094 1493 315.094 1493 403.294 1493 c 2,10,-1
 895.594 1493 l 0,11,12
 1097.19 1493 1097.19 1493 1185.33 1400 c 0,13,14
 1272.73 1308 1272.73 1308 1240.54 1124 c 0,15,16
 1217.28 991 1217.28 991 1132.35 912 c 0,17,18
 1046.53 833 1046.53 833 905.688 815 c 1,19,20
 1074.29 791 1074.29 791 1144.61 694 c 0,21,22
 1215.67 596 1215.67 596 1186.98 432 c 0,23,24
 1148.14 210 1148.14 210 1003.77 105 c 128,-1,25
 859.406 0 859.406 0 592.106 0 c 2,26,-1
 -28.8945 0 l 1,27,-1
 -10.3506 106 l 1,28,-1
 160.649 106 l 1,29,-1
 384.576 1386 l 0,0,1
475.605 862 m 1,30,-1
 704.206 862 l 2,31,32
 851.806 862 851.806 862 931.229 925 c 0,33,34
 1009.75 988 1009.75 988 1033.54 1124 c 0,35,36
 1061.01 1281 1061.01 1281 1001.03 1324 c 0,37,38
 915.579 1386 915.579 1386 795.876 1386 c 2,39,-1
 567.276 1386 l 1,40,-1
 475.605 862 l 1,30,-1
343.349 106 m 1,41,-1
 612.449 106 l 2,42,43
 774.449 106 774.449 106 862.795 184 c 128,-1,44
 951.138 262 951.138 262 980.883 432 c 0,45,46
 1010.1 599 1010.1 599 949.212 678 c 0,47,48
 889.062 756 889.062 756 726.162 756 c 2,49,-1
 457.062 756 l 1,50,-1
 343.349 106 l 1,41,-1
EndSplineSet
EndChar
StartChar: uni0183
Encoding: 387 387 387
Width: 1179
Flags: W
LayerCount: 2
Fore
SplineSet
328.229 479 m 2,0,1
 294.641 287 294.641 287 343.57 186 c 0,2,3
 391.777 86 391.777 86 517.777 86 c 0,4,5
 644.677 86 644.677 86 729.245 199 c 0,6,7
 814.713 312 814.713 312 853.201 532 c 0,8,9
 891.863 753 891.863 753 845.756 865 c 0,10,11
 800.55 977 800.55 977 673.65 977 c 0,12,13
 547.65 977 547.65 977 464.281 876 c 0,14,15
 380.012 775 380.012 775 346.598 584 c 2,16,-1
 328.229 479 l 2,0,1
1049.45 1556 m 1,17,-1
 1002.74 1289 l 1,18,-1
 908.235 1289 l 1,19,-1
 933.426 1433 l 1,20,-1
 495.124 1433 l 1,21,-1
 401.355 897 l 1,22,23
 467.449 997 467.449 997 551.271 1044 c 0,24,25
 634.368 1092 634.368 1092 745.068 1092 c 0,26,27
 921.465 1092 921.465 1092 1005.95 937 c 0,28,29
 1090.44 782 1090.44 782 1046.7 532 c 0,30,31
 1002.97 282 1002.97 282 864.074 126 c 0,32,33
 725.357 -29 725.357 -29 548.958 -29 c 0,34,35
 438.258 -29 438.258 -29 371.781 18 c 0,36,37
 304.578 66 304.578 66 273.472 166 c 1,38,-1
 244.432 0 l 1,39,-1
 -80.4688 0 l 1,40,-1
 -61.9238 106 l 1,41,-1
 97.376 106 l 1,42,-1
 332.498 1450 l 1,43,-1
 173.198 1450 l 1,44,-1
 191.742 1556 l 1,45,-1
 1049.45 1556 l 1,17,-1
EndSplineSet
EndChar
StartChar: uni0184
Encoding: 388 388 388
Width: 1354
Flags: W
LayerCount: 2
Fore
SplineSet
343.349 106 m 1,0,-1
 612.449 106 l 2,1,2
 774.449 106 774.449 106 862.795 184 c 128,-1,3
 951.138 262 951.138 262 980.883 432 c 0,4,5
 1010.45 601 1010.45 601 949.752 678.5 c 128,-1,6
 889.062 756 889.062 756 726.162 756 c 2,7,-1
 457.062 756 l 1,8,-1
 343.349 106 l 1,0,-1
163.191 1098 m 1,9,-1
 585.993 1493 l 1,10,-1
 475.605 862 l 1,11,-1
 704.206 862 l 2,12,13
 1046.21 862 1046.21 862 1144.61 694 c 1,14,15
 1212.17 576 1212.17 576 1186.98 432 c 0,16,17
 1148.14 210 1148.14 210 1003.77 105 c 128,-1,18
 859.406 0 859.406 0 592.106 0 c 2,19,-1
 -28.8945 0 l 1,20,-1
 -10.3506 106 l 1,21,-1
 160.649 106 l 1,22,-1
 315.648 992 l 1,23,-1
 144.648 992 l 1,24,-1
 163.191 1098 l 1,9,-1
EndSplineSet
EndChar
StartChar: uni0185
Encoding: 389 389 389
Width: 1179
Flags: W
LayerCount: 2
Fore
SplineSet
328.229 479 m 2,0,1
 294.641 287 294.641 287 343.209 186.5 c 128,-1,2
 391.777 86 391.777 86 517.777 86 c 0,3,4
 644.677 86 644.677 86 729.694 199 c 128,-1,5
 814.713 312 814.713 312 853.201 532 c 0,6,7
 891.863 753 891.863 753 846.206 865 c 128,-1,8
 800.55 977 800.55 977 673.65 977 c 0,9,10
 547.65 977 547.65 977 463.831 876 c 128,-1,11
 380.012 775 380.012 775 346.598 584 c 2,12,-1
 328.229 479 l 2,0,1
516.643 1556 m 1,13,-1
 401.355 897 l 1,14,15
 467.449 997 467.449 997 550.909 1044.5 c 128,-1,16
 634.368 1092 634.368 1092 745.068 1092 c 0,17,18
 921.465 1092 921.465 1092 1005.95 937 c 128,-1,19
 1090.44 782 1090.44 782 1046.7 532 c 128,-1,20
 1002.97 282 1002.97 282 864.162 126.5 c 128,-1,21
 725.357 -29 725.357 -29 548.958 -29 c 0,22,23
 438.258 -29 438.258 -29 371.418 18.5 c 128,-1,24
 304.578 66 304.578 66 273.472 166 c 1,25,-1
 244.432 0 l 1,26,-1
 -80.4688 0 l 1,27,-1
 -61.9238 106 l 1,28,-1
 97.376 106 l 1,29,-1
 275.643 1125 l 1,30,-1
 116.342 1125 l 1,31,-1
 138.385 1251 l 1,32,-1
 516.643 1556 l 1,13,-1
EndSplineSet
EndChar
StartChar: uni0186
Encoding: 390 390 390
Width: 1410
Flags: W
AnchorPoint: "above" 785.57 1465 basechar 0
LayerCount: 2
Fore
SplineSet
164.817 1096 m 1,0,1
 260.78 1305 260.78 1305 419.536 1412.5 c 128,-1,2
 578.293 1520 578.293 1520 792.493 1520 c 0,3,4
 923.895 1520 923.895 1520 1027.65 1470 c 128,-1,5
 1131.4 1420 1131.4 1420 1201.72 1323 c 0,6,7
 1282.93 1211 1282.93 1211 1307.06 1068.5 c 128,-1,8
 1331.18 926 1331.18 926 1299.69 746 c 0,9,10
 1238.8 398 1238.8 398 1020.55 184.5 c 128,-1,11
 802.307 -29 802.307 -29 506.207 -29 c 0,12,13
 396.407 -29 396.407 -29 277.806 3 c 128,-1,14
 159.204 35 159.204 35 27.4746 100 c 1,15,-1
 87.6553 444 l 1,16,-1
 189.355 444 l 1,17,18
 189.766 256 189.766 256 274.546 167 c 128,-1,19
 359.326 78 359.326 78 540.226 78 c 0,20,21
 755.326 78 755.326 78 895.678 247.5 c 128,-1,22
 1036.04 417 1036.04 417 1093.59 746 c 0,23,24
 1150.96 1074 1150.96 1074 1069.92 1243.5 c 128,-1,25
 988.875 1413 988.875 1413 773.774 1413 c 0,26,27
 623.475 1413 623.475 1413 512.366 1333.5 c 128,-1,28
 401.259 1254 401.259 1254 330.417 1096 c 1,29,-1
 164.817 1096 l 1,0,1
EndSplineSet
EndChar
StartChar: uni0187
Encoding: 391 391 391
Width: 1410
Flags: W
AnchorPoint: "above" 862.35 1465 basechar 0
LayerCount: 2
Fore
SplineSet
1228.66 395 m 1,0,1
 1132.7 186 1132.7 186 973.404 78 c 0,2,3
 815.186 -29 815.186 -29 600.985 -29 c 0,4,5
 469.586 -29 469.586 -29 365.832 21 c 0,6,7
 262.079 71 262.079 71 191.749 168 c 0,8,9
 110.543 280 110.543 280 86.7842 422 c 0,10,11
 62.3008 565 62.3008 565 93.791 745 c 0,12,13
 154.67 1093 154.67 1093 372.833 1306 c 0,14,15
 591.17 1520 591.17 1520 887.271 1520 c 0,16,17
 997.074 1520 997.074 1520 1115.68 1488 c 0,18,19
 1200.75 1465 1200.75 1465 1291.85 1425 c 1,20,21
 1307.07 1512 1307.07 1512 1390.12 1570 c 0,22,23
 1468.12 1630 1468.12 1630 1570.72 1630 c 0,24,25
 1635.52 1630 1635.52 1630 1692.12 1614 c 0,26,27
 1747.64 1597 1747.64 1597 1797.67 1564 c 1,28,-1
 1759.36 1345 l 1,29,-1
 1673.86 1345 l 1,30,31
 1690.65 1441 1690.65 1441 1653.53 1486 c 0,32,33
 1623.6 1531 1623.6 1531 1549.8 1531 c 0,34,35
 1467.9 1531 1467.9 1531 1418.53 1470 c 0,36,37
 1369.15 1409 1369.15 1409 1346.41 1279 c 2,38,-1
 1305.83 1047 l 1,39,-1
 1204.13 1047 l 1,40,41
 1203.71 1235 1203.71 1235 1119.38 1324 c 0,42,43
 1034.15 1413 1034.15 1413 853.252 1413 c 0,44,45
 638.152 1413 638.152 1413 497.887 1244 c 0,46,47
 357.446 1074 357.446 1074 299.891 745 c 0,48,49
 242.51 417 242.51 417 323.644 248 c 0,50,51
 404.604 78 404.604 78 619.705 78 c 0,52,53
 770.005 78 770.005 78 881.199 158 c 0,54,55
 992.223 237 992.223 237 1063.06 395 c 1,56,-1
 1228.66 395 l 1,0,1
EndSplineSet
EndChar
StartChar: uni0188
Encoding: 392 392 392
Width: 1032
Flags: W
AnchorPoint: "above" 633.562 1092 basechar 0
LayerCount: 2
Fore
SplineSet
891.631 319 m 1,0,1
 826.79 149 826.79 149 711.32 60 c 0,2,3
 595.852 -29 595.852 -29 437.451 -29 c 0,4,5
 228.651 -29 228.651 -29 128.518 124 c 0,6,7
 28.5586 278 28.5586 278 72.9941 532 c 0,8,9
 117.604 787 117.604 787 271.27 940 c 0,10,11
 424.762 1092 424.762 1092 633.562 1092 c 0,12,13
 724.461 1092 724.461 1092 810.263 1068 c 0,14,15
 852.438 1057 852.438 1057 894.289 1039 c 1,16,17
 934.785 1183 934.785 1183 1021.18 1255 c 0,18,19
 1084.45 1308 1084.45 1308 1196.05 1308 c 0,20,21
 1260.85 1308 1260.85 1308 1316.55 1292 c 0,22,23
 1372.98 1275 1372.98 1275 1423 1242 c 1,24,-1
 1384.69 1023 l 1,25,-1
 1299.19 1023 l 1,26,27
 1315.99 1119 1315.99 1119 1279.75 1164 c 0,28,29
 1248.93 1209 1248.93 1209 1175.13 1209 c 0,30,31
 1093.23 1209 1093.23 1209 1042.96 1148 c 0,32,33
 994.491 1087 994.491 1087 971.748 957 c 2,34,-1
 931.158 725 l 1,35,-1
 834.857 725 l 1,36,37
 840.449 865 840.449 865 788.646 929 c 0,38,39
 735.942 993 735.942 993 618.043 993 c 0,40,41
 483.942 993 483.942 993 395.423 878 c 0,42,43
 306.73 762 306.73 762 266.493 532 c 0,44,45
 226.257 302 226.257 302 273.464 186 c 0,46,47
 321.571 70 321.571 70 456.571 70 c 0,48,49
 563.671 70 563.671 70 638.417 132 c 0,50,51
 713.163 194 713.163 194 758.431 319 c 1,52,-1
 891.631 319 l 1,0,1
EndSplineSet
EndChar
StartChar: uni018A
Encoding: 394 394 394
Width: 1477
Flags: W
AnchorPoint: "above" 794.396 1465 basechar 0
LayerCount: 2
Fore
SplineSet
384.576 1386 m 0,0,1
 180.276 1386 180.276 1386 103.506 1297 c 0,2,3
 23.6855 1206 23.6855 1206 -8.85352 1020 c 1,4,-1
 -124.953 1020 l 1,5,-1
 -64.7725 1364 l 1,6,7
 77.4453 1467 77.4453 1467 208.621 1476 c 0,8,9
 296.193 1493 296.193 1493 403.294 1493 c 2,10,-1
 766.894 1493 l 2,11,12
 1114.29 1493 1114.29 1493 1273.33 1296 c 0,13,14
 1433.27 1099 1433.27 1099 1371.86 748 c 0,15,16
 1310.28 396 1310.28 396 1081.24 198 c 128,-1,17
 852.206 0 852.206 0 505.706 0 c 2,18,-1
 -28.8945 0 l 1,19,-1
 -10.3506 106 l 1,20,-1
 160.649 106 l 1,21,-1
 384.576 1386 l 0,0,1
343.349 106 m 1,22,-1
 510.749 106 l 2,23,24
 772.649 106 772.649 106 941.193 272 c 0,25,26
 1110.63 438 1110.63 438 1164.86 748 c 128,-1,27
 1219.09 1058 1219.09 1058 1108.29 1222 c 128,-1,28
 997.479 1386 997.479 1386 734.676 1386 c 2,29,-1
 567.276 1386 l 1,30,-1
 343.349 106 l 1,22,-1
EndSplineSet
EndChar
StartChar: uni018B
Encoding: 395 395 395
Width: 1354
Flags: W
LayerCount: 2
Fore
SplineSet
776.249 106 m 1,0,-1
 889.962 756 l 1,1,-1
 620.862 756 l 2,2,3
 457.962 756 457.962 756 369.616 678 c 0,4,5
 282.346 601 282.346 601 252.78 432 c 0,6,7
 223.04 262 223.04 262 284.095 184 c 128,-1,8
 345.149 106 345.149 106 507.149 106 c 2,9,-1
 776.249 106 l 1,0,-1
1372.59 1493 m 1,10,-1
 1353.88 1386 l 1,11,-1
 1182.88 1386 l 1,12,-1
 958.95 106 l 1,13,-1
 1129.95 106 l 1,14,-1
 1111.41 0 l 1,15,-1
 490.406 0 l 2,16,17
 223.106 0 223.106 0 115.475 105 c 128,-1,18
 7.84375 210 7.84375 210 46.6807 432 c 0,19,20
 71.873 576 71.873 576 180.716 694 c 1,21,22
 337.906 862 337.906 862 679.906 862 c 2,23,-1
 908.505 862 l 1,24,-1
 997.38 1370 l 1,25,-1
 380.876 1370 l 1,26,-1
 344.312 1161 l 1,27,-1
 233.613 1161 l 1,28,-1
 291.693 1493 l 1,29,-1
 1372.59 1493 l 1,10,-1
EndSplineSet
EndChar
StartChar: uni018C
Encoding: 396 396 396
Width: 1179
Flags: W
LayerCount: 2
Fore
SplineSet
712.529 479 m 2,0,-1
 730.897 584 l 2,1,2
 764.312 775 764.312 775 716.281 876 c 0,3,4
 667.35 977 667.35 977 541.35 977 c 0,5,6
 414.45 977 414.45 977 329.156 865 c 0,7,8
 244.763 753 244.763 753 206.101 532 c 0,9,10
 167.613 312 167.613 312 212.645 199 c 0,11,12
 258.577 86 258.577 86 385.478 86 c 0,13,14
 511.478 86 511.478 86 595.57 186 c 0,15,16
 678.94 287 678.94 287 712.529 479 c 2,0,-1
368.143 1556 m 1,17,-1
 1225.84 1556 l 1,18,-1
 1207.3 1450 l 1,19,-1
 1048 1450 l 1,20,-1
 812.875 106 l 1,21,-1
 972.18 106 l 1,22,-1
 953.631 0 l 1,23,-1
 628.731 0 l 1,24,-1
 657.771 166 l 1,25,26
 591.678 66 591.678 66 508.581 18 c 0,27,28
 424.758 -29 424.758 -29 314.058 -29 c 0,29,30
 137.657 -29 137.657 -29 53.1748 126 c 0,31,32
 -31.1348 282 -31.1348 282 12.6006 532 c 0,33,34
 56.3359 782 56.3359 782 195.053 937 c 0,35,36
 333.769 1092 333.769 1092 510.169 1092 c 0,37,38
 620.868 1092 620.868 1092 688.07 1044 c 0,39,40
 754.549 997 754.549 997 785.655 897 c 1,41,-1
 879.424 1433 l 1,42,-1
 441.124 1433 l 1,43,-1
 415.932 1289 l 1,44,-1
 321.432 1289 l 1,45,-1
 368.143 1556 l 1,17,-1
EndSplineSet
EndChar
StartChar: uni018D
Encoding: 397 397 397
Width: 1109
Flags: W
LayerCount: 2
Fore
SplineSet
732.691 27 m 1,0,1
 787.717 2 787.717 2 808.846 -47 c 0,2,3
 833.248 -103 833.248 -103 809.281 -240 c 0,4,5
 786.713 -369 786.713 -369 686.617 -437 c 0,6,7
 586.696 -504 586.696 -504 410.297 -504 c 0,8,9
 361.696 -504 361.696 -504 270.895 -488 c 0,10,11
 180.27 -471 180.27 -471 84.8926 -440 c 1,12,-1
 119.356 -243 l 1,13,-1
 220.931 -218 l 1,14,15
 216.16 -307 216.16 -307 272.912 -353 c 0,16,17
 329.84 -398 329.84 -398 414.44 -398 c 128,-1,18
 499.04 -398 499.04 -398 569.713 -349 c 0,19,20
 644.509 -297 644.509 -297 653.355 -231 c 0,21,22
 669.975 -136 669.975 -136 642.273 -104 c 0,23,24
 586.094 -29 586.094 -29 497.894 -29 c 16,25,26
 288.193 -29 288.193 -29 188.06 124 c 0,27,28
 88.8262 277 88.8262 277 133.261 531 c 128,-1,29
 177.696 785 177.696 785 330.463 938 c 0,30,31
 484.304 1092 484.304 1092 694.004 1092 c 0,32,33
 902.808 1092 902.808 1092 1002.76 938 c 0,34,35
 1102.9 785 1102.9 785 1058.46 531 c 128,-1,36
 1014.03 277 1014.03 277 861.26 124 c 0,37,38
 792.839 57 792.839 57 732.691 27 c 1,0,1
676.685 993 m 0,39,40
 543.484 993 543.484 993 454.616 876 c 0,41,42
 366.648 759 366.648 759 326.761 531 c 128,-1,43
 286.874 303 286.874 303 333.906 186 c 0,44,45
 382.013 70 382.013 70 515.213 70 c 128,-1,46
 648.413 70 648.413 70 737.106 186 c 0,47,48
 825.074 303 825.074 303 864.961 531 c 128,-1,49
 904.851 759 904.851 759 856.916 876 c 128,-1,50
 808.984 993 808.984 993 676.685 993 c 0,39,40
EndSplineSet
EndChar
StartChar: uni018E
Encoding: 398 398 398
Width: 1345
Flags: W
AnchorPoint: "above" 752.096 1465 basechar 0
LayerCount: 2
Fore
SplineSet
1067.31 0 m 1,0,-1
 -28.8945 0 l 1,1,-1
 29.1865 332 l 1,2,-1
 139.887 332 l 1,3,-1
 103.323 123 l 1,4,-1
 735.124 123 l 1,5,-1
 844.463 748 l 1,6,-1
 404.363 748 l 1,7,-1
 371.647 561 l 1,8,-1
 260.948 561 l 1,9,-1
 347.72 1057 l 1,10,-1
 458.42 1057 l 1,11,-1
 425.705 870 l 1,12,-1
 865.806 870 l 1,13,-1
 953.28 1370 l 1,14,-1
 335.876 1370 l 1,15,-1
 299.312 1161 l 1,16,-1
 188.613 1161 l 1,17,-1
 246.693 1493 l 1,18,-1
 1328.49 1493 l 1,19,-1
 1309.78 1386 l 1,20,-1
 1138.78 1386 l 1,21,-1
 914.85 106 l 1,22,-1
 1085.85 106 l 1,23,-1
 1067.31 0 l 1,0,-1
EndSplineSet
EndChar
StartChar: uni018F
Encoding: 399 399 399
Width: 1511
Flags: W
LayerCount: 2
Fore
SplineSet
882.674 1413 m 24,0,1
 722.475 1413 722.475 1413 611.454 1334 c 0,2,3
 500.259 1254 500.259 1254 429.417 1096 c 1,4,-1
 263.817 1096 l 1,5,6
 359.78 1305 359.78 1305 517.999 1412 c 0,7,8
 677.293 1520 677.293 1520 891.493 1520 c 24,9,10
 1184 1520 1184 1520 1326.73 1307 c 128,-1,11
 1469.47 1094 1469.47 1094 1408.41 745 c 0,12,13
 1377.1 566 1377.1 566 1302.41 422 c 0,14,15
 1228.07 280 1228.07 280 1107.67 168 c 0,16,17
 1001.43 70 1001.43 70 880.18 20 c 0,18,19
 758.207 -29 758.207 -29 620.507 -29 c 0,20,21
 483.707 -29 483.707 -29 377.255 21 c 0,22,23
 271.702 71 271.702 71 201.37 168 c 0,24,25
 120.164 280 120.164 280 96.4062 422 c 0,26,27
 71.748 564 71.748 564 103.412 745 c 2,28,-1
 115.834 816 l 1,29,-1
 1212.03 816 l 1,30,31
 1260.85 1095 1260.85 1095 1176.21 1244 c 0,32,33
 1093.28 1413 1093.28 1413 882.674 1413 c 24,0,1
1191.59 694 m 1,34,-1
 301.49 694 l 1,35,36
 250.407 402 250.407 402 334.717 246 c 0,37,38
 417.826 78 417.826 78 639.226 78 c 0,39,40
 859.726 78 859.726 78 1001.62 246 c 0,41,42
 1140.51 402 1140.51 402 1191.59 694 c 1,34,-1
EndSplineSet
EndChar
StartChar: uni0190
Encoding: 400 400 400
Width: 1148
Flags: W
AnchorPoint: "below" 603 0 basechar 0
AnchorPoint: "above" 859.291 1465 basechar 0
LayerCount: 2
Fore
SplineSet
1282.46 1430 m 1,0,-1
 1236.46 1167 l 1,1,-1
 1135.66 1167 l 1,2,3
 1137.28 1186.69 1137.28 1186.69 1137.28 1204.86 c 0,4,5
 1137.28 1303 1137.28 1303 1085.79 1362 c 128,-1,6
 1034.29 1421 1034.29 1421 881.294 1421 c 0,7,8
 728.294 1421 728.294 1421 651.334 1351.5 c 128,-1,9
 574.375 1282 574.375 1282 550.146 1143.5 c 0,10,11
 543.578 1105.96 543.578 1105.96 543.578 1073.34 c 0,12,13
 543.578 985.619 543.578 985.619 591.072 933.5 c 0,14,15
 656.228 862 656.228 862 852.801 862 c 2,16,-1
 897.801 862 l 1,17,-1
 879.256 756 l 1,18,-1
 793.756 756 l 2,19,20
 596.646 756 596.646 756 499.994 666.5 c 128,-1,21
 403.342 577 403.342 577 374.477 412 c 0,22,23
 365.521 360.805 365.521 360.805 365.521 316.975 c 0,24,25
 365.521 219.541 365.521 219.541 409.779 158.5 c 0,26,27
 473.945 70 473.945 70 596.855 70 c 0,28,29
 719.764 70 719.764 70 816.264 139.048 c 128,-1,30
 912.762 208.095 912.762 208.095 929.259 265 c 1,31,-1
 1094.86 265 l 1,32,33
 1042.68 160.022 1042.68 160.022 917.703 65.5107 c 128,-1,34
 792.749 -29 792.749 -29 576.537 -29 c 0,35,36
 360.327 -29 360.327 -29 253.383 82.5 c 0,37,38
 173.687 165.592 173.687 165.592 173.687 302.831 c 0,39,40
 173.687 349.751 173.687 349.751 183.002 403 c 0,41,42
 212.917 574 212.917 574 323.073 681.5 c 128,-1,43
 433.229 789 433.229 789 603.378 815 c 1,44,45
 468.576 847 468.576 847 407.908 937.5 c 0,46,47
 364.24 1002.64 364.24 1002.64 364.24 1090.84 c 0,48,49
 364.24 1125.17 364.24 1125.17 370.857 1163 c 0,50,51
 400.248 1331 400.248 1331 527.48 1425.5 c 128,-1,52
 654.712 1520 654.712 1520 868.77 1520 c 0,53,54
 1082.83 1520 1082.83 1520 1282.46 1430 c 1,0,-1
EndSplineSet
EndChar
StartChar: uni0191
Encoding: 401 401 401
Width: 1278
Flags: W
LayerCount: 2
Fore
SplineSet
-88.6572 -426 m 0,0,1
 -219.157 -426 -219.157 -426 -338.661 -358 c 1,2,-1
 -297.549 -123 l 1,3,-1
 -194.949 -123 l 1,4,5
 -229.238 -319 -229.238 -319 -68.1377 -319 c 0,6,7
 38.9619 -319 38.9619 -319 94.3818 -244 c 0,8,9
 151.054 -167 151.054 -167 187.939 49 c 2,10,-1
 421.838 1386 l 1,11,-1
 250.838 1386 l 1,12,-1
 269.558 1493 l 1,13,-1
 1369.36 1493 l 1,14,-1
 1311.27 1161 l 1,15,-1
 1200.57 1161 l 1,16,-1
 1237.14 1370 l 1,17,-1
 601.74 1370 l 1,18,-1
 514.268 870 l 1,19,-1
 973.269 870 l 1,20,-1
 1005.98 1057 l 1,21,-1
 1116.68 1057 l 1,22,-1
 1029.92 561 l 1,23,-1
 919.215 561 l 1,24,-1
 951.921 748 l 1,25,-1
 492.925 748 l 1,26,-1
 369.241 41 l 2,27,28
 314.484 -272 314.484 -272 147.765 -371 c 0,29,30
 54.4434 -426 54.4434 -426 -88.6572 -426 c 0,0,1
EndSplineSet
EndChar
StartChar: florin
Encoding: 402 402 402
Width: 682
Flags: W
LayerCount: 2
Fore
SplineSet
918.243 1305 m 1,0,-1
 830.945 1305 l 1,1,2
 834.439 1326.44 834.439 1326.44 834.439 1344.94 c 0,3,4
 834.439 1391.15 834.439 1391.15 812.64 1419 c 0,5,6
 782.112 1458 782.112 1458 711.013 1458 c 0,7,8
 618.312 1458 618.312 1458 570.628 1401.5 c 128,-1,9
 522.944 1345 522.944 1345 497.576 1200 c 2,10,-1
 473.609 1063 l 1,11,-1
 740.91 1063 l 1,12,-1
 722.191 956 l 1,13,-1
 454.892 956 l 1,14,-1
 284.322 -19 l 2,15,16
 253.183 -197 253.183 -197 154.014 -288 c 128,-1,17
 54.8438 -379 54.8438 -379 -106.256 -379 c 0,18,19
 -166.556 -379 -166.556 -379 -224.757 -367 c 128,-1,20
 -282.957 -355 -282.957 -355 -337.984 -330 c 1,21,-1
 -302.646 -128 l 1,22,-1
 -215.346 -128 l 1,23,24
 -218.84 -149.44 -218.84 -149.44 -218.84 -167.939 c 0,25,26
 -218.84 -214.149 -218.84 -214.149 -197.04 -242 c 0,27,28
 -166.513 -281 -166.513 -281 -95.4121 -281 c 0,29,30
 -2.71191 -281 -2.71191 -281 44.9717 -224.5 c 128,-1,31
 92.6562 -168 92.6562 -168 118.723 -19 c 2,32,-1
 289.291 956 l 1,33,-1
 130.892 956 l 1,34,-1
 149.609 1063 l 1,35,-1
 308.01 1063 l 1,36,-1
 331.277 1196 l 2,37,38
 362.417 1374 362.417 1374 461.587 1465 c 128,-1,39
 560.756 1556 560.756 1556 721.855 1556 c 0,40,41
 782.156 1556 782.156 1556 840.357 1544 c 128,-1,42
 898.558 1532 898.558 1532 953.586 1507 c 1,43,-1
 918.243 1305 l 1,0,-1
EndSplineSet
EndChar
StartChar: uni0193
Encoding: 403 403 403
Width: 1472
Flags: W
AnchorPoint: "above" 886.649 1465 basechar 0
LayerCount: 2
Fore
SplineSet
1567.8 1531 m 0,0,1
 1455.3 1531 1455.3 1531 1402.25 1413 c 0,2,3
 1378.4 1359 1378.4 1359 1364.41 1279 c 2,4,-1
 1323.83 1047 l 1,5,-1
 1222.13 1047 l 1,6,-1
 1223 1052 l 2,7,8
 1222.91 1319 1222.91 1319 1041.3 1387 c 0,9,10
 972.954 1413 972.954 1413 877.552 1413 c 0,11,12
 645.353 1413 645.353 1413 502.012 1247 c 0,13,14
 358.671 1081 358.671 1081 299.891 745 c 0,15,16
 207.171 215 207.171 215 486.729 105 c 0,17,18
 556.705 78 556.705 78 647.604 78 c 0,19,20
 851.005 78 851.005 78 1038 190 c 1,21,-1
 1105.35 575 l 1,22,-1
 852.45 575 l 1,23,-1
 871.169 682 l 1,24,-1
 1306.77 682 l 1,25,-1
 1209.33 125 l 1,26,27
 942.984 -29 942.984 -29 628.886 -29 c 0,28,29
 324.686 -29 324.686 -29 177.997 182 c 0,30,31
 32.3857 394 32.3857 394 93.791 745 c 0,32,33
 155.72 1099 155.72 1099 376.233 1310 c 0,34,35
 596.57 1520 596.57 1520 907.074 1520 c 0,36,37
 1097.87 1520 1097.87 1520 1307.28 1436 c 1,38,39
 1343.25 1513 1343.25 1513 1408.12 1570 c 0,40,41
 1476.22 1630 1476.22 1630 1588.72 1630 c 0,42,43
 1715.62 1630 1715.62 1630 1815.67 1564 c 1,44,-1
 1777.36 1345 l 1,45,-1
 1691.86 1345 l 1,46,47
 1717.57 1492 1717.57 1492 1623.83 1522 c 0,48,49
 1600.2 1531 1600.2 1531 1567.8 1531 c 0,0,1
EndSplineSet
EndChar
StartChar: uni0194
Encoding: 404 404 404
Width: 1312
Flags: W
AnchorPoint: "above" 787.05 1465 basechar 0
LayerCount: 2
Fore
SplineSet
566.683 733 m 0,0,-1
 288.521 1386 l 1,1,-1
 144.521 1386 l 1,2,-1
 163.239 1493 l 1,3,-1
 696.039 1493 l 1,4,-1
 677.32 1386 l 1,5,-1
 518.92 1386 l 1,6,-1
 722.772 905 l 1,7,-1
 1103.02 1386 l 1,8,-1
 930.222 1386 l 1,9,-1
 948.942 1493 l 1,10,-1
 1389.04 1493 l 1,11,-1
 1370.32 1386 l 1,12,-1
 1219.12 1386 l 1,13,-1
 763.029 811 l 0,14,15
 1142.69 126 1142.69 126 947.349 -44 c 0,16,17
 781.761 -188 781.761 -188 464.961 -188 c 16,18,19
 145.461 -188 145.461 -188 125.549 12 c 0,20,21
 106.814 193 106.814 193 566.683 733 c 0,0,-1
609.113 636 m 1,22,23
 283.785 258 283.785 258 248.447 56 c 24,24,25
 224.306 -82 224.306 -82 483.505 -82 c 16,26,27
 728.305 -82 728.305 -82 752.447 56 c 16,28,29
 789.535 268 789.535 268 609.113 636 c 1,22,23
EndSplineSet
EndChar
StartChar: uni0195
Encoding: 405 405 405
Width: 1718
Flags: W
LayerCount: 2
Fore
SplineSet
89.0996 0 m 1,0,-1
 342.9 1450 l 1,3,-1
 184.5 1450 l 1,4,-1
 203.4 1556 l 1,5,-1
 527.4 1556 l 1,6,-1
 407.7 874 l 1,7,8
 472.5 982 472.5 982 555.3 1037 c 0,9,10
 639 1092 639 1092 736.2 1092 c 0,11,12
 896.4 1092 896.4 1092 951.3 991 c 0,13,14
 1008 888 1008 888 971.1 676 c 2,15,-1
 914.4 351 l 2,16,17
 891 220 891 220 918.9 160 c 128,-1,19
 946.8 100 946.8 100 1029.6 99 c 0,20,21
 1142.1 99 1142.1 99 1265.4 229 c 0,22,23
 1366.2 336 1366.2 336 1399.5 526 c 0,24,25
 1426.5 680 1426.5 680 1389.6 783 c 0,26,27
 1351.8 885 1351.8 885 1253.7 931 c 1,28,-1
 1264.5 990 l 1,29,-1
 1365.3 990 l 1,30,31
 1492.2 926 1492.2 926 1549.8 797 c 0,32,33
 1608.3 667 1608.3 667 1581.3 510 c 0,34,35
 1561.5 399 1561.5 399 1506.6 303 c 0,36,37
 1450.8 205 1450.8 205 1365.3 131 c 0,38,39
 1288.8 64 1288.8 64 1197.9 29 c 0,40,41
 1106.1 -7 1106.1 -7 1010.7 -7 c 0,42,43
 866.7 -7 866.7 -7 786.6 94 c 0,44,45
 718.2 180 718.2 180 747.9 351 c 2,46,-1
 794.7 618 l 2,47,48
 828 813 828 813 798.3 884 c 0,49,50
 767.7 956 767.7 956 657.9 956 c 0,51,52
 542.7 956 542.7 956 466.2 863 c 128,-1,54
 389.7 770 389.7 770 359.1 592 c 2,55,-1
 254.7 0 l 1,58,-1
 89.0996 0 l 1,0,-1
EndSplineSet
EndChar
StartChar: uni0196
Encoding: 406 406 406
Width: 728
Flags: W
LayerCount: 2
Fore
SplineSet
386.211 351 m 2,0,1
 363.293 220 363.293 220 390.597 160 c 0,2,3
 419.525 99 419.525 99 501.425 99 c 2,4,-1
 513.125 99 l 1,5,-1
 495.807 0 l 1,6,-1
 484.106 0 l 1,7,8
 303.206 0 303.206 0 256.853 54 c 0,9,10
 169.222 155 169.222 155 203.511 351 c 2,11,-1
 384.576 1386 l 1,12,-1
 213.576 1386 l 1,13,-1
 232.294 1493 l 1,14,-1
 756.993 1493 l 1,15,-1
 738.276 1386 l 1,16,-1
 567.276 1386 l 1,17,-1
 386.211 351 l 2,0,1
EndSplineSet
EndChar
StartChar: uni0197
Encoding: 407 407 407
Width: 728
Flags: W
LayerCount: 2
Fore
SplineSet
343.349 106 m 1,0,-1
 514.35 106 l 1,1,-1
 495.807 0 l 1,2,-1
 -28.8945 0 l 1,3,-1
 -10.3506 106 l 1,4,-1
 160.649 106 l 1,5,-1
 251.97 628 l 1,6,-1
 13.4688 628 l 1,7,-1
 43.21 798 l 1,8,-1
 281.71 798 l 1,9,-1
 384.576 1386 l 1,10,-1
 213.576 1386 l 1,11,-1
 232.294 1493 l 1,12,-1
 756.993 1493 l 1,13,-1
 738.276 1386 l 1,14,-1
 567.276 1386 l 1,15,-1
 464.41 798 l 1,16,-1
 702.91 798 l 1,17,-1
 673.169 628 l 1,18,-1
 434.669 628 l 1,19,-1
 343.349 106 l 1,0,-1
EndSplineSet
EndChar
StartChar: uni0198
Encoding: 408 408 408
Width: 1377
Flags: W
LayerCount: 2
Fore
SplineSet
1143.87 1386 m 2,0,1
 1300.9 1517 1300.9 1517 1412.5 1517 c 0,2,3
 1472.8 1517 1472.8 1517 1528.32 1500 c 0,4,5
 1589.07 1482 1589.07 1482 1634.95 1451 c 1,6,-1
 1596.64 1232 l 1,7,-1
 1511.14 1232 l 1,8,9
 1527.93 1328 1527.93 1328 1491.71 1373 c 0,10,11
 1465.05 1411 1465.05 1411 1411.02 1416 c 0,12,13
 1332.72 1416 1332.72 1416 1254.73 1356 c 2,14,-1
 617.883 823 l 1,15,-1
 1137.75 106 l 1,16,-1
 1290.75 106 l 1,17,-1
 1272.2 0 l 1,18,-1
 959.904 0 l 1,19,-1
 446.74 709 l 1,20,-1
 341.25 106 l 1,21,-1
 512.25 106 l 1,22,-1
 493.706 0 l 1,23,-1
 -30.9941 0 l 1,24,-1
 -12.4492 106 l 1,25,-1
 158.551 106 l 1,26,-1
 382.477 1386 l 1,27,-1
 211.477 1386 l 1,28,-1
 230.194 1493 l 1,29,-1
 754.895 1493 l 1,30,-1
 736.177 1386 l 1,31,-1
 565.177 1386 l 1,32,-1
 466.333 821 l 1,33,-1
 1143.87 1386 l 2,0,1
EndSplineSet
EndChar
StartChar: uni0199
Encoding: 409 409 409
Width: 1116
Flags: W
LayerCount: 2
Fore
SplineSet
336.6 543 m 1,0,-1
 812.7 956 l 1,14,-1
 675 956 l 1,15,-1
 693 1063 l 1,16,-1
 962.1 1063 l 1,17,-1
 944.1 956 l 1,18,-1
 608.4 664 l 1,0,-1
 873.9 106 l 1,1,-1
 1011.6 106 l 1,2,-1
 993.6 0 l 1,3,-1
 728.1 0 l 1,4,-1
 467.1 543 l 1,5,-1
 313.2 408 l 1,6,-1
 242.1 0 l 1,18,-1
 76.5 0 l 1,19,-1
 287.1 1205 l 2,22,23
 315.49 1367.44 315.49 1367.44 420.3 1462 c 0,24,25
 523.8 1556 523.8 1556 677.7 1556 c 0,26,27
 747 1556 747 1556 799.2 1540 c 0,28,29
 855 1523 855 1523 904.5 1490 c 1,30,-1
 866.7 1271 l 1,31,-1
 781.2 1271 l 1,32,33
 797.4 1363 797.4 1363 760.5 1412 c 0,34,35
 727.2 1457 727.2 1457 657 1457 c 0,36,37
 575.1 1457 575.1 1457 525.6 1396 c 0,38,39
 476.91 1336.89 476.91 1336.89 453.6 1205 c 2,40,-1
 336.6 543 l 1,0,-1
EndSplineSet
EndChar
StartChar: uni019A
Encoding: 410 410 410
Width: 589
Flags: W
LayerCount: 2
Fore
SplineSet
-0.900391 464 m 1,0,-1
 18 570 l 1,1,-1
 176.4 570 l 1,2,-1
 330.3 1450 l 1,3,-1
 171 1450 l 1,4,-1
 189 1556 l 1,5,-1
 513.9 1556 l 1,6,-1
 342 570 l 1,7,-1
 498.6 570 l 1,8,-1
 479.7 464 l 1,9,-1
 323.1 464 l 1,10,-1
 260.1 106 l 1,11,-1
 416.7 106 l 1,12,-1
 398.7 0 l 1,13,-1
 76.5 0 l 1,14,-1
 157.5 464 l 1,17,-1
 -0.900391 464 l 1,0,-1
EndSplineSet
EndChar
StartChar: uni019B
Encoding: 411 411 411
Width: 1168
Flags: W
LayerCount: 2
Fore
SplineSet
570.382 1307 m 2,0,1
 553.177 1399 553.177 1399 527.826 1429 c 0,2,3
 501.748 1460 501.748 1460 454.048 1460 c 0,4,5
 400.048 1460 400.048 1460 369.774 1431 c 0,6,7
 338.427 1401 338.427 1401 321.131 1333 c 1,8,-1
 236.531 1333 l 1,9,-1
 272.044 1536 l 1,10,11
 319.668 1551 319.668 1551 365.168 1559 c 0,12,13
 411.567 1567 411.567 1567 453.867 1567 c 0,14,15
 553.768 1567 553.768 1567 600.619 1521 c 0,16,17
 647.647 1476 647.647 1476 670.954 1352 c 1,18,-1
 820.399 1450 l 1,19,-1
 859.354 1364 l 1,20,-1
 688.936 1249 l 1,21,-1
 891.452 107 l 1,22,-1
 998.55 107 l 1,23,-1
 979.83 0 l 1,24,-1
 620.732 0 l 1,25,-1
 639.452 107 l 1,26,-1
 782.552 107 l 1,27,-1
 656.26 841 l 1,28,-1
 244.352 107 l 1,29,-1
 397.352 107 l 1,30,-1
 378.633 0 l 1,31,-1
 -61.4668 0 l 1,32,-1
 -42.748 107 l 1,33,-1
 66.1514 107 l 1,34,-1
 608.77 1084 l 1,35,-1
 591.89 1183 l 1,36,-1
 318.875 996 l 1,37,-1
 279.02 1082 l 1,38,-1
 573.732 1285 l 1,39,-1
 570.382 1307 l 2,0,1
EndSplineSet
EndChar
StartChar: uni019C
Encoding: 412 412 412
Width: 1747
Flags: W
LayerCount: 2
Fore
SplineSet
717.08 207 m 1,0,1
 648.912 90 648.912 90 564.253 30.5 c 128,-1,2
 479.594 -29 479.594 -29 380.594 -29 c 0,3,4
 231.247 -29 231.247 -29 174.601 74.5 c 0,5,6
 118.676 176.68 118.676 176.68 155.47 387 c 2,7,-1
 330.763 1389 l 1,8,-1
 181.362 1389 l 1,9,-1
 199.906 1495 l 1,10,-1
 658.906 1495 l 1,11,-1
 640.362 1389 l 1,12,-1
 496.362 1389 l 1,13,-1
 324.743 408 l 2,14,15
 296.229 245 296.229 245 327.357 176 c 128,-1,16
 358.486 107 358.486 107 458.386 107 c 0,17,18
 569.463 107 569.463 107 643.406 200 c 0,19,20
 717.832 293.607 717.832 293.607 748.865 471 c 2,21,-1
 909.459 1389 l 1,22,-1
 765.463 1389 l 1,23,-1
 784.006 1495 l 1,24,-1
 1237.61 1495 l 1,25,-1
 1219.06 1389 l 1,26,-1
 1075.06 1389 l 1,27,-1
 902.223 401 l 2,28,29
 874.404 242.004 874.404 242.004 905.796 174.5 c 128,-1,30
 937.188 107 937.188 107 1037.09 107 c 0,31,32
 1148.17 107 1148.17 107 1222.11 200 c 0,33,34
 1296.53 293.609 1296.53 293.609 1327.56 471 c 2,35,-1
 1488.16 1389 l 1,36,-1
 1344.16 1389 l 1,37,-1
 1362.71 1495 l 1,38,-1
 1821.71 1495 l 1,39,-1
 1803.16 1389 l 1,40,-1
 1653.76 1389 l 1,41,-1
 1429.14 105 l 1,42,-1
 1587.54 105 l 1,43,-1
 1569.17 0 l 1,44,-1
 1245.17 0 l 1,45,-1
 1278.23 189 l 1,46,47
 1213.79 83 1213.79 83 1132.89 27 c 128,-1,48
 1051.99 -29 1051.99 -29 961.992 -29 c 0,49,50
 850.394 -29 850.394 -29 786.453 32.5 c 128,-1,51
 722.512 94 722.512 94 717.08 207 c 1,0,1
EndSplineSet
EndChar
StartChar: uni019D
Encoding: 413 413 413
Width: 1612
Flags: W
AnchorPoint: "above" 948.609 1475 basechar 0
LayerCount: 2
Fore
SplineSet
-340.461 -358 m 1,0,-1
 -299.349 -123 l 1,1,-1
 -196.749 -123 l 1,2,3
 -214.068 -222 -214.068 -222 -180.166 -270 c 0,4,5
 -149.138 -319 -149.138 -319 -69.9385 -319 c 0,6,7
 37.1621 -319 37.1621 -319 92.582 -244 c 0,8,9
 148.003 -169 148.003 -169 186.14 49 c 2,10,-1
 420.038 1386 l 1,11,-1
 239.138 1386 l 1,12,-1
 257.857 1493 l 1,13,-1
 602.558 1493 l 1,14,-1
 1201.98 315 l 1,15,-1
 1389.34 1386 l 1,16,-1
 1209.34 1386 l 1,17,-1
 1228.06 1493 l 1,18,-1
 1699.66 1493 l 1,19,-1
 1680.94 1386 l 1,20,-1
 1500.04 1386 l 1,21,-1
 1252.49 -29 l 1,22,-1
 1143.59 -29 l 1,23,-1
 503.997 1228 l 1,24,-1
 296.341 41 l 2,25,26
 253.131 -206 253.131 -206 144.786 -316 c 0,27,28
 36.4434 -426 36.4434 -426 -136.357 -426 c 0,29,30
 -154.357 -426 -154.357 -426 -217.083 -409 c 0,31,32
 -280.709 -392 -280.709 -392 -340.461 -358 c 1,0,-1
EndSplineSet
EndChar
StartChar: uni019E
Encoding: 414 414 414
Width: 1187
Flags: W
AnchorPoint: "above" 667.382 1092 basechar 0
LayerCount: 2
Fore
SplineSet
166.5 0 m 1,0,-1
 333.9 956 l 1,1,-1
 175.5 956 l 1,2,-1
 194.4 1063 l 1,3,-1
 518.4 1063 l 1,4,-1
 485.1 874 l 1,5,6
 549.9 982 549.9 982 632.7 1037 c 0,7,8
 716.4 1092 716.4 1092 813.6 1092 c 0,9,10
 972 1092 972 1092 1028.7 991 c 128,-1,11
 1085.4 890 1085.4 890 1048.5 676 c 2,12,-1
 873.9 -319 l 1,13,-1
 1021.5 -319 l 1,14,-1
 1002.6 -426 l 1,15,-1
 688.5 -426 l 1,16,-1
 871.2 618 l 2,17,18
 905.4 813 905.4 813 874.8 886 c 0,19,20
 844.2 958 844.2 958 735.3 958 c 0,21,22
 620.1 958 620.1 958 543.6 864 c 0,23,24
 467.1 771 467.1 771 435.6 592 c 2,25,-1
 332.1 0 l 1,26,-1
 166.5 0 l 1,0,-1
EndSplineSet
EndChar
StartChar: uni019F
Encoding: 415 415 415
Width: 1511
Flags: W
AnchorPoint: "above" 881.87 1465 basechar 0
LayerCount: 2
Fore
SplineSet
620.507 -29 m 0,0,1
 483.707 -29 483.707 -29 377.705 21 c 0,2,3
 271.702 71 271.702 71 201.37 168 c 0,4,5
 120.164 280 120.164 280 95.9561 422 c 0,6,7
 71.748 564 71.748 564 103.412 745 c 0,8,9
 135.077 926 135.077 926 209.057 1068.5 c 0,10,11
 283.035 1211 283.035 1211 403.43 1323 c 0,12,13
 508.773 1421 508.773 1421 630.833 1470.5 c 0,14,15
 752.894 1520 752.894 1520 891.493 1520 c 0,16,17
 1184 1520 1184 1520 1326.73 1307 c 0,18,19
 1469.47 1094 1469.47 1094 1408.41 745 c 0,20,21
 1377.1 566 1377.1 566 1302.49 422.5 c 0,22,23
 1228.31 279.807 1228.31 279.807 1107.67 168 c 0,24,25
 1001.62 69.7139 1001.62 69.7139 880.267 20.5 c 0,26,27
 758.207 -29 758.207 -29 620.507 -29 c 0,0,1
639.226 78 m 0,28,29
 859.726 78 859.726 78 1001.7 246.5 c 0,30,31
 1132.5 401.724 1132.5 401.724 1191.79 694 c 1,32,-1
 301.289 694 l 1,33,34
 258.322 401.724 258.322 401.724 334.804 246.5 c 0,35,36
 417.826 78 417.826 78 639.226 78 c 0,28,29
1212.46 816 m 1,37,38
 1250.16 1094.57 1250.16 1094.57 1176.3 1244.5 c 0,39,40
 1093.28 1413 1093.28 1413 872.774 1413 c 0,41,42
 651.374 1413 651.374 1413 509.396 1244.5 c 0,43,44
 383.068 1094.57 383.068 1094.57 323.301 816 c 1,45,-1
 1212.46 816 l 1,37,38
EndSplineSet
EndChar
StartChar: uni01A2
Encoding: 418 418 418
Width: 1916
Flags: W
LayerCount: 2
Fore
SplineSet
646.049 -29 m 0,0,1
 509.249 -29 509.249 -29 403.246 21 c 0,2,3
 297.243 71 297.243 71 226.912 168 c 0,4,5
 145.706 280 145.706 280 121.497 422 c 0,6,7
 97.29 564 97.29 564 128.954 745 c 0,8,9
 160.618 926 160.618 926 234.598 1068.5 c 0,10,11
 308.577 1211 308.577 1211 428.971 1323 c 0,12,13
 534.315 1421 534.315 1421 656.375 1470.5 c 0,14,15
 778.435 1520 778.435 1520 917.037 1520 c 0,16,17
 1100.4 1520 1100.4 1520 1224.92 1436.29 c 1,18,19
 1283.76 1461.95 1283.76 1461.95 1340.88 1476 c 0,20,21
 1410.01 1493 1410.01 1493 1473.91 1493 c 0,22,23
 1671.91 1493 1671.91 1493 1741.77 1383 c 0,24,25
 1811.63 1273 1811.63 1273 1768.41 1026 c 2,26,-1
 1551.48 -214 l 1,27,-1
 1722.48 -214 l 1,28,-1
 1703.76 -321 l 1,29,-1
 1141.26 -321 l 1,30,-1
 1159.98 -214 l 1,31,-1
 1368.78 -214 l 1,32,-1
 1584.31 1018 l 2,33,34
 1622.45 1236 1622.45 1236 1593.27 1311 c 0,35,36
 1564.09 1386 1564.09 1386 1456.99 1386 c 0,37,38
 1378.03 1386 1378.03 1386 1329.99 1337.79 c 1,39,40
 1341.55 1322.99 1341.55 1322.99 1352.27 1307 c 0,41,42
 1495.01 1094 1495.01 1094 1433.95 745 c 0,43,44
 1402.64 566 1402.64 566 1328.03 422.5 c 0,45,46
 1253.85 279.807 1253.85 279.807 1133.21 168 c 0,47,48
 1027.16 69.7139 1027.16 69.7139 905.805 20.5 c 0,49,50
 783.749 -29 783.749 -29 646.049 -29 c 0,0,1
664.768 78 m 0,51,52
 885.268 78 885.268 78 1027.24 246.5 c 0,53,54
 1169.23 415 1169.23 415 1226.95 745 c 0,55,56
 1284.86 1076 1284.86 1076 1201.84 1244.5 c 0,57,58
 1118.82 1413 1118.82 1413 898.315 1413 c 0,59,60
 676.915 1413 676.915 1413 534.938 1244.5 c 0,61,62
 392.96 1076 392.96 1076 335.054 745 c 0,63,64
 277.323 415 277.323 415 360.346 246.5 c 0,65,66
 443.368 78 443.368 78 664.768 78 c 0,51,52
EndSplineSet
EndChar
StartChar: uni01A3
Encoding: 419 419 419
Width: 1487
Flags: W
LayerCount: 2
Fore
SplineSet
904.5 1033 m 1,0,1
 905.4 1035 905.4 1035 946.8 1046 c 0,2,3
 1008.9 1063 1008.9 1063 1073.7 1063 c 0,4,5
 1227.6 1063 1227.6 1063 1299.15 969.5 c 128,-1,6
 1370.7 876 1370.7 876 1341.9 712 c 2,7,-1
 1161 -319 l 1,8,-1
 1319.4 -319 l 1,9,-1
 1300.5 -426 l 1,10,-1
 976.5 -426 l 1,11,-1
 1176.3 712 l 2,14,15
 1198.8 841 1198.8 841 1170.45 902.5 c 128,-1,16
 1142.1 964 1142.1 964 1060.2 964 c 0,17,18
 1001.7 964 1001.7 964 988.2 951 c 0,19,-1
 996.3 939 l 0,20,21
 1096.2 786 1096.2 786 1051.65 532 c 128,-1,22
 1007.1 278 1007.1 278 854.1 124.5 c 128,-1,23
 701.1 -29 701.1 -29 491.4 -29 c 0,24,25
 282.6 -29 282.6 -29 182.25 124.5 c 128,-1,26
 81.9004 278 81.9004 278 126.45 532 c 128,-1,27
 171 786 171 786 324.45 939 c 128,-1,28
 477.9 1092 477.9 1092 687.6 1092 c 0,29,30
 817.2 1092 817.2 1092 904.5 1033 c 1,0,1
508.5 70 m 0,31,32
 641.7 70 641.7 70 729.9 187 c 128,-1,33
 818.1 304 818.1 304 858.15 532 c 128,-1,34
 898.2 760 898.2 760 850.5 876.5 c 128,-1,35
 802.8 993 802.8 993 669.6 993 c 128,-1,36
 536.4 993 536.4 993 448.2 876.5 c 128,-1,37
 360 760 360 760 319.95 532 c 128,-1,38
 279.9 304 279.9 304 328.05 187 c 128,-1,39
 376.2 70 376.2 70 508.5 70 c 0,31,32
EndSplineSet
EndChar
StartChar: uni01A4
Encoding: 420 420 420
Width: 1240
Flags: W
LayerCount: 2
Fore
SplineSet
403.294 1493 m 2,0,-1
 867.693 1493 l 2,1,2
 1069.29 1493 1069.29 1493 1167.43 1380 c 0,3,4
 1265.38 1266 1265.38 1266 1231.61 1073 c 0,5,6
 1198.03 881 1198.03 881 1060.18 767 c 128,-1,7
 922.347 653 922.347 653 720.742 653 c 2,8,-1
 439.043 653 l 1,9,-1
 343.349 106 l 1,10,-1
 551.249 106 l 1,11,-1
 532.706 0 l 1,12,-1
 -28.8945 0 l 1,13,-1
 -10.3506 106 l 1,14,-1
 160.649 106 l 1,15,-1
 384.576 1386 l 0,16,17
 180.276 1386 180.276 1386 103.506 1297 c 0,18,19
 23.6855 1206 23.6855 1206 -8.85352 1020 c 1,20,-1
 -124.953 1020 l 1,21,-1
 -64.7725 1364 l 1,22,23
 36.1973 1437 36.1973 1437 208.621 1476 c 0,24,25
 315.094 1493 315.094 1493 403.294 1493 c 2,0,-1
457.762 760 m 1,26,-1
 695.361 760 l 2,27,28
 829.462 760 829.462 760 913.653 840 c 0,29,30
 998.028 921 998.028 921 1024.61 1073 c 0,31,32
 1051.39 1226 1051.39 1226 995.184 1306 c 128,-1,33
 938.979 1386 938.979 1386 804.876 1386 c 2,34,-1
 567.276 1386 l 1,35,-1
 457.762 760 l 1,26,-1
EndSplineSet
EndChar
StartChar: uni01A5
Encoding: 421 421 421
Width: 1179
Flags: W
LayerCount: 2
Fore
SplineSet
388.8 584 m 2,0,-1
 370.8 479 l 2,1,2
 337.5 287 337.5 287 386.1 186 c 0,3,4
 434.7 86 434.7 86 560.7 86 c 0,5,6
 687.6 86 687.6 86 772.2 199 c 0,7,8
 857.7 312 857.7 312 895.5 532 c 0,9,10
 934.2 753 934.2 753 888.3 865 c 0,11,12
 843.3 977 843.3 977 716.4 977 c 0,13,14
 590.4 977 590.4 977 506.7 876 c 128,-1,16
 423 775 423 775 388.8 584 c 2,0,-1
315.9 1115 m 2,17,18
 344.7 1281 344.7 1281 448.2 1373 c 0,19,20
 552.6 1466 552.6 1466 706.5 1466 c 0,21,22
 766.8 1466 766.8 1466 827.1 1449 c 0,23,24
 882.9 1433 882.9 1433 933.3 1400 c 1,25,-1
 894.6 1181 l 1,26,-1
 809.1 1181 l 1,27,28
 826.2 1274 826.2 1274 790.2 1322 c 0,29,30
 756.9 1367 756.9 1367 685.8 1367 c 0,31,32
 603.9 1367 603.9 1367 553.5 1305 c 0,33,34
 504.9 1245 504.9 1245 482.4 1115 c 2,35,-1
 443.7 897 l 1,36,37
 508.5 995 508.5 995 594 1044 c 0,38,39
 676.8 1092 676.8 1092 787.5 1092 c 0,40,41
 963.9 1092 963.9 1092 1048.5 937 c 128,-1,43
 1133.1 782 1133.1 782 1089.45 532 c 128,-1,45
 1045.8 282 1045.8 282 906.3 126 c 0,46,47
 767.7 -29 767.7 -29 591.3 -29 c 0,48,49
 480.6 -29 480.6 -29 414 18 c 0,50,51
 347.4 66 347.4 66 315.9 166 c 1,52,-1
 212.4 -426 l 1,55,-1
 45.9004 -426 l 1,56,-1
 315.9 1115 l 2,17,18
EndSplineSet
EndChar
StartChar: uni01A6
Encoding: 422 422 422
Width: 1387
Flags: W
LayerCount: 2
Fore
SplineSet
413.004 1386 m 1,0,-1
 242.004 1386 l 1,1,-1
 260.722 1493 l 1,2,-1
 804.322 1493 l 1,3,-1
 785.604 1386 l 1,4,-1
 595.704 1386 l 1,5,-1
 557.567 1168 l 1,6,-1
 885.167 1168 l 2,7,8
 1081.37 1168 1081.37 1168 1169.82 1064 c 0,9,10
 1234.03 988.515 1234.03 988.515 1234.03 867.196 c 0,11,12
 1234.03 821.368 1234.03 821.368 1224.86 769 c 0,13,14
 1170.86 460.257 1170.86 460.257 853.51 416 c 1,15,16
 913.185 397 913.185 397 950.562 351.635 c 128,-1,17
 987.939 306.27 987.939 306.27 1009.82 224 c 2,18,-1
 1127.62 -219 l 1,19,-1
 1291.42 -219 l 1,20,-1
 1272.88 -325 l 1,21,-1
 956.079 -325 l 1,22,-1
 829.475 150 l 2,23,24
 792.487 288.776 792.487 288.776 749.588 328.888 c 128,-1,25
 706.688 369 706.688 369 618.487 369 c 2,26,-1
 417.787 369 l 1,27,-1
 371.777 106 l 1,28,-1
 561.678 106 l 1,29,-1
 543.133 0 l 1,30,-1
 -0.466797 0 l 1,31,-1
 18.0771 106 l 1,32,-1
 189.077 106 l 1,33,-1
 413.004 1386 l 1,0,-1
436.506 476 m 1,34,-1
 702.006 476 l 2,35,36
 837.906 476 837.906 476 915.219 547.5 c 128,-1,37
 992.52 619 992.52 619 1018.76 769 c 0,38,39
 1027.52 819.066 1027.52 819.066 1027.52 880.882 c 128,-1,40
 1027.52 942.698 1027.52 942.698 992.628 990 c 0,41,42
 940.248 1061 940.248 1061 804.348 1061 c 2,43,-1
 538.848 1061 l 1,44,-1
 436.506 476 l 1,34,-1
EndSplineSet
EndChar
StartChar: uni01A7
Encoding: 423 423 423
Width: 1262
Flags: W
AnchorPoint: "above" 757.67 1465 basechar 0
LayerCount: 2
Fore
SplineSet
993.672 72 m 1,0,1
 865.955 21 865.955 21 747.281 -4 c 0,2,3
 627.707 -29 627.707 -29 517.007 -29 c 0,4,5
 269.507 -29 269.507 -29 163.65 81 c 128,-1,6
 57.7939 191 57.7939 191 95.7568 408 c 0,7,8
 123.572 567 123.572 567 217.593 662 c 0,9,10
 312.337 756 312.337 756 505.708 817 c 2,11,-1
 681.83 872 l 2,12,13
 873.227 932 873.227 932 939.699 993 c 128,-1,14
 1006.17 1054 1006.17 1054 1024.88 1161 c 0,15,16
 1046.4 1284 1046.4 1284 983.799 1348 c 0,17,18
 920.475 1413 920.475 1413 778.274 1413 c 0,19,20
 615.374 1413 615.374 1413 523.753 1342 c 0,21,22
 431.407 1272 431.407 1272 388.466 1114 c 1,23,-1
 286.766 1114 l 1,24,-1
 342.397 1432 l 1,25,26
 475.921 1475 475.921 1475 591.544 1498 c 0,27,28
 706.993 1520 706.993 1520 800.593 1520 c 0,29,30
 1020.2 1520 1020.2 1520 1123.33 1415 c 128,-1,31
 1226.46 1310 1226.46 1310 1193.22 1120 c 0,32,33
 1163.66 951 1163.66 951 1068.38 854 c 0,34,35
 972.216 757 972.216 757 768.241 692 c 2,36,-1
 580.619 633 l 2,37,38
 407.197 578 407.197 578 345.75 520 c 0,39,40
 285.205 462 285.205 462 266.31 354 c 0,41,42
 242.693 219 242.693 219 314.871 148 c 0,43,44
 386.326 78 386.326 78 546.525 78 c 0,45,46
 718.426 78 718.426 78 817.371 160 c 0,47,48
 915.246 241 915.246 241 949.653 412 c 1,49,-1
 1053.15 412 l 1,50,-1
 993.672 72 l 1,0,1
EndSplineSet
EndChar
StartChar: uni01A8
Encoding: 424 424 424
Width: 945
Flags: W
AnchorPoint: "above" 571.455 1092 basechar 0
LayerCount: 2
Fore
SplineSet
768.739 59 m 1,0,1
 672.843 15 672.843 15 580.793 -7 c 128,-1,2
 488.745 -29 488.745 -29 396.045 -29 c 0,3,4
 213.345 -29 213.345 -29 124.165 58 c 0,5,6
 35.71 144 35.71 144 62.126 295 c 0,7,8
 81.5449 406 81.5449 406 154.091 476 c 0,9,10
 225.912 547 225.912 547 370.033 594 c 2,11,-1
 509.307 639 l 2,12,13
 638.154 681 638.154 681 685.826 722 c 0,14,15
 733.324 762 733.324 762 745.045 829 c 0,16,17
 759.392 911 759.392 911 712.563 952 c 0,18,19
 666.637 993 666.637 993 562.235 993 c 0,20,21
 456.936 993 456.936 993 385.59 935 c 128,-1,22
 314.242 877 314.242 877 292.624 774 c 1,23,-1
 197.225 774 l 1,24,-1
 237.81 1006 l 1,25,26
 334.257 1048 334.257 1048 421.807 1070 c 128,-1,27
 509.355 1092 509.355 1092 584.955 1092 c 0,28,29
 755.055 1092 755.055 1092 836.834 1009 c 128,-1,30
 918.612 926 918.612 926 893.073 780 c 0,31,32
 875.229 678 875.229 678 807.882 612 c 0,33,34
 741.437 546 741.437 546 610.439 502 c 1,35,-1
 482.867 457 l 1,36,37
 336.595 408 336.595 408 285.872 365 c 0,38,39
 236.049 322 236.049 322 223.804 252 c 0,40,41
 208.234 163 208.234 163 258.512 116 c 0,42,43
 308.965 70 308.965 70 420.564 70 c 0,44,45
 544.765 70 544.765 70 618.985 129 c 0,46,47
 692.307 188 692.307 188 716.725 307 c 1,48,-1
 812.125 307 l 1,49,-1
 768.739 59 l 1,0,1
EndSplineSet
EndChar
StartChar: uni01AA
Encoding: 426 426 426
Width: 597
Flags: W
LayerCount: 2
Fore
SplineSet
320.802 1459 m 0,0,1
 177.701 1459 177.701 1459 158.982 1352 c 0,2,3
 137.464 1229 137.464 1229 417.364 1229 c 0,4,5
 429.964 1229 429.964 1229 442.739 1230 c 1,6,7
 466.559 1325 466.559 1325 431.455 1397 c 0,8,9
 400.901 1459 400.901 1459 320.802 1459 c 0,0,1
616.459 1333 m 1,10,11
 655.031 1394 655.031 1394 671.649 1489 c 2,12,-1
 682.846 1553 l 1,13,-1
 772.846 1553 l 1,14,-1
 760.749 1489 l 2,15,16
 719.562 1269 719.562 1269 594.717 1183 c 1,17,18
 420.148 643 420.148 643 192.093 -105 c 0,19,20
 158.623 -214 158.623 -214 197.553 -295 c 0,21,22
 225.406 -357 225.406 -357 307.306 -357 c 0,23,24
 381.105 -357 381.105 -357 427.854 -311 c 0,25,26
 473.351 -267 473.351 -267 496.445 -171 c 1,27,-1
 581.945 -171 l 1,28,-1
 543.808 -389 l 1,29,30
 482.06 -423 482.06 -423 420.762 -439 c 0,31,32
 358.562 -455 358.562 -455 293.762 -455 c 0,33,34
 139.861 -455 139.861 -455 68.832 -362 c 0,35,36
 -19.0508 -247 -19.0508 -247 25.5918 -105 c 1,37,38
 23.541 -91 23.541 -91 411.571 1129 c 1,39,40
 407.071 1129 407.071 1129 403.471 1129 c 0,41,42
 -80.7295 1129 -80.7295 1129 -35.9932 1359 c 0,43,44
 2.4209 1558 2.4209 1558 339.92 1558 c 0,45,46
 484.82 1558 484.82 1558 560.351 1465 c 0,47,48
 608.18 1404 608.18 1404 616.459 1333 c 1,10,11
EndSplineSet
EndChar
StartChar: uni01AB
Encoding: 427 427 427
Width: 740
Flags: W
LayerCount: 2
Fore
SplineSet
366.145 956 m 1,0,-1
 220.345 956 l 1,1,-1
 239.063 1063 l 1,2,-1
 384.863 1063 l 1,3,-1
 442.594 1393 l 1,4,-1
 609.094 1393 l 1,5,-1
 551.363 1063 l 1,6,-1
 862.764 1063 l 1,7,-1
 844.044 956 l 1,8,-1
 532.645 956 l 1,9,-1
 414.559 281 l 2,10,11
 390.942 146 390.942 146 407.693 108 c 0,12,13
 424.445 70 424.445 70 487.445 70 c 0,14,15
 552.245 70 552.245 70 589.381 112.5 c 0,16,17
 626.516 155 626.516 155 644.936 250 c 1,18,-1
 770.035 250 l 1,19,-1
 708.105 -104 l 2,20,21
 679.415 -268 679.415 -268 575.308 -361.5 c 0,22,23
 471.201 -455 471.201 -455 317.302 -455 c 0,24,25
 252.501 -455 252.501 -455 196.438 -438.5 c 0,26,27
 140.375 -422 140.375 -422 90.3477 -389 c 1,28,-1
 128.659 -170 l 1,29,-1
 214.159 -170 l 1,30,31
 203.665 -266 203.665 -266 234.043 -311 c 0,32,33
 264.421 -356 264.421 -356 338.221 -356 c 0,34,35
 420.093 -356 420.093 -356 470.029 -294.5 c 0,36,37
 518.783 -234.457 518.783 -234.457 541.605 -104 c 2,38,-1
 556.849 -16.8691 l 1,39,40
 511.256 -29 511.256 -29 455.727 -29 c 0,41,42
 312.627 -29 312.627 -29 265.56 41.5 c 0,43,44
 218.494 112 218.494 112 248.059 281 c 2,45,-1
 366.145 956 l 1,0,-1
EndSplineSet
EndChar
StartChar: uni01AC
Encoding: 428 428 428
Width: 1229
Flags: W
AnchorPoint: "above" 734.996 1465 basechar 0
LayerCount: 2
Fore
SplineSet
654.394 1493 m 10,0,-1
 1341.99 1493 l 17,1,-1
 1280.41 1141 l 1,2,-1
 1169.71 1141 l 1,3,-1
 1210.47 1374 l 1,4,-1
 815.377 1374 l 1,5,-1
 593.549 106 l 1,6,-1
 765.449 106 l 1,7,-1
 746.906 0 l 1,8,-1
 221.307 0 l 1,9,-1
 239.849 106 l 1,10,-1
 411.749 106 l 1,11,-1
 633.576 1374 l 0,12,13
 429.276 1374 429.276 1374 351.606 1285 c 0,14,15
 272.687 1194 272.687 1194 240.147 1008 c 1,16,-1
 124.047 1008 l 1,17,-1
 186.327 1364 l 1,18,19
 291.423 1440 291.423 1440 459.721 1476 c 0,20,21
 570.693 1493 570.693 1493 654.394 1493 c 10,0,-1
EndSplineSet
EndChar
StartChar: uni01AD
Encoding: 429 429 429
Width: 740
Flags: W
LayerCount: 2
Fore
SplineSet
417.795 1063 m 1,0,-1
 729.195 1063 l 1,1,-1
 710.477 956 l 1,2,-1
 399.076 956 l 1,3,-1
 280.991 281 l 2,4,5
 257.373 146 257.373 146 274.126 108 c 128,-1,6
 290.877 70 290.877 70 353.877 70 c 0,7,8
 418.678 70 418.678 70 455.725 112 c 0,9,10
 492.948 155 492.948 155 511.367 250 c 1,11,-1
 636.468 250 l 1,12,13
 611.101 105 611.101 105 528.28 38 c 0,14,15
 452.657 -29 452.657 -29 322.157 -29 c 0,16,17
 179.058 -29 179.058 -29 132.079 42 c 0,18,19
 84.9248 112 84.9248 112 114.491 281 c 2,20,-1
 232.576 956 l 1,21,-1
 86.7764 956 l 1,22,-1
 105.495 1063 l 1,23,-1
 251.295 1063 l 1,24,-1
 276.137 1205 l 2,25,26
 304.479 1367 304.479 1367 409.297 1462 c 0,27,28
 513.042 1556 513.042 1556 666.942 1556 c 0,29,30
 736.242 1556 736.242 1556 788.344 1540 c 0,31,32
 843.869 1523 843.869 1523 893.896 1490 c 1,33,-1
 855.583 1271 l 1,34,-1
 770.083 1271 l 1,35,36
 786.878 1367 786.878 1367 749.75 1412 c 0,37,38
 719.822 1457 719.822 1457 646.022 1457 c 0,39,40
 564.123 1457 564.123 1457 514.75 1396 c 0,41,42
 465.73 1337 465.73 1337 442.637 1205 c 2,43,-1
 417.795 1063 l 1,0,-1
EndSplineSet
EndChar
StartChar: uni01AE
Encoding: 430 430 430
Width: 1229
Flags: W
LayerCount: 2
Fore
SplineSet
1005.04 -358 m 1,0,1
 933.39 -392 933.39 -392 864.717 -409 c 0,2,3
 795.143 -426 795.143 -426 731.243 -426 c 0,4,5
 533.243 -426 533.243 -426 463.387 -316 c 0,6,7
 393.53 -206 393.53 -206 437.642 41 c 2,8,-1
 670.839 1374 l 1,9,-1
 275.739 1374 l 1,10,-1
 234.978 1141 l 1,11,-1
 124.277 1141 l 1,12,-1
 185.857 1493 l 1,13,-1
 1379.26 1493 l 1,14,-1
 1317.68 1141 l 1,15,-1
 1206.98 1141 l 1,16,-1
 1247.74 1374 l 1,17,-1
 852.64 1374 l 1,18,-1
 620.84 49 l 2,19,20
 583.228 -166 583.228 -166 611.882 -244 c 0,21,22
 639.262 -319 639.262 -319 748.162 -319 c 0,23,24
 827.362 -319 827.362 -319 875.533 -270 c 0,25,26
 923.535 -222 923.535 -222 943.551 -123 c 1,27,-1
 1046.15 -123 l 1,28,-1
 1005.04 -358 l 1,0,1
EndSplineSet
EndChar
StartChar: uni01B1
Encoding: 433 433 433
Width: 1528
Flags: W
LayerCount: 2
Fore
SplineSet
626.266 1356 m 1,0,-1
 323.866 1356 l 1,1,-1
 299.898 1219 l 1,2,-1
 194.599 1219 l 1,3,-1
 247.256 1520 l 1,4,-1
 780.056 1520 l 1,5,-1
 748.217 1338 l 1,6,7
 573.971 1268 573.971 1268 462.979 1112 c 0,8,9
 353.063 957 353.063 957 312.477 725 c 0,10,11
 263.669 446 263.669 446 357.228 276 c 0,12,13
 450.962 107 450.962 107 650.762 107 c 128,-1,14
 850.562 107 850.562 107 1003.43 276 c 0,15,16
 1156.46 446 1156.46 446 1205.28 725 c 0,17,18
 1246.04 958 1246.04 958 1190.36 1113 c 128,-1,19
 1134.67 1268 1134.67 1268 985.814 1338 c 1,20,-1
 1017.66 1520 l 1,21,-1
 1548.66 1520 l 1,22,-1
 1496 1219 l 1,23,-1
 1390.7 1219 l 1,24,-1
 1414.67 1356 l 1,25,-1
 1114.06 1356 l 1,26,27
 1286.95 1269 1286.95 1269 1365.96 1093 c 128,-1,28
 1444.97 917 1444.97 917 1407.53 703 c 0,29,30
 1381.11 552 1381.11 552 1306.9 421 c 0,31,32
 1231.78 290 1231.78 290 1114.76 187 c 0,33,34
 1009.74 96 1009.74 96 886.142 48 c 128,-1,35
 762.544 0 762.544 0 632.044 0 c 128,-1,36
 501.544 0 501.544 0 395.642 48 c 0,37,38
 289.563 95 289.563 95 216.558 187 c 0,39,40
 134.678 290 134.678 290 105.57 422 c 0,41,42
 76.2871 553 76.2871 553 102.528 703 c 0,43,44
 139.791 916 139.791 916 281.28 1092 c 0,45,46
 422.045 1269 422.045 1269 626.266 1356 c 1,0,-1
EndSplineSet
EndChar
StartChar: uni01B2
Encoding: 434 434 434
Width: 1400
Flags: W
LayerCount: 2
Fore
SplineSet
506.747 0 m 24,0,1
 313.412 -11.0957 313.412 -11.0957 256.994 54 c 0,2,3
 169.378 155.089 169.378 155.089 203.651 351 c 2,4,-1
 384.717 1386 l 1,5,-1
 213.717 1386 l 1,6,-1
 232.436 1493 l 1,7,-1
 757.136 1493 l 1,8,-1
 738.417 1386 l 1,9,-1
 567.417 1386 l 1,10,-1
 386.352 351 l 2,11,12
 364.54 226.325 364.54 226.325 390.737 160 c 0,13,14
 409.399 112.753 409.399 112.753 525.466 107 c 24,15,16
 716.711 97.5195 716.711 97.5195 878.218 276.5 c 0,17,18
 1031.17 446 1031.17 446 1079.98 725 c 0,19,20
 1123.52 973.905 1123.52 973.905 1065.06 1113 c 0,21,22
 1008.77 1244 1008.77 1244 876.874 1272 c 1,23,-1
 896.816 1386 l 1,24,-1
 994.014 1386 l 1,25,-1
 994.014 1386 l 1,26,27
 1178.96 1303.35 1178.96 1303.35 1244.08 1128 c 0,28,29
 1320.19 919.998 1320.19 919.998 1282.23 703 c 0,30,31
 1255.81 552 1255.81 552 1181.15 421 c 0,32,33
 1104.68 286.834 1104.68 286.834 989.46 187 c 0,34,35
 884.441 96 884.441 96 760.845 48 c 0,36,37
 659.875 8.78809 659.875 8.78809 506.747 0 c 24,0,1
EndSplineSet
EndChar
StartChar: uni01B3
Encoding: 435 435 435
Width: 1360
Flags: W
AnchorPoint: "above" 732.62 1472 basechar 0
LayerCount: 2
Fore
SplineSet
589.949 106 m 17,0,-1
 761.85 106 l 1,1,-1
 743.307 0 l 1,2,-1
 217.706 0 l 1,3,-1
 236.249 106 l 1,4,-1
 408.149 106 l 1,5,-1
 502.094 643 l 1,6,-1
 217.177 1386 l 1,7,-1
 91.1768 1386 l 1,8,-1
 109.894 1493 l 1,9,-1
 609.394 1493 l 1,10,-1
 590.676 1386 l 1,11,-1
 434.076 1386 l 1,12,-1
 664.11 782 l 1,13,-1
 1105.48 1386 l 1,14,15
 1240.95 1493 1240.95 1493 1363.59 1493 c 0,16,17
 1423.78 1493 1423.78 1493 1483.92 1476 c 0,18,19
 1540.52 1460 1540.52 1460 1590.55 1427 c 1,20,-1
 1552.24 1208 l 1,21,-1
 1466.74 1208 l 1,22,23
 1477.23 1304 1477.23 1304 1447.3 1349 c 0,24,25
 1416.47 1394 1416.47 1394 1342.67 1394 c 0,26,27
 1229.36 1394 1229.36 1394 1170.78 1322 c 0,28,-1
 687.218 662 l 9,29,-1
 589.949 106 l 17,0,-1
EndSplineSet
EndChar
StartChar: uni01B4
Encoding: 436 436 436
Width: 1372
Flags: W
AnchorPoint: "above" 651.18 1092 basechar 0
LayerCount: 2
Fore
SplineSet
393.406 -240 m 1,0,1
 326.715 -364 326.715 -364 263.854 -409.5 c 128,-1,2
 200.993 -455 200.993 -455 101.094 -455 c 0,3,4
 58.7939 -455 58.7939 -455 15.6436 -447 c 128,-1,5
 -27.5068 -439 -27.5068 -439 -69.8828 -424 c 1,6,-1
 -34.3701 -221 l 1,7,-1
 50.2305 -221 l 1,8,9
 43.7344 -289 43.7344 -289 64.2236 -318.5 c 128,-1,10
 84.7129 -348 84.7129 -348 138.713 -348 c 0,11,12
 188.213 -348 188.213 -348 223.698 -317.5 c 128,-1,13
 259.184 -287 259.184 -287 308.578 -195 c 1,14,-1
 402.544 -18 l 1,15,-1
 215.639 956 l 1,16,-1
 106.738 956 l 1,17,-1
 125.456 1063 l 1,18,-1
 565.557 1063 l 1,19,-1
 546.838 956 l 1,20,-1
 393.838 956 l 1,21,-1
 535.055 225 l 1,22,-1
 884.442 864 l 2,23,24
 1005.88 1086.09 1005.88 1086.09 1226.4 1085 c 0,25,26
 1309.95 1084.59 1309.95 1084.59 1346.73 1068 c 0,27,28
 1449 1021.88 1449 1021.88 1453.36 1019 c 1,29,-1
 1415.04 800 l 1,30,-1
 1329.54 800 l 1,31,32
 1340.04 896 1340.04 896 1310.11 941 c 0,33,34
 1279.29 986 1279.29 986 1205.49 986 c 0,35,36
 1056.4 986 1056.4 986 977.445 840 c 2,37,-1
 393.406 -240 l 1,0,1
EndSplineSet
EndChar
StartChar: uni01B5
Encoding: 437 437 437
Width: 1280
Flags: W
AnchorPoint: "above" 767.396 1465 basechar 0
LayerCount: 2
Fore
SplineSet
1071.91 798 m 1,0,-1
 1042.17 628 l 1,1,-1
 644.369 628 l 1,2,-1
 230.224 123 l 1,3,-1
 989.82 123 l 1,4,-1
 1026.39 332 l 1,5,-1
 1136.19 332 l 1,6,-1
 1078.11 0 l 1,7,-1
 -47.7939 0 l 1,8,-1
 -35.1982 72 l 1,9,-1
 420.27 628 l 1,10,-1
 197.069 628 l 1,11,-1
 226.81 798 l 1,12,-1
 559.81 798 l 1,13,-1
 1028.88 1370 l 1,14,-1
 334.076 1370 l 1,15,-1
 295.065 1147 l 1,16,-1
 184.365 1147 l 1,17,-1
 244.894 1493 l 1,18,-1
 1306.89 1493 l 1,19,-1
 1294.3 1421 l 1,20,-1
 783.91 798 l 1,21,-1
 1071.91 798 l 1,0,-1
EndSplineSet
EndChar
StartChar: uni01B6
Encoding: 438 438 438
Width: 971
Flags: W
AnchorPoint: "above" 574.155 1092 basechar 0
AnchorPoint: "below" 383.118 0 basechar 0
LayerCount: 2
Fore
SplineSet
143.1 464 m 1,0,-1
 161.1 570 l 1,1,-1
 414 570 l 1,2,-1
 650.7 843 l 1,3,4
 640.8 847 640.8 847 614.7 856 c 0,5,6
 587.79 865.674 587.79 865.674 553.5 889 c 2,7,-1
 509.4 919 l 2,8,9
 425.61 976 425.61 976 363.6 976 c 0,10,11
 245.7 976 245.7 976 107.1 826 c 1,12,-1
 128.7 947 l 1,13,14
 283.729 1116.23 283.729 1116.23 399.6 1115 c 0,15,16
 468.871 1114.26 468.871 1114.26 570.6 1044 c 0,17,18
 670.5 975 670.5 975 733.5 975 c 0,19,20
 830.7 975 830.7 975 925.2 1063 c 1,21,-1
 979.2 1063 l 1,22,-1
 964.8 977 l 1,23,-1
 612.9 570 l 1,24,-1
 821.7 570 l 1,25,-1
 803.7 464 l 1,26,-1
 522 464 l 1,27,-1
 310.5 219 l 1,28,29
 319.5 216 319.5 216 345.6 207 c 0,30,31
 372.51 197.326 372.51 197.326 406.8 174 c 2,32,-1
 450.9 144 l 2,33,34
 534.689 87 534.689 87 596.7 87 c 0,35,36
 714.6 87 714.6 87 853.2 237 c 1,37,-1
 831.6 116 l 1,38,39
 676.571 -53.2324 676.571 -53.2324 560.7 -52 c 0,40,41
 491.43 -51.2637 491.43 -51.2637 389.7 19 c 0,42,43
 289.8 88 289.8 88 226.8 88 c 0,44,45
 129.6 88 129.6 88 35.0996 0 c 1,46,-1
 -18.9004 0 l 1,47,-1
 -4.5 86 l 1,48,-1
 322.2 464 l 1,49,-1
 143.1 464 l 1,0,-1
EndSplineSet
EndChar
StartChar: uni01B7
Encoding: 439 439 439
Width: 1040
Flags: W
LayerCount: 2
Fore
SplineSet
496.192 852 m 2,0,-1
 410.692 852 l 1,1,-1
 428.537 954 l 1,2,-1
 810.913 1370 l 1,3,-1
 336.613 1370 l 1,4,-1
 297.602 1147 l 1,5,-1
 186.901 1147 l 1,6,-1
 247.432 1493 l 1,7,-1
 1033.13 1493 l 1,8,-1
 1011.27 1368 l 1,9,-1
 601.314 923 l 1,10,-1
 671.189 916 l 0,11,12
 831.716 887 831.716 887 902.349 766 c 0,13,14
 972.252 646 972.252 646 938.664 454 c 0,15,16
 897.73 220 897.73 220 748.962 95 c 0,17,18
 601.269 -29 601.269 -29 363.668 -29 c 0,19,20
 258.368 -29 258.368 -29 163.368 -1 c 0,21,22
 67.4658 27 67.4658 27 -21.5625 84 c 1,23,-1
 35.1182 408 l 1,24,-1
 135.919 408 l 1,25,26
 116.753 247 116.753 247 180.533 164 c 128,-1,27
 244.312 81 244.312 81 386.512 81 c 0,28,29
 524.212 81 524.212 81 621.807 181 c 0,30,31
 718.326 280 718.326 280 748.416 452 c 0,32,33
 782.879 649 782.879 649 718.823 751 c 0,34,35
 654.593 852 654.593 852 496.192 852 c 2,0,-1
EndSplineSet
EndChar
StartChar: uni01B8
Encoding: 440 440 440
Width: 1040
Flags: W
LayerCount: 2
Fore
SplineSet
624.893 852 m 2,0,1
 466.492 852 466.492 852 366.924 751 c 0,2,3
 267.18 649 267.18 649 232.716 452 c 0,4,5
 202.626 280 202.626 280 264.507 181 c 0,6,7
 327.112 81 327.112 81 464.812 81 c 0,8,9
 607.012 81 607.012 81 699.833 164 c 128,-1,10
 792.653 247 792.653 247 829.818 408 c 1,11,-1
 930.618 408 l 1,12,-1
 873.938 84 l 1,13,14
 764.966 27 764.966 27 659.268 -1 c 0,15,16
 554.469 -29 554.469 -29 449.168 -29 c 0,17,18
 211.568 -29 211.568 -29 107.262 95 c 0,19,20
 2.22949 220 2.22949 220 43.166 454 c 0,21,22
 76.7549 646 76.7549 646 188.648 766 c 0,23,24
 301.616 887 301.616 887 472.289 916 c 0,25,-1
 544.614 923 l 1,26,-1
 290.363 1368 l 1,27,-1
 312.231 1493 l 1,28,-1
 1097.93 1493 l 1,29,-1
 1037.4 1147 l 1,30,-1
 926.703 1147 l 1,31,-1
 965.709 1370 l 1,32,-1
 491.413 1370 l 1,33,-1
 728.236 954 l 1,34,-1
 710.393 852 l 1,35,-1
 624.893 852 l 2,0,1
EndSplineSet
EndChar
StartChar: uni01B9
Encoding: 441 441 441
Width: 1040
Flags: W
LayerCount: 2
Fore
SplineSet
624.98 423 m 2,0,1
 466.581 423 466.581 423 367.011 322 c 0,2,3
 267.268 220 267.268 220 232.804 23 c 0,4,5
 202.713 -149 202.713 -149 264.594 -248 c 0,6,7
 327.2 -348 327.2 -348 464.9 -348 c 0,8,9
 607.101 -348 607.101 -348 699.92 -265 c 128,-1,10
 792.74 -182 792.74 -182 829.906 -21 c 1,11,-1
 930.708 -21 l 1,12,-1
 874.025 -345 l 1,13,14
 765.053 -402 765.053 -402 659.354 -430 c 0,15,16
 554.557 -458 554.557 -458 449.257 -458 c 0,17,18
 211.656 -458 211.656 -458 107.35 -334 c 0,19,20
 2.31641 -209 2.31641 -209 43.2539 25 c 0,21,22
 76.8428 217 76.8428 217 188.735 337 c 0,23,24
 301.704 458 301.704 458 472.377 487 c 0,25,-1
 544.701 494 l 1,26,-1
 297.098 977 l 1,27,-1
 312.144 1063 l 1,28,-1
 1095.15 1063 l 1,29,-1
 1044.23 772 l 1,30,-1
 948.834 772 l 1,31,-1
 981.027 956 l 1,32,-1
 506.725 956 l 1,33,-1
 728.325 525 l 1,34,-1
 710.48 423 l 1,35,-1
 624.98 423 l 2,0,1
EndSplineSet
EndChar
StartChar: uni01BB
Encoding: 443 443 443
Width: 1172
Flags: W
LayerCount: 2
Fore
SplineSet
301.753 1137 m 1,0,-1
 200.953 1137 l 1,1,-1
 247.487 1403 l 1,2,3
 353.76 1460 353.76 1460 457.107 1490 c 0,4,5
 559.556 1520 559.556 1520 653.156 1520 c 0,6,7
 862.856 1520 862.856 1520 964.584 1407 c 0,8,9
 1066.32 1294 1066.32 1294 1032.38 1100 c 0,10,11
 1008.76 965 1008.76 965 875.148 798 c 1,12,-1
 1015.55 798 l 1,13,-1
 985.806 628 l 1,14,-1
 720.308 628 l 1,15,-1
 221.534 164 l 1,16,-1
 782.234 164 l 1,17,-1
 814.424 348 l 1,18,-1
 919.728 348 l 1,19,-1
 858.844 0 l 1,20,-1
 -7.85645 0 l 1,21,-1
 11.2119 109 l 1,22,-1
 497.986 561 l 2,23,24
 534.535 595 534.535 595 567.308 628 c 1,25,-1
 140.708 628 l 1,26,-1
 170.448 798 l 1,27,-1
 713.148 798 l 1,28,29
 726.547 818 726.547 818 738.694 836 c 0,30,31
 818.339 962 818.339 962 842.48 1100 c 0,32,33
 868.896 1251 868.896 1251 813.566 1336 c 0,34,35
 757.337 1421 757.337 1421 633.137 1421 c 0,36,37
 504.437 1421 504.437 1421 421.816 1350 c 0,38,39
 326.596 1279 326.596 1279 301.753 1137 c 1,0,-1
EndSplineSet
EndChar
